<?xml version="1.0" encoding="UTF-8" standalone="no"?>
<!DOCTYPE svg PUBLIC "-//W3C//DTD SVG 1.1//EN"
 "http://www.w3.org/Graphics/SVG/1.1/DTD/svg11.dtd">
<!-- Generated by graphviz version 2.44.0 (0)
 -->
<!-- Title: GG Pages: 1 -->
<svg width="1742pt" height="260pt"
 viewBox="0.00 0.00 1742.01 260.00" xmlns="http://www.w3.org/2000/svg" xmlns:xlink="http://www.w3.org/1999/xlink">
<g id="graph0" class="graph" transform="scale(1 1) rotate(0) translate(4 256)">
<title>GG</title>
<!-- FFmpeg -->
<g id="node1" class="node">
<title>FFmpeg</title>
<ellipse fill="none" stroke="#64748b" cx="49.26" cy="-162" rx="32.93" ry="18"/>
<text text-anchor="middle" x="49.26" y="-159.5" font-family="Times-Roman" font-size="10.00" fill="#64748b">FFmpeg</text>
</g>
<!-- openh264 -->
<g id="node2" class="node">
<title>openh264</title>
<ellipse fill="none" stroke="#64748b" cx="38.26" cy="-90" rx="38.03" ry="18"/>
<text text-anchor="middle" x="38.26" y="-87.5" font-family="Times-Roman" font-size="10.00" fill="#64748b">openh264</text>
</g>
<!-- FFmpeg&#45;&gt;openh264 -->
<g id="edge1" class="edge">
<title>FFmpeg&#45;&gt;openh264</title>
<path fill="none" stroke="#64748b" d="M46.6,-144.05C45.39,-136.35 43.92,-127.03 42.56,-118.36"/>
<polygon fill="#64748b" stroke="#64748b" points="45.99,-117.61 40.98,-108.28 39.07,-118.7 45.99,-117.61"/>
</g>
<!-- yasm -->
<g id="node3" class="node">
<title>yasm</title>
<ellipse fill="none" stroke="#64748b" cx="104.26" cy="-18" rx="27" ry="18"/>
<text text-anchor="middle" x="104.26" y="-15.5" font-family="Times-Roman" font-size="10.00" fill="#64748b">yasm</text>
</g>
<!-- FFmpeg&#45;&gt;yasm -->
<g id="edge2" class="edge">
<title>FFmpeg&#45;&gt;yasm</title>
<path fill="none" stroke="#64748b" stroke-dasharray="5,2" d="M62.36,-145.25C70.11,-135.17 79.5,-121.5 85.26,-108 93.73,-88.17 98.57,-64.2 101.24,-46.13"/>
<polygon fill="#64748b" stroke="#64748b" points="104.74,-46.37 102.61,-35.99 97.8,-45.43 104.74,-46.37"/>
</g>
<!-- openh264&#45;&gt;yasm -->
<g id="edge34" class="edge">
<title>openh264&#45;&gt;yasm</title>
<path fill="none" stroke="#64748b" stroke-dasharray="5,2" d="M53.24,-73.12C62.09,-63.73 73.43,-51.7 83.18,-41.36"/>
<polygon fill="#64748b" stroke="#64748b" points="85.93,-43.54 90.25,-33.86 80.84,-38.74 85.93,-43.54"/>
</g>
<!-- LuaBridge -->
<g id="node4" class="node">
<title>LuaBridge</title>
<ellipse fill="none" stroke="#64748b" cx="1141.26" cy="-234" rx="38.03" ry="18"/>
<text text-anchor="middle" x="1141.26" y="-231.5" font-family="Times-Roman" font-size="10.00" fill="#64748b">LuaBridge</text>
</g>
<!-- lua -->
<g id="node5" class="node">
<title>lua</title>
<ellipse fill="none" stroke="#64748b" cx="1141.26" cy="-162" rx="27" ry="18"/>
<text text-anchor="middle" x="1141.26" y="-159.5" font-family="Times-Roman" font-size="10.00" fill="#64748b">lua</text>
</g>
<!-- LuaBridge&#45;&gt;lua -->
<g id="edge3" class="edge">
<title>LuaBridge&#45;&gt;lua</title>
<path fill="none" stroke="#64748b" d="M1141.26,-215.7C1141.26,-207.98 1141.26,-198.71 1141.26,-190.11"/>
<polygon fill="#64748b" stroke="#64748b" points="1144.76,-190.1 1141.26,-180.1 1137.76,-190.1 1144.76,-190.1"/>
</g>
<!-- activemq&#45;cpp -->
<g id="node6" class="node">
<title>activemq&#45;cpp</title>
<ellipse fill="none" stroke="#64748b" cx="159.26" cy="-162" rx="48.72" ry="18"/>
<text text-anchor="middle" x="159.26" y="-159.5" font-family="Times-Roman" font-size="10.00" fill="#64748b">activemq&#45;cpp</text>
</g>
<!-- apr -->
<g id="node7" class="node">
<title>apr</title>
<ellipse fill="none" stroke="#64748b" cx="159.26" cy="-90" rx="27" ry="18"/>
<text text-anchor="middle" x="159.26" y="-87.5" font-family="Times-Roman" font-size="10.00" fill="#64748b">apr</text>
</g>
<!-- activemq&#45;cpp&#45;&gt;apr -->
<g id="edge4" class="edge">
<title>activemq&#45;cpp&#45;&gt;apr</title>
<path fill="none" stroke="#64748b" d="M159.26,-143.7C159.26,-135.98 159.26,-126.71 159.26,-118.11"/>
<polygon fill="#64748b" stroke="#64748b" points="162.76,-118.1 159.26,-108.1 155.76,-118.1 162.76,-118.1"/>
</g>
<!-- openssl -->
<g id="node8" class="node">
<title>openssl</title>
<ellipse fill="none" stroke="#64748b" cx="320.26" cy="-90" rx="31.58" ry="18"/>
<text text-anchor="middle" x="320.26" y="-87.5" font-family="Times-Roman" font-size="10.00" fill="#64748b">openssl</text>
</g>
<!-- activemq&#45;cpp&#45;&gt;openssl -->
<g id="edge5" class="edge">
<title>activemq&#45;cpp&#45;&gt;openssl</title>
<path fill="none" stroke="#64748b" d="M189.55,-147.83C217.21,-135.81 258.04,-118.05 286.69,-105.6"/>
<polygon fill="#64748b" stroke="#64748b" points="288.13,-108.79 295.9,-101.59 285.33,-102.37 288.13,-108.79"/>
</g>
<!-- openssl&#45;&gt;yasm -->
<g id="edge36" class="edge">
<title>openssl&#45;&gt;yasm</title>
<path fill="none" stroke="#64748b" stroke-dasharray="5,2" d="M295.7,-78.35C290.32,-76.15 284.63,-73.92 279.26,-72 231.11,-54.77 174.26,-38.24 138.73,-28.35"/>
<polygon fill="#64748b" stroke="#64748b" points="139.43,-24.91 128.86,-25.62 137.56,-31.66 139.43,-24.91"/>
</g>
<!-- nasm -->
<g id="node40" class="node">
<title>nasm</title>
<ellipse fill="none" stroke="#64748b" cx="320.26" cy="-18" rx="27" ry="18"/>
<text text-anchor="middle" x="320.26" y="-15.5" font-family="Times-Roman" font-size="10.00" fill="#64748b">nasm</text>
</g>
<!-- openssl&#45;&gt;nasm -->
<g id="edge35" class="edge">
<title>openssl&#45;&gt;nasm</title>
<path fill="none" stroke="#64748b" stroke-dasharray="5,2" d="M320.26,-71.7C320.26,-63.98 320.26,-54.71 320.26,-46.11"/>
<polygon fill="#64748b" stroke="#64748b" points="323.76,-46.1 320.26,-36.1 316.76,-46.1 323.76,-46.1"/>
</g>
<!-- argon2 -->
<g id="node9" class="node">
<title>argon2</title>
<ellipse fill="none" stroke="#64748b" cx="406.26" cy="-90" rx="29.37" ry="18"/>
<text text-anchor="middle" x="406.26" y="-87.5" font-family="Times-Roman" font-size="10.00" fill="#64748b">argon2</text>
</g>
<!-- Threads -->
<g id="node10" class="node">
<title>Threads</title>
<ellipse fill="none" stroke="#64748b" cx="589.26" cy="-18" rx="32.93" ry="18"/>
<text text-anchor="middle" x="589.26" y="-15.5" font-family="Times-Roman" font-size="10.00" fill="#64748b">Threads</text>
</g>
<!-- argon2&#45;&gt;Threads -->
<g id="edge6" class="edge">
<title>argon2&#45;&gt;Threads</title>
<path fill="none" stroke="#64748b" d="M429.06,-78.49C434.04,-76.28 439.31,-74.01 444.26,-72 480.74,-57.19 523.1,-41.93 552.58,-31.61"/>
<polygon fill="#64748b" stroke="#64748b" points="553.76,-34.9 562.05,-28.3 551.46,-28.29 553.76,-34.9"/>
</g>
<!-- azmq -->
<g id="node11" class="node">
<title>azmq</title>
<ellipse fill="none" stroke="#64748b" cx="664.26" cy="-234" rx="27" ry="18"/>
<text text-anchor="middle" x="664.26" y="-231.5" font-family="Times-Roman" font-size="10.00" fill="#64748b">azmq</text>
</g>
<!-- libzmq -->
<g id="node12" class="node">
<title>libzmq</title>
<ellipse fill="none" stroke="#64748b" cx="592.26" cy="-162" rx="29.37" ry="18"/>
<text text-anchor="middle" x="592.26" y="-159.5" font-family="Times-Roman" font-size="10.00" fill="#64748b">libzmq</text>
</g>
<!-- azmq&#45;&gt;libzmq -->
<g id="edge7" class="edge">
<title>azmq&#45;&gt;libzmq</title>
<path fill="none" stroke="#64748b" d="M649.69,-218.83C639.68,-209.1 626.18,-195.98 614.79,-184.9"/>
<polygon fill="#64748b" stroke="#64748b" points="616.92,-182.09 607.31,-177.63 612.04,-187.11 616.92,-182.09"/>
</g>
<!-- boost -->
<g id="node13" class="node">
<title>boost</title>
<ellipse fill="none" stroke="#64748b" cx="670.26" cy="-162" rx="27" ry="18"/>
<text text-anchor="middle" x="670.26" y="-159.5" font-family="Times-Roman" font-size="10.00" fill="#64748b">boost</text>
</g>
<!-- azmq&#45;&gt;boost -->
<g id="edge8" class="edge">
<title>azmq&#45;&gt;boost</title>
<path fill="none" stroke="#64748b" d="M665.75,-215.7C666.41,-207.98 667.2,-198.71 667.94,-190.11"/>
<polygon fill="#64748b" stroke="#64748b" points="671.43,-190.37 668.8,-180.1 664.46,-189.77 671.43,-190.37"/>
</g>
<!-- libsodium -->
<g id="node32" class="node">
<title>libsodium</title>
<ellipse fill="none" stroke="#64748b" cx="589.26" cy="-90" rx="38.03" ry="18"/>
<text text-anchor="middle" x="589.26" y="-87.5" font-family="Times-Roman" font-size="10.00" fill="#64748b">libsodium</text>
</g>
<!-- libzmq&#45;&gt;libsodium -->
<g id="edge32" class="edge">
<title>libzmq&#45;&gt;libsodium</title>
<path fill="none" stroke="#64748b" d="M591.52,-143.7C591.19,-135.98 590.79,-126.71 590.43,-118.11"/>
<polygon fill="#64748b" stroke="#64748b" points="593.92,-117.95 590,-108.1 586.93,-118.25 593.92,-117.95"/>
</g>
<!-- bzip2 -->
<g id="node14" class="node">
<title>bzip2</title>
<ellipse fill="none" stroke="#64748b" cx="672.26" cy="-90" rx="27" ry="18"/>
<text text-anchor="middle" x="672.26" y="-87.5" font-family="Times-Roman" font-size="10.00" fill="#64748b">bzip2</text>
</g>
<!-- boost&#45;&gt;bzip2 -->
<g id="edge9" class="edge">
<title>boost&#45;&gt;bzip2</title>
<path fill="none" stroke="#64748b" d="M670.76,-143.7C670.98,-135.98 671.24,-126.71 671.49,-118.11"/>
<polygon fill="#64748b" stroke="#64748b" points="674.99,-118.2 671.77,-108.1 667.99,-118 674.99,-118.2"/>
</g>
<!-- zlib -->
<g id="node15" class="node">
<title>zlib</title>
<ellipse fill="none" stroke="#64748b" cx="744.26" cy="-90" rx="27" ry="18"/>
<text text-anchor="middle" x="744.26" y="-87.5" font-family="Times-Roman" font-size="10.00" fill="#64748b">zlib</text>
</g>
<!-- boost&#45;&gt;zlib -->
<g id="edge10" class="edge">
<title>boost&#45;&gt;zlib</title>
<path fill="none" stroke="#64748b" d="M685.24,-146.83C695.77,-136.87 710.04,-123.37 721.92,-112.14"/>
<polygon fill="#64748b" stroke="#64748b" points="724.45,-114.56 729.31,-105.14 719.64,-109.47 724.45,-114.56"/>
</g>
<!-- ceres&#45;solver -->
<g id="node16" class="node">
<title>ceres&#45;solver</title>
<ellipse fill="none" stroke="#64748b" cx="1243.26" cy="-234" rx="45.15" ry="18"/>
<text text-anchor="middle" x="1243.26" y="-231.5" font-family="Times-Roman" font-size="10.00" fill="#64748b">ceres&#45;solver</text>
</g>
<!-- eigen -->
<g id="node17" class="node">
<title>eigen</title>
<ellipse fill="none" stroke="#64748b" cx="1243.26" cy="-162" rx="27" ry="18"/>
<text text-anchor="middle" x="1243.26" y="-159.5" font-family="Times-Roman" font-size="10.00" fill="#64748b">eigen</text>
</g>
<!-- ceres&#45;solver&#45;&gt;eigen -->
<g id="edge11" class="edge">
<title>ceres&#45;solver&#45;&gt;eigen</title>
<path fill="none" stroke="#64748b" d="M1243.26,-215.7C1243.26,-207.98 1243.26,-198.71 1243.26,-190.11"/>
<polygon fill="#64748b" stroke="#64748b" points="1246.76,-190.1 1243.26,-180.1 1239.76,-190.1 1246.76,-190.1"/>
</g>
<!-- cppzmq -->
<g id="node18" class="node">
<title>cppzmq</title>
<ellipse fill="none" stroke="#64748b" cx="587.26" cy="-234" rx="32.25" ry="18"/>
<text text-anchor="middle" x="587.26" y="-231.5" font-family="Times-Roman" font-size="10.00" fill="#64748b">cppzmq</text>
</g>
<!-- cppzmq&#45;&gt;libzmq -->
<g id="edge12" class="edge">
<title>cppzmq&#45;&gt;libzmq</title>
<path fill="none" stroke="#64748b" d="M588.5,-215.7C589.05,-207.98 589.71,-198.71 590.33,-190.11"/>
<polygon fill="#64748b" stroke="#64748b" points="593.82,-190.33 591.04,-180.1 586.84,-189.83 593.82,-190.33"/>
</g>
<!-- curl -->
<g id="node19" class="node">
<title>curl</title>
<ellipse fill="none" stroke="#64748b" cx="430.26" cy="-234" rx="27" ry="18"/>
<text text-anchor="middle" x="430.26" y="-231.5" font-family="Times-Roman" font-size="10.00" fill="#64748b">curl</text>
</g>
<!-- c&#45;ares -->
<g id="node20" class="node">
<title>c&#45;ares</title>
<ellipse fill="none" stroke="#64748b" cx="517.26" cy="-162" rx="27.84" ry="18"/>
<text text-anchor="middle" x="517.26" y="-159.5" font-family="Times-Roman" font-size="10.00" fill="#64748b">c&#45;ares</text>
</g>
<!-- curl&#45;&gt;c&#45;ares -->
<g id="edge13" class="edge">
<title>curl&#45;&gt;c&#45;ares</title>
<path fill="none" stroke="#64748b" d="M447.04,-219.5C459.92,-209.14 477.9,-194.67 492.44,-182.97"/>
<polygon fill="#64748b" stroke="#64748b" points="494.94,-185.45 500.54,-176.46 490.55,-180 494.94,-185.45"/>
</g>
<!-- libssh2 -->
<g id="node21" class="node">
<title>libssh2</title>
<ellipse fill="none" stroke="#64748b" cx="350.26" cy="-162" rx="30.04" ry="18"/>
<text text-anchor="middle" x="350.26" y="-159.5" font-family="Times-Roman" font-size="10.00" fill="#64748b">libssh2</text>
</g>
<!-- curl&#45;&gt;libssh2 -->
<g id="edge14" class="edge">
<title>curl&#45;&gt;libssh2</title>
<path fill="none" stroke="#64748b" d="M414.46,-219.17C402.99,-209.14 387.28,-195.39 374.27,-184.01"/>
<polygon fill="#64748b" stroke="#64748b" points="376.42,-181.23 366.58,-177.28 371.81,-186.5 376.42,-181.23"/>
</g>
<!-- libssh2&#45;&gt;openssl -->
<g id="edge28" class="edge">
<title>libssh2&#45;&gt;openssl</title>
<path fill="none" stroke="#64748b" d="M343.15,-144.41C339.69,-136.34 335.45,-126.43 331.56,-117.35"/>
<polygon fill="#64748b" stroke="#64748b" points="334.69,-115.77 327.53,-107.96 328.25,-118.53 334.69,-115.77"/>
</g>
<!-- libssh2&#45;&gt;zlib -->
<g id="edge29" class="edge">
<title>libssh2&#45;&gt;zlib</title>
<path fill="none" stroke="#64748b" d="M373.13,-149.95C378.63,-147.66 384.57,-145.5 390.26,-144 527.82,-107.81 571.45,-146.89 708.26,-108 710.21,-107.45 712.18,-106.8 714.14,-106.08"/>
<polygon fill="#64748b" stroke="#64748b" points="715.88,-109.15 723.77,-102.09 713.2,-102.69 715.88,-109.15"/>
</g>
<!-- fecpp -->
<g id="node22" class="node">
<title>fecpp</title>
<ellipse fill="none" stroke="#64748b" cx="736.26" cy="-234" rx="27" ry="18"/>
<text text-anchor="middle" x="736.26" y="-231.5" font-family="Times-Roman" font-size="10.00" fill="#64748b">fecpp</text>
</g>
<!-- fecpp&#45;&gt;boost -->
<g id="edge15" class="edge">
<title>fecpp&#45;&gt;boost</title>
<path fill="none" stroke="#64748b" stroke-dasharray="5,2" d="M722.27,-218.15C713.25,-208.6 701.37,-195.99 691.24,-185.25"/>
<polygon fill="#64748b" stroke="#64748b" points="693.65,-182.7 684.24,-177.82 688.55,-187.5 693.65,-182.7"/>
</g>
<!-- glew -->
<g id="node23" class="node">
<title>glew</title>
<ellipse fill="none" stroke="#64748b" cx="1333.26" cy="-234" rx="27" ry="18"/>
<text text-anchor="middle" x="1333.26" y="-231.5" font-family="Times-Roman" font-size="10.00" fill="#64748b">glew</text>
</g>
<!-- OpenGL -->
<g id="node24" class="node">
<title>OpenGL</title>
<ellipse fill="none" stroke="#64748b" cx="1333.26" cy="-162" rx="32.25" ry="18"/>
<text text-anchor="middle" x="1333.26" y="-159.5" font-family="Times-Roman" font-size="10.00" fill="#64748b">OpenGL</text>
</g>
<!-- glew&#45;&gt;OpenGL -->
<g id="edge16" class="edge">
<title>glew&#45;&gt;OpenGL</title>
<path fill="none" stroke="#64748b" d="M1333.26,-215.7C1333.26,-207.98 1333.26,-198.71 1333.26,-190.11"/>
<polygon fill="#64748b" stroke="#64748b" points="1336.76,-190.1 1333.26,-180.1 1329.76,-190.1 1336.76,-190.1"/>
</g>
<!-- googletest -->
<g id="node25" class="node">
<title>googletest</title>
<ellipse fill="none" stroke="#64748b" cx="493.26" cy="-90" rx="40.06" ry="18"/>
<text text-anchor="middle" x="493.26" y="-87.5" font-family="Times-Roman" font-size="10.00" fill="#64748b">googletest</text>
</g>
<!-- googletest&#45;&gt;Threads -->
<g id="edge17" class="edge">
<title>googletest&#45;&gt;Threads</title>
<path fill="none" stroke="#64748b" d="M513.62,-74.15C527.74,-63.86 546.7,-50.04 562.1,-38.81"/>
<polygon fill="#64748b" stroke="#64748b" points="564.22,-41.59 570.24,-32.87 560.1,-35.94 564.22,-41.59"/>
</g>
<!-- hdf5 -->
<g id="node26" class="node">
<title>hdf5</title>
<ellipse fill="none" stroke="#64748b" cx="828.26" cy="-162" rx="27" ry="18"/>
<text text-anchor="middle" x="828.26" y="-159.5" font-family="Times-Roman" font-size="10.00" fill="#64748b">hdf5</text>
</g>
<!-- hdf5&#45;&gt;Threads -->
<g id="edge18" class="edge">
<title>hdf5&#45;&gt;Threads</title>
<path fill="none" stroke="#64748b" d="M823.55,-143.92C817.1,-123.75 803.59,-90.61 780.26,-72 737.49,-37.87 674.15,-25.69 632.31,-21.36"/>
<polygon fill="#64748b" stroke="#64748b" points="632.44,-17.86 622.16,-20.42 631.79,-24.83 632.44,-17.86"/>
</g>
<!-- hdf5&#45;&gt;zlib -->
<g id="edge19" class="edge">
<title>hdf5&#45;&gt;zlib</title>
<path fill="none" stroke="#64748b" d="M812.07,-147.5C799.63,-137.14 782.27,-122.67 768.23,-110.97"/>
<polygon fill="#64748b" stroke="#64748b" points="770.33,-108.17 760.41,-104.46 765.85,-113.55 770.33,-108.17"/>
</g>
<!-- libgeotiff -->
<g id="node27" class="node">
<title>libgeotiff</title>
<ellipse fill="none" stroke="#64748b" cx="1413.26" cy="-234" rx="35.14" ry="18"/>
<text text-anchor="middle" x="1413.26" y="-231.5" font-family="Times-Roman" font-size="10.00" fill="#64748b">libgeotiff</text>
</g>
<!-- wxwidgets -->
<g id="node28" class="node">
<title>wxwidgets</title>
<ellipse fill="none" stroke="#64748b" cx="1500.26" cy="-162" rx="40.74" ry="18"/>
<text text-anchor="middle" x="1500.26" y="-159.5" font-family="Times-Roman" font-size="10.00" fill="#64748b">wxwidgets</text>
</g>
<!-- libgeotiff&#45;&gt;wxwidgets -->
<g id="edge20" class="edge">
<title>libgeotiff&#45;&gt;wxwidgets</title>
<path fill="none" stroke="#64748b" d="M1431.29,-218.5C1443.41,-208.75 1459.6,-195.72 1473.25,-184.74"/>
<polygon fill="#64748b" stroke="#64748b" points="1475.76,-187.21 1481.36,-178.21 1471.37,-181.75 1475.76,-187.21"/>
</g>
<!-- libgit2 -->
<g id="node29" class="node">
<title>libgit2</title>
<ellipse fill="none" stroke="#64748b" cx="350.26" cy="-234" rx="27.84" ry="18"/>
<text text-anchor="middle" x="350.26" y="-231.5" font-family="Times-Roman" font-size="10.00" fill="#64748b">libgit2</text>
</g>
<!-- libgit2&#45;&gt;libssh2 -->
<g id="edge21" class="edge">
<title>libgit2&#45;&gt;libssh2</title>
<path fill="none" stroke="#64748b" d="M350.26,-215.7C350.26,-207.98 350.26,-198.71 350.26,-190.11"/>
<polygon fill="#64748b" stroke="#64748b" points="353.76,-190.1 350.26,-180.1 346.76,-190.1 353.76,-190.1"/>
</g>
<!-- librttopo -->
<g id="node30" class="node">
<title>librttopo</title>
<ellipse fill="none" stroke="#64748b" cx="913.26" cy="-162" rx="34.29" ry="18"/>
<text text-anchor="middle" x="913.26" y="-159.5" font-family="Times-Roman" font-size="10.00" fill="#64748b">librttopo</text>
</g>
<!-- geos -->
<g id="node31" class="node">
<title>geos</title>
<ellipse fill="none" stroke="#64748b" cx="930.26" cy="-90" rx="27" ry="18"/>
<text text-anchor="middle" x="930.26" y="-87.5" font-family="Times-Roman" font-size="10.00" fill="#64748b">geos</text>
</g>
<!-- librttopo&#45;&gt;geos -->
<g id="edge22" class="edge">
<title>librttopo&#45;&gt;geos</title>
<path fill="none" stroke="#64748b" d="M917.38,-144.05C919.27,-136.26 921.56,-126.82 923.69,-118.08"/>
<polygon fill="#64748b" stroke="#64748b" points="927.11,-118.82 926.07,-108.28 920.31,-117.17 927.11,-118.82"/>
</g>
<!-- libsodium&#45;&gt;Threads -->
<g id="edge23" class="edge">
<title>libsodium&#45;&gt;Threads</title>
<path fill="none" stroke="#64748b" d="M589.26,-71.7C589.26,-63.98 589.26,-54.71 589.26,-46.11"/>
<polygon fill="#64748b" stroke="#64748b" points="592.76,-46.1 589.26,-36.1 585.76,-46.1 592.76,-46.1"/>
</g>
<!-- libspatialite -->
<g id="node33" class="node">
<title>libspatialite</title>
<ellipse fill="none" stroke="#64748b" cx="1009.26" cy="-162" rx="43.62" ry="18"/>
<text text-anchor="middle" x="1009.26" y="-159.5" font-family="Times-Roman" font-size="10.00" fill="#64748b">libspatialite</text>
</g>
<!-- libspatialite&#45;&gt;zlib -->
<g id="edge27" class="edge">
<title>libspatialite&#45;&gt;zlib</title>
<path fill="none" stroke="#64748b" d="M976.29,-150.05C969.68,-147.97 962.77,-145.85 956.26,-144 894.41,-126.37 821.51,-108.85 779.32,-99.02"/>
<polygon fill="#64748b" stroke="#64748b" points="780.07,-95.6 769.53,-96.75 778.48,-102.42 780.07,-95.6"/>
</g>
<!-- libspatialite&#45;&gt;geos -->
<g id="edge25" class="edge">
<title>libspatialite&#45;&gt;geos</title>
<path fill="none" stroke="#64748b" d="M991.73,-145.46C980.47,-135.49 965.72,-122.41 953.48,-111.58"/>
<polygon fill="#64748b" stroke="#64748b" points="955.68,-108.84 945.87,-104.83 951.04,-114.08 955.68,-108.84"/>
</g>
<!-- SQLite3 -->
<g id="node34" class="node">
<title>SQLite3</title>
<ellipse fill="none" stroke="#64748b" cx="1007.26" cy="-90" rx="31.58" ry="18"/>
<text text-anchor="middle" x="1007.26" y="-87.5" font-family="Times-Roman" font-size="10.00" fill="#64748b">SQLite3</text>
</g>
<!-- libspatialite&#45;&gt;SQLite3 -->
<g id="edge24" class="edge">
<title>libspatialite&#45;&gt;SQLite3</title>
<path fill="none" stroke="#64748b" d="M1008.77,-143.7C1008.55,-135.98 1008.28,-126.71 1008.04,-118.11"/>
<polygon fill="#64748b" stroke="#64748b" points="1011.54,-118 1007.75,-108.1 1004.54,-118.2 1011.54,-118"/>
</g>
<!-- libiconv -->
<g id="node35" class="node">
<title>libiconv</title>
<ellipse fill="none" stroke="#64748b" cx="1089.26" cy="-90" rx="32.25" ry="18"/>
<text text-anchor="middle" x="1089.26" y="-87.5" font-family="Times-Roman" font-size="10.00" fill="#64748b">libiconv</text>
</g>
<!-- libspatialite&#45;&gt;libiconv -->
<g id="edge26" class="edge">
<title>libspatialite&#45;&gt;libiconv</title>
<path fill="none" stroke="#64748b" d="M1027.02,-145.46C1038.19,-135.68 1052.77,-122.93 1065.01,-112.22"/>
<polygon fill="#64748b" stroke="#64748b" points="1067.43,-114.76 1072.65,-105.54 1062.82,-109.49 1067.43,-114.76"/>
</g>
<!-- libstrophe -->
<g id="node36" class="node">
<title>libstrophe</title>
<ellipse fill="none" stroke="#64748b" cx="264.26" cy="-162" rx="38.03" ry="18"/>
<text text-anchor="middle" x="264.26" y="-159.5" font-family="Times-Roman" font-size="10.00" fill="#64748b">libstrophe</text>
</g>
<!-- libstrophe&#45;&gt;openssl -->
<g id="edge31" class="edge">
<title>libstrophe&#45;&gt;openssl</title>
<path fill="none" stroke="#64748b" d="M277.25,-144.76C284.42,-135.8 293.45,-124.51 301.39,-114.59"/>
<polygon fill="#64748b" stroke="#64748b" points="304.22,-116.66 307.73,-106.67 298.75,-112.29 304.22,-116.66"/>
</g>
<!-- libexpat -->
<g id="node37" class="node">
<title>libexpat</title>
<ellipse fill="none" stroke="#64748b" cx="237.26" cy="-90" rx="32.93" ry="18"/>
<text text-anchor="middle" x="237.26" y="-87.5" font-family="Times-Roman" font-size="10.00" fill="#64748b">libexpat</text>
</g>
<!-- libstrophe&#45;&gt;libexpat -->
<g id="edge30" class="edge">
<title>libstrophe&#45;&gt;libexpat</title>
<path fill="none" stroke="#64748b" d="M257.73,-144.05C254.64,-136.06 250.89,-126.33 247.45,-117.4"/>
<polygon fill="#64748b" stroke="#64748b" points="250.6,-115.86 243.74,-107.79 244.07,-118.38 250.6,-115.86"/>
</g>
<!-- node&#45;addon&#45;api -->
<g id="node38" class="node">
<title>node&#45;addon&#45;api</title>
<ellipse fill="none" stroke="#64748b" cx="1679.26" cy="-234" rx="54.99" ry="18"/>
<text text-anchor="middle" x="1679.26" y="-231.5" font-family="Times-Roman" font-size="10.00" fill="#64748b">node&#45;addon&#45;api</text>
</g>
<!-- nodexp -->
<g id="node39" class="node">
<title>nodexp</title>
<ellipse fill="none" stroke="#64748b" cx="1679.26" cy="-162" rx="31.4" ry="18"/>
<text text-anchor="middle" x="1679.26" y="-159.5" font-family="Times-Roman" font-size="10.00" fill="#64748b">nodexp</text>
</g>
<!-- node&#45;addon&#45;api&#45;&gt;nodexp -->
<g id="edge33" class="edge">
<title>node&#45;addon&#45;api&#45;&gt;nodexp</title>
<path fill="none" stroke="#64748b" d="M1679.26,-215.7C1679.26,-207.98 1679.26,-198.71 1679.26,-190.11"/>
<polygon fill="#64748b" stroke="#64748b" points="1682.76,-190.1 1679.26,-180.1 1675.76,-190.1 1682.76,-190.1"/>
</g>
<!-- protobuf -->
<g id="node41" class="node">
<title>protobuf</title>
<ellipse fill="none" stroke="#64748b" cx="749.26" cy="-162" rx="34.29" ry="18"/>
<text text-anchor="middle" x="749.26" y="-159.5" font-family="Times-Roman" font-size="10.00" fill="#64748b">protobuf</text>
</g>
<!-- protobuf&#45;&gt;zlib -->
<g id="edge37" class="edge">
<title>protobuf&#45;&gt;zlib</title>
<path fill="none" stroke="#64748b" d="M748.03,-143.7C747.48,-135.98 746.81,-126.71 746.2,-118.11"/>
<polygon fill="#64748b" stroke="#64748b" points="749.69,-117.83 745.48,-108.1 742.71,-118.33 749.69,-117.83"/>
</g>
<!-- rapidjson -->
<g id="node42" class="node">
<title>rapidjson</title>
<ellipse fill="none" stroke="#64748b" cx="435.26" cy="-162" rx="36.49" ry="18"/>
<text text-anchor="middle" x="435.26" y="-159.5" font-family="Times-Roman" font-size="10.00" fill="#64748b">rapidjson</text>
</g>
<!-- rapidjson&#45;&gt;googletest -->
<g id="edge38" class="edge">
<title>rapidjson&#45;&gt;googletest</title>
<path fill="none" stroke="#64748b" stroke-dasharray="5,2" d="M448.42,-145.12C455.74,-136.29 464.98,-125.13 473.18,-115.24"/>
<polygon fill="#64748b" stroke="#64748b" points="476.07,-117.24 479.75,-107.31 470.68,-112.77 476.07,-117.24"/>
</g>
<!-- spatialite&#45;tools -->
<g id="node43" class="node">
<title>spatialite&#45;tools</title>
<ellipse fill="none" stroke="#64748b" cx="1020.26" cy="-234" rx="52.96" ry="18"/>
<text text-anchor="middle" x="1020.26" y="-231.5" font-family="Times-Roman" font-size="10.00" fill="#64748b">spatialite&#45;tools</text>
</g>
<!-- spatialite&#45;tools&#45;&gt;libspatialite -->
<g id="edge39" class="edge">
<title>spatialite&#45;tools&#45;&gt;libspatialite</title>
<path fill="none" stroke="#64748b" stroke-dasharray="5,2" d="M1017.54,-215.7C1016.33,-207.98 1014.88,-198.71 1013.52,-190.11"/>
<polygon fill="#64748b" stroke="#64748b" points="1016.96,-189.44 1011.95,-180.1 1010.05,-190.53 1016.96,-189.44"/>
</g>
<!-- spatialite&#45;tools&#45;&gt;libiconv -->
<g id="edge40" class="edge">
<title>spatialite&#45;tools&#45;&gt;libiconv</title>
<path fill="none" stroke="#64748b" stroke-dasharray="5,2" d="M1036.04,-216.48C1044.79,-206.56 1055.29,-193.31 1062.26,-180 1072.53,-160.39 1079.54,-136.26 1083.84,-118.07"/>
<polygon fill="#64748b" stroke="#64748b" points="1087.3,-118.65 1086.07,-108.13 1080.47,-117.13 1087.3,-118.65"/>
</g>
<!-- spdlog -->
<g id="node44" class="node">
<title>spdlog</title>
<ellipse fill="none" stroke="#64748b" cx="856.26" cy="-90" rx="28.69" ry="18"/>
<text text-anchor="middle" x="856.26" y="-87.5" font-family="Times-Roman" font-size="10.00" fill="#64748b">spdlog</text>
</g>
<!-- spdlog&#45;&gt;Threads -->
<g id="edge41" class="edge">
<title>spdlog&#45;&gt;Threads</title>
<path fill="none" stroke="#64748b" d="M832.83,-79.03C826.54,-76.55 819.7,-74.02 813.26,-72 750.3,-52.22 675.36,-35.9 630.09,-26.82"/>
<polygon fill="#64748b" stroke="#64748b" points="630.57,-23.34 620.08,-24.82 629.2,-30.21 630.57,-23.34"/>
</g>
<!-- fmt -->
<g id="node45" class="node">
<title>fmt</title>
<ellipse fill="none" stroke="#64748b" cx="856.26" cy="-18" rx="27" ry="18"/>
<text text-anchor="middle" x="856.26" y="-15.5" font-family="Times-Roman" font-size="10.00" fill="#64748b">fmt</text>
</g>
<!-- spdlog&#45;&gt;fmt -->
<g id="edge42" class="edge">
<title>spdlog&#45;&gt;fmt</title>
<path fill="none" stroke="#64748b" d="M856.26,-71.7C856.26,-63.98 856.26,-54.71 856.26,-46.11"/>
<polygon fill="#64748b" stroke="#64748b" points="859.76,-46.1 856.26,-36.1 852.76,-46.1 859.76,-46.1"/>
</g>
<!-- wxInclude -->
<g id="node46" class="node">
<title>wxInclude</title>
<ellipse fill="none" stroke="#64748b" cx="820.26" cy="-234" rx="38.7" ry="18"/>
<text text-anchor="middle" x="820.26" y="-231.5" font-family="Times-Roman" font-size="10.00" fill="#64748b">wxInclude</text>
</g>
<!-- wxInclude&#45;&gt;boost -->
<g id="edge43" class="edge">
<title>wxInclude&#45;&gt;boost</title>
<path fill="none" stroke="#64748b" stroke-dasharray="5,2" d="M793.52,-220.62C770.41,-209.91 736.11,-193.98 706.26,-180 704.48,-179.16 702.65,-178.3 700.8,-177.43"/>
<polygon fill="#64748b" stroke="#64748b" points="702.11,-174.18 691.57,-173.09 699.13,-180.52 702.11,-174.18"/>
</g>
<!-- wxTetris -->
<g id="node47" class="node">
<title>wxTetris</title>
<ellipse fill="none" stroke="#64748b" cx="1500.26" cy="-234" rx="33.61" ry="18"/>
<text text-anchor="middle" x="1500.26" y="-231.5" font-family="Times-Roman" font-size="10.00" fill="#64748b">wxTetris</text>
</g>
<!-- wxTetris&#45;&gt;wxwidgets -->
<g id="edge44" class="edge">
<title>wxTetris&#45;&gt;wxwidgets</title>
<path fill="none" stroke="#64748b" stroke-dasharray="5,2" d="M1500.26,-215.7C1500.26,-207.98 1500.26,-198.71 1500.26,-190.11"/>
<polygon fill="#64748b" stroke="#64748b" points="1503.76,-190.1 1500.26,-180.1 1496.76,-190.1 1503.76,-190.1"/>
</g>
<!-- wxx -->
<g id="node48" class="node">
<title>wxx</title>
<ellipse fill="none" stroke="#64748b" cx="1579.26" cy="-234" rx="27" ry="18"/>
<text text-anchor="middle" x="1579.26" y="-231.5" font-family="Times-Roman" font-size="10.00" fill="#64748b">wxx</text>
</g>
<!-- wxx&#45;&gt;wxwidgets -->
<g id="edge45" class="edge">
<title>wxx&#45;&gt;wxwidgets</title>
<path fill="none" stroke="#64748b" d="M1563.66,-219.17C1552.71,-209.47 1537.84,-196.29 1525.25,-185.14"/>
<polygon fill="#64748b" stroke="#64748b" points="1527.57,-182.52 1517.76,-178.51 1522.93,-187.76 1527.57,-182.52"/>
</g>
<!-- zmqpp -->
<g id="node49" class="node">
<title>zmqpp</title>
<ellipse fill="none" stroke="#64748b" cx="507.26" cy="-234" rx="29.37" ry="18"/>
<text text-anchor="middle" x="507.26" y="-231.5" font-family="Times-Roman" font-size="10.00" fill="#64748b">zmqpp</text>
</g>
<!-- zmqpp&#45;&gt;libzmq -->
<g id="edge46" class="edge">
<title>zmqpp&#45;&gt;libzmq</title>
<path fill="none" stroke="#64748b" d="M524.06,-219.17C536.51,-208.91 553.69,-194.77 567.69,-183.24"/>
<polygon fill="#64748b" stroke="#64748b" points="570.01,-185.86 575.5,-176.8 565.56,-180.46 570.01,-185.86"/>
</g>
</g>
</svg>
