<?xml version="1.0" encoding="UTF-8" standalone="no"?>
<!DOCTYPE svg PUBLIC "-//W3C//DTD SVG 1.1//EN"
 "http://www.w3.org/Graphics/SVG/1.1/DTD/svg11.dtd">
<!-- Generated by graphviz version 2.44.0 (0)
 -->
<!-- Title: GG Pages: 1 -->
<svg width="1657pt" height="260pt"
 viewBox="0.00 0.00 1656.70 260.00" xmlns="http://www.w3.org/2000/svg" xmlns:xlink="http://www.w3.org/1999/xlink">
<g id="graph0" class="graph" transform="scale(1 1) rotate(0) translate(4 256)">
<title>GG</title>
<!-- activemq&#45;cpp -->
<g id="node1" class="node">
<title>activemq&#45;cpp</title>
<ellipse fill="none" stroke="#64748b" cx="48.86" cy="-162" rx="48.72" ry="18"/>
<text text-anchor="middle" x="48.86" y="-159.5" font-family="Times-Roman" font-size="10.00" fill="#64748b">activemq&#45;cpp</text>
</g>
<!-- apr -->
<g id="node2" class="node">
<title>apr</title>
<ellipse fill="none" stroke="#64748b" cx="40.86" cy="-90" rx="27" ry="18"/>
<text text-anchor="middle" x="40.86" y="-87.5" font-family="Times-Roman" font-size="10.00" fill="#64748b">apr</text>
</g>
<!-- activemq&#45;cpp&#45;&gt;apr -->
<g id="edge1" class="edge">
<title>activemq&#45;cpp&#45;&gt;apr</title>
<path fill="none" stroke="#64748b" d="M46.88,-143.7C46,-135.98 44.94,-126.71 43.96,-118.11"/>
<polygon fill="#64748b" stroke="#64748b" points="47.43,-117.64 42.81,-108.1 40.47,-118.44 47.43,-117.64"/>
</g>
<!-- openssl -->
<g id="node3" class="node">
<title>openssl</title>
<ellipse fill="none" stroke="#64748b" cx="201.86" cy="-90" rx="31.58" ry="18"/>
<text text-anchor="middle" x="201.86" y="-87.5" font-family="Times-Roman" font-size="10.00" fill="#64748b">openssl</text>
</g>
<!-- activemq&#45;cpp&#45;&gt;openssl -->
<g id="edge2" class="edge">
<title>activemq&#45;cpp&#45;&gt;openssl</title>
<path fill="none" stroke="#64748b" d="M78.36,-147.5C104.19,-135.69 141.69,-118.53 168.59,-106.22"/>
<polygon fill="#64748b" stroke="#64748b" points="170.34,-109.27 177.97,-101.93 167.42,-102.91 170.34,-109.27"/>
</g>
<!-- yasm -->
<g id="node18" class="node">
<title>yasm</title>
<ellipse fill="none" stroke="#64748b" cx="267.86" cy="-18" rx="27" ry="18"/>
<text text-anchor="middle" x="267.86" y="-15.5" font-family="Times-Roman" font-size="10.00" fill="#64748b">yasm</text>
</g>
<!-- openssl&#45;&gt;yasm -->
<g id="edge31" class="edge">
<title>openssl&#45;&gt;yasm</title>
<path fill="none" stroke="#64748b" stroke-dasharray="5,2" d="M216.18,-73.81C225.21,-64.23 237.02,-51.7 247.07,-41.04"/>
<polygon fill="#64748b" stroke="#64748b" points="249.7,-43.36 254.02,-33.68 244.61,-38.55 249.7,-43.36"/>
</g>
<!-- nasm -->
<g id="node35" class="node">
<title>nasm</title>
<ellipse fill="none" stroke="#64748b" cx="195.86" cy="-18" rx="27" ry="18"/>
<text text-anchor="middle" x="195.86" y="-15.5" font-family="Times-Roman" font-size="10.00" fill="#64748b">nasm</text>
</g>
<!-- openssl&#45;&gt;nasm -->
<g id="edge30" class="edge">
<title>openssl&#45;&gt;nasm</title>
<path fill="none" stroke="#64748b" stroke-dasharray="5,2" d="M200.38,-71.7C199.71,-63.98 198.92,-54.71 198.18,-46.11"/>
<polygon fill="#64748b" stroke="#64748b" points="201.67,-45.77 197.33,-36.1 194.69,-46.37 201.67,-45.77"/>
</g>
<!-- azmq -->
<g id="node4" class="node">
<title>azmq</title>
<ellipse fill="none" stroke="#64748b" cx="691.86" cy="-234" rx="27" ry="18"/>
<text text-anchor="middle" x="691.86" y="-231.5" font-family="Times-Roman" font-size="10.00" fill="#64748b">azmq</text>
</g>
<!-- boost -->
<g id="node5" class="node">
<title>boost</title>
<ellipse fill="none" stroke="#64748b" cx="646.86" cy="-162" rx="27" ry="18"/>
<text text-anchor="middle" x="646.86" y="-159.5" font-family="Times-Roman" font-size="10.00" fill="#64748b">boost</text>
</g>
<!-- azmq&#45;&gt;boost -->
<g id="edge3" class="edge">
<title>azmq&#45;&gt;boost</title>
<path fill="none" stroke="#64748b" d="M681.65,-217.12C676.01,-208.34 668.89,-197.26 662.56,-187.42"/>
<polygon fill="#64748b" stroke="#64748b" points="665.38,-185.34 657.03,-178.82 659.49,-189.13 665.38,-185.34"/>
</g>
<!-- libzmq -->
<g id="node6" class="node">
<title>libzmq</title>
<ellipse fill="none" stroke="#64748b" cx="768.86" cy="-162" rx="29.37" ry="18"/>
<text text-anchor="middle" x="768.86" y="-159.5" font-family="Times-Roman" font-size="10.00" fill="#64748b">libzmq</text>
</g>
<!-- azmq&#45;&gt;libzmq -->
<g id="edge4" class="edge">
<title>azmq&#45;&gt;libzmq</title>
<path fill="none" stroke="#64748b" d="M707.44,-218.83C718.33,-208.94 733.06,-195.55 745.36,-184.36"/>
<polygon fill="#64748b" stroke="#64748b" points="747.99,-186.7 753.04,-177.38 743.28,-181.52 747.99,-186.7"/>
</g>
<!-- bzip2 -->
<g id="node7" class="node">
<title>bzip2</title>
<ellipse fill="none" stroke="#64748b" cx="646.86" cy="-90" rx="27" ry="18"/>
<text text-anchor="middle" x="646.86" y="-87.5" font-family="Times-Roman" font-size="10.00" fill="#64748b">bzip2</text>
</g>
<!-- boost&#45;&gt;bzip2 -->
<g id="edge5" class="edge">
<title>boost&#45;&gt;bzip2</title>
<path fill="none" stroke="#64748b" d="M646.86,-143.7C646.86,-135.98 646.86,-126.71 646.86,-118.11"/>
<polygon fill="#64748b" stroke="#64748b" points="650.36,-118.1 646.86,-108.1 643.36,-118.1 650.36,-118.1"/>
</g>
<!-- zlib -->
<g id="node8" class="node">
<title>zlib</title>
<ellipse fill="none" stroke="#64748b" cx="500.86" cy="-90" rx="27" ry="18"/>
<text text-anchor="middle" x="500.86" y="-87.5" font-family="Times-Roman" font-size="10.00" fill="#64748b">zlib</text>
</g>
<!-- boost&#45;&gt;zlib -->
<g id="edge6" class="edge">
<title>boost&#45;&gt;zlib</title>
<path fill="none" stroke="#64748b" d="M625.63,-150.82C600.76,-138.9 559.38,-119.06 531.14,-105.52"/>
<polygon fill="#64748b" stroke="#64748b" points="532.64,-102.36 522.11,-101.19 529.62,-108.67 532.64,-102.36"/>
</g>
<!-- libsodium -->
<g id="node30" class="node">
<title>libsodium</title>
<ellipse fill="none" stroke="#64748b" cx="768.86" cy="-90" rx="38.03" ry="18"/>
<text text-anchor="middle" x="768.86" y="-87.5" font-family="Times-Roman" font-size="10.00" fill="#64748b">libsodium</text>
</g>
<!-- libzmq&#45;&gt;libsodium -->
<g id="edge26" class="edge">
<title>libzmq&#45;&gt;libsodium</title>
<path fill="none" stroke="#64748b" d="M768.86,-143.7C768.86,-135.98 768.86,-126.71 768.86,-118.11"/>
<polygon fill="#64748b" stroke="#64748b" points="772.36,-118.1 768.86,-108.1 765.36,-118.1 772.36,-118.1"/>
</g>
<!-- ceres&#45;solver -->
<g id="node9" class="node">
<title>ceres&#45;solver</title>
<ellipse fill="none" stroke="#64748b" cx="1064.86" cy="-234" rx="45.15" ry="18"/>
<text text-anchor="middle" x="1064.86" y="-231.5" font-family="Times-Roman" font-size="10.00" fill="#64748b">ceres&#45;solver</text>
</g>
<!-- eigen -->
<g id="node10" class="node">
<title>eigen</title>
<ellipse fill="none" stroke="#64748b" cx="1064.86" cy="-162" rx="27" ry="18"/>
<text text-anchor="middle" x="1064.86" y="-159.5" font-family="Times-Roman" font-size="10.00" fill="#64748b">eigen</text>
</g>
<!-- ceres&#45;solver&#45;&gt;eigen -->
<g id="edge7" class="edge">
<title>ceres&#45;solver&#45;&gt;eigen</title>
<path fill="none" stroke="#64748b" d="M1064.86,-215.7C1064.86,-207.98 1064.86,-198.71 1064.86,-190.11"/>
<polygon fill="#64748b" stroke="#64748b" points="1068.36,-190.1 1064.86,-180.1 1061.36,-190.1 1068.36,-190.1"/>
</g>
<!-- cppzmq -->
<g id="node11" class="node">
<title>cppzmq</title>
<ellipse fill="none" stroke="#64748b" cx="768.86" cy="-234" rx="32.25" ry="18"/>
<text text-anchor="middle" x="768.86" y="-231.5" font-family="Times-Roman" font-size="10.00" fill="#64748b">cppzmq</text>
</g>
<!-- cppzmq&#45;&gt;libzmq -->
<g id="edge8" class="edge">
<title>cppzmq&#45;&gt;libzmq</title>
<path fill="none" stroke="#64748b" d="M768.86,-215.7C768.86,-207.98 768.86,-198.71 768.86,-190.11"/>
<polygon fill="#64748b" stroke="#64748b" points="772.36,-190.1 768.86,-180.1 765.36,-190.1 772.36,-190.1"/>
</g>
<!-- curl -->
<g id="node12" class="node">
<title>curl</title>
<ellipse fill="none" stroke="#64748b" cx="451.86" cy="-234" rx="27" ry="18"/>
<text text-anchor="middle" x="451.86" y="-231.5" font-family="Times-Roman" font-size="10.00" fill="#64748b">curl</text>
</g>
<!-- c&#45;ares -->
<g id="node13" class="node">
<title>c&#45;ares</title>
<ellipse fill="none" stroke="#64748b" cx="573.86" cy="-162" rx="27.84" ry="18"/>
<text text-anchor="middle" x="573.86" y="-159.5" font-family="Times-Roman" font-size="10.00" fill="#64748b">c&#45;ares</text>
</g>
<!-- curl&#45;&gt;c&#45;ares -->
<g id="edge9" class="edge">
<title>curl&#45;&gt;c&#45;ares</title>
<path fill="none" stroke="#64748b" d="M471.73,-221.6C491.55,-210.22 522.22,-192.63 544.78,-179.69"/>
<polygon fill="#64748b" stroke="#64748b" points="546.66,-182.64 553.59,-174.63 543.17,-176.57 546.66,-182.64"/>
</g>
<!-- libssh2 -->
<g id="node14" class="node">
<title>libssh2</title>
<ellipse fill="none" stroke="#64748b" cx="339.86" cy="-162" rx="30.04" ry="18"/>
<text text-anchor="middle" x="339.86" y="-159.5" font-family="Times-Roman" font-size="10.00" fill="#64748b">libssh2</text>
</g>
<!-- curl&#45;&gt;libssh2 -->
<g id="edge10" class="edge">
<title>curl&#45;&gt;libssh2</title>
<path fill="none" stroke="#64748b" d="M432.86,-221.13C415.25,-210.12 388.79,-193.58 368.59,-180.96"/>
<polygon fill="#64748b" stroke="#64748b" points="370.42,-177.98 360.09,-175.64 366.71,-183.91 370.42,-177.98"/>
</g>
<!-- libssh2&#45;&gt;openssl -->
<g id="edge22" class="edge">
<title>libssh2&#45;&gt;openssl</title>
<path fill="none" stroke="#64748b" d="M317.69,-149.75C295.02,-138.26 259.6,-120.29 233.89,-107.25"/>
<polygon fill="#64748b" stroke="#64748b" points="235.4,-104.09 224.9,-102.69 232.23,-110.33 235.4,-104.09"/>
</g>
<!-- libssh2&#45;&gt;zlib -->
<g id="edge23" class="edge">
<title>libssh2&#45;&gt;zlib</title>
<path fill="none" stroke="#64748b" d="M363.37,-150.75C368.47,-148.52 373.85,-146.18 378.86,-144 409.7,-130.58 444.95,-115.27 469.59,-104.57"/>
<polygon fill="#64748b" stroke="#64748b" points="471.04,-107.76 478.82,-100.57 468.25,-101.34 471.04,-107.76"/>
</g>
<!-- fecpp -->
<g id="node15" class="node">
<title>fecpp</title>
<ellipse fill="none" stroke="#64748b" cx="523.86" cy="-234" rx="27" ry="18"/>
<text text-anchor="middle" x="523.86" y="-231.5" font-family="Times-Roman" font-size="10.00" fill="#64748b">fecpp</text>
</g>
<!-- fecpp&#45;&gt;boost -->
<g id="edge11" class="edge">
<title>fecpp&#45;&gt;boost</title>
<path fill="none" stroke="#64748b" stroke-dasharray="5,2" d="M543.89,-221.6C564,-210.16 595.16,-192.42 617.94,-179.46"/>
<polygon fill="#64748b" stroke="#64748b" points="619.87,-182.39 626.83,-174.4 616.41,-176.3 619.87,-182.39"/>
</g>
<!-- ffmpeg -->
<g id="node16" class="node">
<title>ffmpeg</title>
<ellipse fill="none" stroke="#64748b" cx="261.86" cy="-162" rx="30.04" ry="18"/>
<text text-anchor="middle" x="261.86" y="-159.5" font-family="Times-Roman" font-size="10.00" fill="#64748b">ffmpeg</text>
</g>
<!-- openh264 -->
<g id="node17" class="node">
<title>openh264</title>
<ellipse fill="none" stroke="#64748b" cx="327.86" cy="-90" rx="38.03" ry="18"/>
<text text-anchor="middle" x="327.86" y="-87.5" font-family="Times-Roman" font-size="10.00" fill="#64748b">openh264</text>
</g>
<!-- ffmpeg&#45;&gt;openh264 -->
<g id="edge12" class="edge">
<title>ffmpeg&#45;&gt;openh264</title>
<path fill="none" stroke="#64748b" d="M276.18,-145.81C284.88,-136.58 296.17,-124.61 305.97,-114.22"/>
<polygon fill="#64748b" stroke="#64748b" points="308.8,-116.32 313.11,-106.64 303.7,-111.52 308.8,-116.32"/>
</g>
<!-- ffmpeg&#45;&gt;yasm -->
<g id="edge13" class="edge">
<title>ffmpeg&#45;&gt;yasm</title>
<path fill="none" stroke="#64748b" stroke-dasharray="5,2" d="M262.58,-143.87C263.61,-119.67 265.48,-75.21 266.7,-46.39"/>
<polygon fill="#64748b" stroke="#64748b" points="270.21,-46.33 267.13,-36.19 263.21,-46.03 270.21,-46.33"/>
</g>
<!-- openh264&#45;&gt;yasm -->
<g id="edge29" class="edge">
<title>openh264&#45;&gt;yasm</title>
<path fill="none" stroke="#64748b" stroke-dasharray="5,2" d="M314.24,-73.12C306.39,-63.95 296.37,-52.26 287.65,-42.09"/>
<polygon fill="#64748b" stroke="#64748b" points="290.17,-39.65 281.01,-34.34 284.86,-44.21 290.17,-39.65"/>
</g>
<!-- hdf5 -->
<g id="node19" class="node">
<title>hdf5</title>
<ellipse fill="none" stroke="#64748b" cx="500.86" cy="-162" rx="27" ry="18"/>
<text text-anchor="middle" x="500.86" y="-159.5" font-family="Times-Roman" font-size="10.00" fill="#64748b">hdf5</text>
</g>
<!-- hdf5&#45;&gt;zlib -->
<g id="edge14" class="edge">
<title>hdf5&#45;&gt;zlib</title>
<path fill="none" stroke="#64748b" d="M500.86,-143.7C500.86,-135.98 500.86,-126.71 500.86,-118.11"/>
<polygon fill="#64748b" stroke="#64748b" points="504.36,-118.1 500.86,-108.1 497.36,-118.1 504.36,-118.1"/>
</g>
<!-- libgeotiff -->
<g id="node20" class="node">
<title>libgeotiff</title>
<ellipse fill="none" stroke="#64748b" cx="1163.86" cy="-234" rx="35.14" ry="18"/>
<text text-anchor="middle" x="1163.86" y="-231.5" font-family="Times-Roman" font-size="10.00" fill="#64748b">libgeotiff</text>
</g>
<!-- wxwidgets -->
<g id="node21" class="node">
<title>wxwidgets</title>
<ellipse fill="none" stroke="#64748b" cx="1249.86" cy="-162" rx="40.74" ry="18"/>
<text text-anchor="middle" x="1249.86" y="-159.5" font-family="Times-Roman" font-size="10.00" fill="#64748b">wxwidgets</text>
</g>
<!-- libgeotiff&#45;&gt;wxwidgets -->
<g id="edge15" class="edge">
<title>libgeotiff&#45;&gt;wxwidgets</title>
<path fill="none" stroke="#64748b" d="M1182.1,-218.15C1194.1,-208.38 1210.01,-195.43 1223.4,-184.54"/>
<polygon fill="#64748b" stroke="#64748b" points="1225.8,-187.09 1231.35,-178.07 1221.39,-181.66 1225.8,-187.09"/>
</g>
<!-- libgit2 -->
<g id="node22" class="node">
<title>libgit2</title>
<ellipse fill="none" stroke="#64748b" cx="339.86" cy="-234" rx="27.84" ry="18"/>
<text text-anchor="middle" x="339.86" y="-231.5" font-family="Times-Roman" font-size="10.00" fill="#64748b">libgit2</text>
</g>
<!-- libgit2&#45;&gt;libssh2 -->
<g id="edge16" class="edge">
<title>libgit2&#45;&gt;libssh2</title>
<path fill="none" stroke="#64748b" d="M339.86,-215.7C339.86,-207.98 339.86,-198.71 339.86,-190.11"/>
<polygon fill="#64748b" stroke="#64748b" points="343.36,-190.1 339.86,-180.1 336.36,-190.1 343.36,-190.1"/>
</g>
<!-- librttopo -->
<g id="node23" class="node">
<title>librttopo</title>
<ellipse fill="none" stroke="#64748b" cx="851.86" cy="-162" rx="34.29" ry="18"/>
<text text-anchor="middle" x="851.86" y="-159.5" font-family="Times-Roman" font-size="10.00" fill="#64748b">librttopo</text>
</g>
<!-- geos -->
<g id="node24" class="node">
<title>geos</title>
<ellipse fill="none" stroke="#64748b" cx="856.86" cy="-90" rx="27" ry="18"/>
<text text-anchor="middle" x="856.86" y="-87.5" font-family="Times-Roman" font-size="10.00" fill="#64748b">geos</text>
</g>
<!-- librttopo&#45;&gt;geos -->
<g id="edge17" class="edge">
<title>librttopo&#45;&gt;geos</title>
<path fill="none" stroke="#64748b" d="M853.09,-143.7C853.65,-135.98 854.31,-126.71 854.92,-118.11"/>
<polygon fill="#64748b" stroke="#64748b" points="858.42,-118.33 855.64,-108.1 851.43,-117.83 858.42,-118.33"/>
</g>
<!-- libspatialite -->
<g id="node25" class="node">
<title>libspatialite</title>
<ellipse fill="none" stroke="#64748b" cx="947.86" cy="-162" rx="43.62" ry="18"/>
<text text-anchor="middle" x="947.86" y="-159.5" font-family="Times-Roman" font-size="10.00" fill="#64748b">libspatialite</text>
</g>
<!-- libspatialite&#45;&gt;zlib -->
<g id="edge21" class="edge">
<title>libspatialite&#45;&gt;zlib</title>
<path fill="none" stroke="#64748b" d="M915.89,-149.7C909.01,-147.57 901.75,-145.53 894.86,-144 770.64,-116.45 736.85,-125.72 610.86,-108 586.19,-104.53 558.48,-100.25 537.04,-96.84"/>
<polygon fill="#64748b" stroke="#64748b" points="537.48,-93.37 527.06,-95.25 536.38,-100.28 537.48,-93.37"/>
</g>
<!-- libspatialite&#45;&gt;geos -->
<g id="edge18" class="edge">
<title>libspatialite&#45;&gt;geos</title>
<path fill="none" stroke="#64748b" d="M928.11,-145.81C914.57,-135.39 896.48,-121.48 881.92,-110.28"/>
<polygon fill="#64748b" stroke="#64748b" points="883.87,-107.37 873.81,-104.04 879.61,-112.91 883.87,-107.37"/>
</g>
<!-- libiconv -->
<g id="node26" class="node">
<title>libiconv</title>
<ellipse fill="none" stroke="#64748b" cx="1021.86" cy="-90" rx="32.25" ry="18"/>
<text text-anchor="middle" x="1021.86" y="-87.5" font-family="Times-Roman" font-size="10.00" fill="#64748b">libiconv</text>
</g>
<!-- libspatialite&#45;&gt;libiconv -->
<g id="edge19" class="edge">
<title>libspatialite&#45;&gt;libiconv</title>
<path fill="none" stroke="#64748b" d="M964.65,-145.12C974.77,-135.55 987.79,-123.23 998.86,-112.76"/>
<polygon fill="#64748b" stroke="#64748b" points="1001.29,-115.28 1006.15,-105.86 996.48,-110.19 1001.29,-115.28"/>
</g>
<!-- sqlite3 -->
<g id="node27" class="node">
<title>sqlite3</title>
<ellipse fill="none" stroke="#64748b" cx="941.86" cy="-90" rx="29.37" ry="18"/>
<text text-anchor="middle" x="941.86" y="-87.5" font-family="Times-Roman" font-size="10.00" fill="#64748b">sqlite3</text>
</g>
<!-- libspatialite&#45;&gt;sqlite3 -->
<g id="edge20" class="edge">
<title>libspatialite&#45;&gt;sqlite3</title>
<path fill="none" stroke="#64748b" d="M946.38,-143.7C945.71,-135.98 944.92,-126.71 944.18,-118.11"/>
<polygon fill="#64748b" stroke="#64748b" points="947.67,-117.77 943.33,-108.1 940.69,-118.37 947.67,-117.77"/>
</g>
<!-- libstrophe -->
<g id="node28" class="node">
<title>libstrophe</title>
<ellipse fill="none" stroke="#64748b" cx="168.86" cy="-162" rx="38.03" ry="18"/>
<text text-anchor="middle" x="168.86" y="-159.5" font-family="Times-Roman" font-size="10.00" fill="#64748b">libstrophe</text>
</g>
<!-- libstrophe&#45;&gt;openssl -->
<g id="edge25" class="edge">
<title>libstrophe&#45;&gt;openssl</title>
<path fill="none" stroke="#64748b" d="M176.85,-144.05C180.66,-135.97 185.3,-126.12 189.55,-117.11"/>
<polygon fill="#64748b" stroke="#64748b" points="192.85,-118.33 193.94,-107.79 186.51,-115.34 192.85,-118.33"/>
</g>
<!-- libexpat -->
<g id="node29" class="node">
<title>libexpat</title>
<ellipse fill="none" stroke="#64748b" cx="118.86" cy="-90" rx="32.93" ry="18"/>
<text text-anchor="middle" x="118.86" y="-87.5" font-family="Times-Roman" font-size="10.00" fill="#64748b">libexpat</text>
</g>
<!-- libstrophe&#45;&gt;libexpat -->
<g id="edge24" class="edge">
<title>libstrophe&#45;&gt;libexpat</title>
<path fill="none" stroke="#64748b" d="M157.26,-144.76C151.01,-136.02 143.18,-125.05 136.22,-115.31"/>
<polygon fill="#64748b" stroke="#64748b" points="139.05,-113.25 130.39,-107.15 133.36,-117.32 139.05,-113.25"/>
</g>
<!-- luabridge -->
<g id="node31" class="node">
<title>luabridge</title>
<ellipse fill="none" stroke="#64748b" cx="1408.86" cy="-234" rx="36.49" ry="18"/>
<text text-anchor="middle" x="1408.86" y="-231.5" font-family="Times-Roman" font-size="10.00" fill="#64748b">luabridge</text>
</g>
<!-- lua -->
<g id="node32" class="node">
<title>lua</title>
<ellipse fill="none" stroke="#64748b" cx="1408.86" cy="-162" rx="27" ry="18"/>
<text text-anchor="middle" x="1408.86" y="-159.5" font-family="Times-Roman" font-size="10.00" fill="#64748b">lua</text>
</g>
<!-- luabridge&#45;&gt;lua -->
<g id="edge27" class="edge">
<title>luabridge&#45;&gt;lua</title>
<path fill="none" stroke="#64748b" d="M1408.86,-215.7C1408.86,-207.98 1408.86,-198.71 1408.86,-190.11"/>
<polygon fill="#64748b" stroke="#64748b" points="1412.36,-190.1 1408.86,-180.1 1405.36,-190.1 1412.36,-190.1"/>
</g>
<!-- node&#45;addon&#45;api -->
<g id="node33" class="node">
<title>node&#45;addon&#45;api</title>
<ellipse fill="none" stroke="#64748b" cx="1517.86" cy="-234" rx="54.99" ry="18"/>
<text text-anchor="middle" x="1517.86" y="-231.5" font-family="Times-Roman" font-size="10.00" fill="#64748b">node&#45;addon&#45;api</text>
</g>
<!-- nodexp -->
<g id="node34" class="node">
<title>nodexp</title>
<ellipse fill="none" stroke="#64748b" cx="1517.86" cy="-162" rx="31.4" ry="18"/>
<text text-anchor="middle" x="1517.86" y="-159.5" font-family="Times-Roman" font-size="10.00" fill="#64748b">nodexp</text>
</g>
<!-- node&#45;addon&#45;api&#45;&gt;nodexp -->
<g id="edge28" class="edge">
<title>node&#45;addon&#45;api&#45;&gt;nodexp</title>
<path fill="none" stroke="#64748b" d="M1517.86,-215.7C1517.86,-207.98 1517.86,-198.71 1517.86,-190.11"/>
<polygon fill="#64748b" stroke="#64748b" points="1521.36,-190.1 1517.86,-180.1 1514.36,-190.1 1521.36,-190.1"/>
</g>
<!-- protobuf -->
<g id="node36" class="node">
<title>protobuf</title>
<ellipse fill="none" stroke="#64748b" cx="421.86" cy="-162" rx="34.29" ry="18"/>
<text text-anchor="middle" x="421.86" y="-159.5" font-family="Times-Roman" font-size="10.00" fill="#64748b">protobuf</text>
</g>
<!-- protobuf&#45;&gt;zlib -->
<g id="edge32" class="edge">
<title>protobuf&#45;&gt;zlib</title>
<path fill="none" stroke="#64748b" d="M438.61,-146.15C449.91,-136.15 464.97,-122.8 477.44,-111.75"/>
<polygon fill="#64748b" stroke="#64748b" points="480.04,-114.12 485.2,-104.87 475.4,-108.88 480.04,-114.12"/>
</g>
<!-- spatialite&#45;tools -->
<g id="node37" class="node">
<title>spatialite&#45;tools</title>
<ellipse fill="none" stroke="#64748b" cx="948.86" cy="-234" rx="52.96" ry="18"/>
<text text-anchor="middle" x="948.86" y="-231.5" font-family="Times-Roman" font-size="10.00" fill="#64748b">spatialite&#45;tools</text>
</g>
<!-- spatialite&#45;tools&#45;&gt;libspatialite -->
<g id="edge33" class="edge">
<title>spatialite&#45;tools&#45;&gt;libspatialite</title>
<path fill="none" stroke="#64748b" stroke-dasharray="5,2" d="M948.61,-215.7C948.5,-207.98 948.37,-198.71 948.25,-190.11"/>
<polygon fill="#64748b" stroke="#64748b" points="951.75,-190.05 948.1,-180.1 944.75,-190.15 951.75,-190.05"/>
</g>
<!-- spdlog -->
<g id="node38" class="node">
<title>spdlog</title>
<ellipse fill="none" stroke="#64748b" cx="1619.86" cy="-234" rx="28.69" ry="18"/>
<text text-anchor="middle" x="1619.86" y="-231.5" font-family="Times-Roman" font-size="10.00" fill="#64748b">spdlog</text>
</g>
<!-- fmt -->
<g id="node39" class="node">
<title>fmt</title>
<ellipse fill="none" stroke="#64748b" cx="1619.86" cy="-162" rx="27" ry="18"/>
<text text-anchor="middle" x="1619.86" y="-159.5" font-family="Times-Roman" font-size="10.00" fill="#64748b">fmt</text>
</g>
<!-- spdlog&#45;&gt;fmt -->
<g id="edge34" class="edge">
<title>spdlog&#45;&gt;fmt</title>
<path fill="none" stroke="#64748b" d="M1619.86,-215.7C1619.86,-207.98 1619.86,-198.71 1619.86,-190.11"/>
<polygon fill="#64748b" stroke="#64748b" points="1623.36,-190.1 1619.86,-180.1 1616.36,-190.1 1623.36,-190.1"/>
</g>
<!-- wxinclude -->
<g id="node40" class="node">
<title>wxinclude</title>
<ellipse fill="none" stroke="#64748b" cx="607.86" cy="-234" rx="38.7" ry="18"/>
<text text-anchor="middle" x="607.86" y="-231.5" font-family="Times-Roman" font-size="10.00" fill="#64748b">wxinclude</text>
</g>
<!-- wxinclude&#45;&gt;boost -->
<g id="edge35" class="edge">
<title>wxinclude&#45;&gt;boost</title>
<path fill="none" stroke="#64748b" stroke-dasharray="5,2" d="M617.1,-216.41C621.76,-208.04 627.52,-197.71 632.72,-188.37"/>
<polygon fill="#64748b" stroke="#64748b" points="635.87,-189.91 637.68,-179.47 629.76,-186.5 635.87,-189.91"/>
</g>
<!-- wxtetris -->
<g id="node41" class="node">
<title>wxtetris</title>
<ellipse fill="none" stroke="#64748b" cx="1249.86" cy="-234" rx="32.93" ry="18"/>
<text text-anchor="middle" x="1249.86" y="-231.5" font-family="Times-Roman" font-size="10.00" fill="#64748b">wxtetris</text>
</g>
<!-- wxtetris&#45;&gt;wxwidgets -->
<g id="edge36" class="edge">
<title>wxtetris&#45;&gt;wxwidgets</title>
<path fill="none" stroke="#64748b" stroke-dasharray="5,2" d="M1249.86,-215.7C1249.86,-207.98 1249.86,-198.71 1249.86,-190.11"/>
<polygon fill="#64748b" stroke="#64748b" points="1253.36,-190.1 1249.86,-180.1 1246.36,-190.1 1253.36,-190.1"/>
</g>
<!-- wxx -->
<g id="node42" class="node">
<title>wxx</title>
<ellipse fill="none" stroke="#64748b" cx="1327.86" cy="-234" rx="27" ry="18"/>
<text text-anchor="middle" x="1327.86" y="-231.5" font-family="Times-Roman" font-size="10.00" fill="#64748b">wxx</text>
</g>
<!-- wxx&#45;&gt;wxwidgets -->
<g id="edge37" class="edge">
<title>wxx&#45;&gt;wxwidgets</title>
<path fill="none" stroke="#64748b" d="M1312.45,-219.17C1301.74,-209.56 1287.23,-196.54 1274.88,-185.46"/>
<polygon fill="#64748b" stroke="#64748b" points="1276.92,-182.58 1267.14,-178.51 1272.24,-187.79 1276.92,-182.58"/>
</g>
<!-- zmqpp -->
<g id="node43" class="node">
<title>zmqpp</title>
<ellipse fill="none" stroke="#64748b" cx="848.86" cy="-234" rx="29.37" ry="18"/>
<text text-anchor="middle" x="848.86" y="-231.5" font-family="Times-Roman" font-size="10.00" fill="#64748b">zmqpp</text>
</g>
<!-- zmqpp&#45;&gt;libzmq -->
<g id="edge38" class="edge">
<title>zmqpp&#45;&gt;libzmq</title>
<path fill="none" stroke="#64748b" d="M832.67,-218.83C821.18,-208.78 805.56,-195.11 792.65,-183.82"/>
<polygon fill="#64748b" stroke="#64748b" points="794.85,-181.1 785.02,-177.14 790.25,-186.36 794.85,-181.1"/>
</g>
</g>
</svg>
