<?xml version="1.0" encoding="UTF-8" standalone="no"?>
<!DOCTYPE svg PUBLIC "-//W3C//DTD SVG 1.1//EN"
 "http://www.w3.org/Graphics/SVG/1.1/DTD/svg11.dtd">
<!-- Generated by graphviz version 2.44.0 (0)
 -->
<!-- Title: GG Pages: 1 -->
<svg width="1715pt" height="260pt"
 viewBox="0.00 0.00 1715.01 260.00" xmlns="http://www.w3.org/2000/svg" xmlns:xlink="http://www.w3.org/1999/xlink">
<g id="graph0" class="graph" transform="scale(1 1) rotate(0) translate(4 256)">
<title>GG</title>
<!-- FFmpeg -->
<g id="node1" class="node">
<title>FFmpeg</title>
<ellipse fill="none" stroke="#64748b" cx="49.26" cy="-162" rx="32.93" ry="18"/>
<text text-anchor="middle" x="49.26" y="-159.5" font-family="Times-Roman" font-size="10.00" fill="#64748b">FFmpeg</text>
</g>
<!-- openh264 -->
<g id="node2" class="node">
<title>openh264</title>
<ellipse fill="none" stroke="#64748b" cx="38.26" cy="-90" rx="38.03" ry="18"/>
<text text-anchor="middle" x="38.26" y="-87.5" font-family="Times-Roman" font-size="10.00" fill="#64748b">openh264</text>
</g>
<!-- FFmpeg&#45;&gt;openh264 -->
<g id="edge1" class="edge">
<title>FFmpeg&#45;&gt;openh264</title>
<path fill="none" stroke="#64748b" d="M46.6,-144.05C45.39,-136.35 43.92,-127.03 42.56,-118.36"/>
<polygon fill="#64748b" stroke="#64748b" points="45.99,-117.61 40.98,-108.28 39.07,-118.7 45.99,-117.61"/>
</g>
<!-- yasm -->
<g id="node3" class="node">
<title>yasm</title>
<ellipse fill="none" stroke="#64748b" cx="104.26" cy="-18" rx="27" ry="18"/>
<text text-anchor="middle" x="104.26" y="-15.5" font-family="Times-Roman" font-size="10.00" fill="#64748b">yasm</text>
</g>
<!-- FFmpeg&#45;&gt;yasm -->
<g id="edge2" class="edge">
<title>FFmpeg&#45;&gt;yasm</title>
<path fill="none" stroke="#64748b" stroke-dasharray="5,2" d="M62.36,-145.25C70.11,-135.17 79.5,-121.5 85.26,-108 93.73,-88.17 98.57,-64.2 101.24,-46.13"/>
<polygon fill="#64748b" stroke="#64748b" points="104.74,-46.37 102.61,-35.99 97.8,-45.43 104.74,-46.37"/>
</g>
<!-- openh264&#45;&gt;yasm -->
<g id="edge36" class="edge">
<title>openh264&#45;&gt;yasm</title>
<path fill="none" stroke="#64748b" stroke-dasharray="5,2" d="M53.24,-73.12C62.09,-63.73 73.43,-51.7 83.18,-41.36"/>
<polygon fill="#64748b" stroke="#64748b" points="85.93,-43.54 90.25,-33.86 80.84,-38.74 85.93,-43.54"/>
</g>
<!-- LuaBridge -->
<g id="node4" class="node">
<title>LuaBridge</title>
<ellipse fill="none" stroke="#64748b" cx="457.26" cy="-90" rx="38.03" ry="18"/>
<text text-anchor="middle" x="457.26" y="-87.5" font-family="Times-Roman" font-size="10.00" fill="#64748b">LuaBridge</text>
</g>
<!-- lua -->
<g id="node5" class="node">
<title>lua</title>
<ellipse fill="none" stroke="#64748b" cx="457.26" cy="-18" rx="27" ry="18"/>
<text text-anchor="middle" x="457.26" y="-15.5" font-family="Times-Roman" font-size="10.00" fill="#64748b">lua</text>
</g>
<!-- LuaBridge&#45;&gt;lua -->
<g id="edge3" class="edge">
<title>LuaBridge&#45;&gt;lua</title>
<path fill="none" stroke="#64748b" d="M457.26,-71.7C457.26,-63.98 457.26,-54.71 457.26,-46.11"/>
<polygon fill="#64748b" stroke="#64748b" points="460.76,-46.1 457.26,-36.1 453.76,-46.1 460.76,-46.1"/>
</g>
<!-- Threads -->
<g id="node6" class="node">
<title>Threads</title>
<ellipse fill="none" stroke="#64748b" cx="810.26" cy="-18" rx="32.93" ry="18"/>
<text text-anchor="middle" x="810.26" y="-15.5" font-family="Times-Roman" font-size="10.00" fill="#64748b">Threads</text>
</g>
<!-- LuaBridge&#45;&gt;Threads -->
<g id="edge4" class="edge">
<title>LuaBridge&#45;&gt;Threads</title>
<path fill="none" stroke="#64748b" stroke-dasharray="5,2" d="M487.02,-78.47C494.25,-76.14 501.98,-73.82 509.26,-72 600.55,-49.16 709.82,-32.53 768.34,-24.47"/>
<polygon fill="#64748b" stroke="#64748b" points="768.88,-27.93 778.32,-23.11 767.94,-20.99 768.88,-27.93"/>
</g>
<!-- activemq&#45;cpp -->
<g id="node7" class="node">
<title>activemq&#45;cpp</title>
<ellipse fill="none" stroke="#64748b" cx="159.26" cy="-162" rx="48.72" ry="18"/>
<text text-anchor="middle" x="159.26" y="-159.5" font-family="Times-Roman" font-size="10.00" fill="#64748b">activemq&#45;cpp</text>
</g>
<!-- apr -->
<g id="node8" class="node">
<title>apr</title>
<ellipse fill="none" stroke="#64748b" cx="159.26" cy="-90" rx="27" ry="18"/>
<text text-anchor="middle" x="159.26" y="-87.5" font-family="Times-Roman" font-size="10.00" fill="#64748b">apr</text>
</g>
<!-- activemq&#45;cpp&#45;&gt;apr -->
<g id="edge5" class="edge">
<title>activemq&#45;cpp&#45;&gt;apr</title>
<path fill="none" stroke="#64748b" d="M159.26,-143.7C159.26,-135.98 159.26,-126.71 159.26,-118.11"/>
<polygon fill="#64748b" stroke="#64748b" points="162.76,-118.1 159.26,-108.1 155.76,-118.1 162.76,-118.1"/>
</g>
<!-- openssl -->
<g id="node9" class="node">
<title>openssl</title>
<ellipse fill="none" stroke="#64748b" cx="320.26" cy="-90" rx="31.58" ry="18"/>
<text text-anchor="middle" x="320.26" y="-87.5" font-family="Times-Roman" font-size="10.00" fill="#64748b">openssl</text>
</g>
<!-- activemq&#45;cpp&#45;&gt;openssl -->
<g id="edge6" class="edge">
<title>activemq&#45;cpp&#45;&gt;openssl</title>
<path fill="none" stroke="#64748b" d="M189.55,-147.83C217.21,-135.81 258.04,-118.05 286.69,-105.6"/>
<polygon fill="#64748b" stroke="#64748b" points="288.13,-108.79 295.9,-101.59 285.33,-102.37 288.13,-108.79"/>
</g>
<!-- openssl&#45;&gt;yasm -->
<g id="edge38" class="edge">
<title>openssl&#45;&gt;yasm</title>
<path fill="none" stroke="#64748b" stroke-dasharray="5,2" d="M295.7,-78.35C290.32,-76.15 284.63,-73.92 279.26,-72 231.11,-54.77 174.26,-38.24 138.73,-28.35"/>
<polygon fill="#64748b" stroke="#64748b" points="139.43,-24.91 128.86,-25.62 137.56,-31.66 139.43,-24.91"/>
</g>
<!-- nasm -->
<g id="node40" class="node">
<title>nasm</title>
<ellipse fill="none" stroke="#64748b" cx="320.26" cy="-18" rx="27" ry="18"/>
<text text-anchor="middle" x="320.26" y="-15.5" font-family="Times-Roman" font-size="10.00" fill="#64748b">nasm</text>
</g>
<!-- openssl&#45;&gt;nasm -->
<g id="edge37" class="edge">
<title>openssl&#45;&gt;nasm</title>
<path fill="none" stroke="#64748b" stroke-dasharray="5,2" d="M320.26,-71.7C320.26,-63.98 320.26,-54.71 320.26,-46.11"/>
<polygon fill="#64748b" stroke="#64748b" points="323.76,-46.1 320.26,-36.1 316.76,-46.1 323.76,-46.1"/>
</g>
<!-- argon2 -->
<g id="node10" class="node">
<title>argon2</title>
<ellipse fill="none" stroke="#64748b" cx="724.26" cy="-90" rx="29.37" ry="18"/>
<text text-anchor="middle" x="724.26" y="-87.5" font-family="Times-Roman" font-size="10.00" fill="#64748b">argon2</text>
</g>
<!-- argon2&#45;&gt;Threads -->
<g id="edge7" class="edge">
<title>argon2&#45;&gt;Threads</title>
<path fill="none" stroke="#64748b" d="M741.25,-75.17C753.69,-65.04 770.79,-51.13 784.85,-39.69"/>
<polygon fill="#64748b" stroke="#64748b" points="787.17,-42.31 792.72,-33.28 782.75,-36.88 787.17,-42.31"/>
</g>
<!-- azmq -->
<g id="node11" class="node">
<title>azmq</title>
<ellipse fill="none" stroke="#64748b" cx="739.26" cy="-234" rx="27" ry="18"/>
<text text-anchor="middle" x="739.26" y="-231.5" font-family="Times-Roman" font-size="10.00" fill="#64748b">azmq</text>
</g>
<!-- libzmq -->
<g id="node12" class="node">
<title>libzmq</title>
<ellipse fill="none" stroke="#64748b" cx="814.26" cy="-162" rx="29.37" ry="18"/>
<text text-anchor="middle" x="814.26" y="-159.5" font-family="Times-Roman" font-size="10.00" fill="#64748b">libzmq</text>
</g>
<!-- azmq&#45;&gt;libzmq -->
<g id="edge8" class="edge">
<title>azmq&#45;&gt;libzmq</title>
<path fill="none" stroke="#64748b" d="M754.44,-218.83C765.04,-208.94 779.39,-195.55 791.38,-184.36"/>
<polygon fill="#64748b" stroke="#64748b" points="793.93,-186.77 798.85,-177.38 789.15,-181.65 793.93,-186.77"/>
</g>
<!-- boost -->
<g id="node13" class="node">
<title>boost</title>
<ellipse fill="none" stroke="#64748b" cx="657.26" cy="-162" rx="27" ry="18"/>
<text text-anchor="middle" x="657.26" y="-159.5" font-family="Times-Roman" font-size="10.00" fill="#64748b">boost</text>
</g>
<!-- azmq&#45;&gt;boost -->
<g id="edge9" class="edge">
<title>azmq&#45;&gt;boost</title>
<path fill="none" stroke="#64748b" d="M723.06,-219.17C711.08,-208.94 694.57,-194.85 681.09,-183.34"/>
<polygon fill="#64748b" stroke="#64748b" points="683.03,-180.39 673.15,-176.56 678.48,-185.72 683.03,-180.39"/>
</g>
<!-- libsodium -->
<g id="node32" class="node">
<title>libsodium</title>
<ellipse fill="none" stroke="#64748b" cx="810.26" cy="-90" rx="38.03" ry="18"/>
<text text-anchor="middle" x="810.26" y="-87.5" font-family="Times-Roman" font-size="10.00" fill="#64748b">libsodium</text>
</g>
<!-- libzmq&#45;&gt;libsodium -->
<g id="edge34" class="edge">
<title>libzmq&#45;&gt;libsodium</title>
<path fill="none" stroke="#64748b" d="M813.27,-143.7C812.83,-135.98 812.3,-126.71 811.81,-118.11"/>
<polygon fill="#64748b" stroke="#64748b" points="815.31,-117.89 811.24,-108.1 808.32,-118.29 815.31,-117.89"/>
</g>
<!-- bzip2 -->
<g id="node14" class="node">
<title>bzip2</title>
<ellipse fill="none" stroke="#64748b" cx="650.26" cy="-90" rx="27" ry="18"/>
<text text-anchor="middle" x="650.26" y="-87.5" font-family="Times-Roman" font-size="10.00" fill="#64748b">bzip2</text>
</g>
<!-- boost&#45;&gt;bzip2 -->
<g id="edge10" class="edge">
<title>boost&#45;&gt;bzip2</title>
<path fill="none" stroke="#64748b" d="M655.53,-143.7C654.76,-135.98 653.83,-126.71 652.97,-118.11"/>
<polygon fill="#64748b" stroke="#64748b" points="656.45,-117.71 651.97,-108.1 649.49,-118.4 656.45,-117.71"/>
</g>
<!-- zlib -->
<g id="node15" class="node">
<title>zlib</title>
<ellipse fill="none" stroke="#64748b" cx="578.26" cy="-90" rx="27" ry="18"/>
<text text-anchor="middle" x="578.26" y="-87.5" font-family="Times-Roman" font-size="10.00" fill="#64748b">zlib</text>
</g>
<!-- boost&#45;&gt;zlib -->
<g id="edge11" class="edge">
<title>boost&#45;&gt;zlib</title>
<path fill="none" stroke="#64748b" d="M641.66,-147.17C630.19,-137.01 614.41,-123.03 601.47,-111.56"/>
<polygon fill="#64748b" stroke="#64748b" points="603.64,-108.81 593.84,-104.8 599,-114.05 603.64,-108.81"/>
</g>
<!-- ceres&#45;solver -->
<g id="node16" class="node">
<title>ceres&#45;solver</title>
<ellipse fill="none" stroke="#64748b" cx="1009.26" cy="-90" rx="45.15" ry="18"/>
<text text-anchor="middle" x="1009.26" y="-87.5" font-family="Times-Roman" font-size="10.00" fill="#64748b">ceres&#45;solver</text>
</g>
<!-- ceres&#45;solver&#45;&gt;Threads -->
<g id="edge12" class="edge">
<title>ceres&#45;solver&#45;&gt;Threads</title>
<path fill="none" stroke="#64748b" d="M976.4,-77.44C940.73,-64.89 883.91,-44.91 846.85,-31.87"/>
<polygon fill="#64748b" stroke="#64748b" points="848.01,-28.57 837.41,-28.55 845.68,-35.17 848.01,-28.57"/>
</g>
<!-- eigen -->
<g id="node17" class="node">
<title>eigen</title>
<ellipse fill="none" stroke="#64748b" cx="1009.26" cy="-18" rx="27" ry="18"/>
<text text-anchor="middle" x="1009.26" y="-15.5" font-family="Times-Roman" font-size="10.00" fill="#64748b">eigen</text>
</g>
<!-- ceres&#45;solver&#45;&gt;eigen -->
<g id="edge13" class="edge">
<title>ceres&#45;solver&#45;&gt;eigen</title>
<path fill="none" stroke="#64748b" d="M1009.26,-71.7C1009.26,-63.98 1009.26,-54.71 1009.26,-46.11"/>
<polygon fill="#64748b" stroke="#64748b" points="1012.76,-46.1 1009.26,-36.1 1005.76,-46.1 1012.76,-46.1"/>
</g>
<!-- cppzmq -->
<g id="node18" class="node">
<title>cppzmq</title>
<ellipse fill="none" stroke="#64748b" cx="816.26" cy="-234" rx="32.25" ry="18"/>
<text text-anchor="middle" x="816.26" y="-231.5" font-family="Times-Roman" font-size="10.00" fill="#64748b">cppzmq</text>
</g>
<!-- cppzmq&#45;&gt;libzmq -->
<g id="edge14" class="edge">
<title>cppzmq&#45;&gt;libzmq</title>
<path fill="none" stroke="#64748b" d="M815.77,-215.7C815.55,-207.98 815.28,-198.71 815.04,-190.11"/>
<polygon fill="#64748b" stroke="#64748b" points="818.54,-190 814.75,-180.1 811.54,-190.2 818.54,-190"/>
</g>
<!-- curl -->
<g id="node19" class="node">
<title>curl</title>
<ellipse fill="none" stroke="#64748b" cx="425.26" cy="-234" rx="27" ry="18"/>
<text text-anchor="middle" x="425.26" y="-231.5" font-family="Times-Roman" font-size="10.00" fill="#64748b">curl</text>
</g>
<!-- c&#45;ares -->
<g id="node20" class="node">
<title>c&#45;ares</title>
<ellipse fill="none" stroke="#64748b" cx="426.26" cy="-162" rx="27.84" ry="18"/>
<text text-anchor="middle" x="426.26" y="-159.5" font-family="Times-Roman" font-size="10.00" fill="#64748b">c&#45;ares</text>
</g>
<!-- curl&#45;&gt;c&#45;ares -->
<g id="edge15" class="edge">
<title>curl&#45;&gt;c&#45;ares</title>
<path fill="none" stroke="#64748b" d="M425.51,-215.7C425.62,-207.98 425.75,-198.71 425.88,-190.11"/>
<polygon fill="#64748b" stroke="#64748b" points="429.38,-190.15 426.02,-180.1 422.38,-190.05 429.38,-190.15"/>
</g>
<!-- libssh2 -->
<g id="node21" class="node">
<title>libssh2</title>
<ellipse fill="none" stroke="#64748b" cx="350.26" cy="-162" rx="30.04" ry="18"/>
<text text-anchor="middle" x="350.26" y="-159.5" font-family="Times-Roman" font-size="10.00" fill="#64748b">libssh2</text>
</g>
<!-- curl&#45;&gt;libssh2 -->
<g id="edge16" class="edge">
<title>curl&#45;&gt;libssh2</title>
<path fill="none" stroke="#64748b" d="M410.09,-218.83C399.55,-209 385.32,-195.72 373.39,-184.58"/>
<polygon fill="#64748b" stroke="#64748b" points="375.63,-181.89 365.93,-177.63 370.86,-187.01 375.63,-181.89"/>
</g>
<!-- libssh2&#45;&gt;openssl -->
<g id="edge30" class="edge">
<title>libssh2&#45;&gt;openssl</title>
<path fill="none" stroke="#64748b" d="M343.15,-144.41C339.69,-136.34 335.45,-126.43 331.56,-117.35"/>
<polygon fill="#64748b" stroke="#64748b" points="334.69,-115.77 327.53,-107.96 328.25,-118.53 334.69,-115.77"/>
</g>
<!-- libssh2&#45;&gt;zlib -->
<g id="edge31" class="edge">
<title>libssh2&#45;&gt;zlib</title>
<path fill="none" stroke="#64748b" d="M373.56,-150.22C378.68,-148.03 384.11,-145.83 389.26,-144 441.93,-125.24 504.73,-108.75 543.03,-99.34"/>
<polygon fill="#64748b" stroke="#64748b" points="544.27,-102.64 553.15,-96.87 542.61,-95.84 544.27,-102.64"/>
</g>
<!-- fecpp -->
<g id="node22" class="node">
<title>fecpp</title>
<ellipse fill="none" stroke="#64748b" cx="571.26" cy="-234" rx="27" ry="18"/>
<text text-anchor="middle" x="571.26" y="-231.5" font-family="Times-Roman" font-size="10.00" fill="#64748b">fecpp</text>
</g>
<!-- fecpp&#45;&gt;boost -->
<g id="edge17" class="edge">
<title>fecpp&#45;&gt;boost</title>
<path fill="none" stroke="#64748b" stroke-dasharray="5,2" d="M587.84,-219.5C600.57,-209.14 618.35,-194.67 632.72,-182.97"/>
<polygon fill="#64748b" stroke="#64748b" points="635.19,-185.48 640.73,-176.46 630.77,-180.05 635.19,-185.48"/>
</g>
<!-- glew -->
<g id="node23" class="node">
<title>glew</title>
<ellipse fill="none" stroke="#64748b" cx="1386.26" cy="-162" rx="27" ry="18"/>
<text text-anchor="middle" x="1386.26" y="-159.5" font-family="Times-Roman" font-size="10.00" fill="#64748b">glew</text>
</g>
<!-- OpenGL -->
<g id="node24" class="node">
<title>OpenGL</title>
<ellipse fill="none" stroke="#64748b" cx="1445.26" cy="-90" rx="32.25" ry="18"/>
<text text-anchor="middle" x="1445.26" y="-87.5" font-family="Times-Roman" font-size="10.00" fill="#64748b">OpenGL</text>
</g>
<!-- glew&#45;&gt;OpenGL -->
<g id="edge18" class="edge">
<title>glew&#45;&gt;OpenGL</title>
<path fill="none" stroke="#64748b" d="M1399.07,-145.81C1406.77,-136.67 1416.73,-124.85 1425.44,-114.52"/>
<polygon fill="#64748b" stroke="#64748b" points="1428.31,-116.55 1432.08,-106.64 1422.96,-112.03 1428.31,-116.55"/>
</g>
<!-- googletest -->
<g id="node25" class="node">
<title>googletest</title>
<ellipse fill="none" stroke="#64748b" cx="906.26" cy="-90" rx="40.06" ry="18"/>
<text text-anchor="middle" x="906.26" y="-87.5" font-family="Times-Roman" font-size="10.00" fill="#64748b">googletest</text>
</g>
<!-- googletest&#45;&gt;Threads -->
<g id="edge19" class="edge">
<title>googletest&#45;&gt;Threads</title>
<path fill="none" stroke="#64748b" d="M885.9,-74.15C871.79,-63.86 852.83,-50.04 837.43,-38.81"/>
<polygon fill="#64748b" stroke="#64748b" points="839.43,-35.94 829.29,-32.87 835.3,-41.59 839.43,-35.94"/>
</g>
<!-- hdf5 -->
<g id="node26" class="node">
<title>hdf5</title>
<ellipse fill="none" stroke="#64748b" cx="499.26" cy="-162" rx="27" ry="18"/>
<text text-anchor="middle" x="499.26" y="-159.5" font-family="Times-Roman" font-size="10.00" fill="#64748b">hdf5</text>
</g>
<!-- hdf5&#45;&gt;Threads -->
<g id="edge20" class="edge">
<title>hdf5&#45;&gt;Threads</title>
<path fill="none" stroke="#64748b" d="M502.66,-144.02C507.66,-123.63 519.05,-89.94 542.26,-72 576.9,-45.23 700.97,-29.5 767.46,-22.82"/>
<polygon fill="#64748b" stroke="#64748b" points="768,-26.28 777.61,-21.82 767.32,-19.32 768,-26.28"/>
</g>
<!-- hdf5&#45;&gt;zlib -->
<g id="edge21" class="edge">
<title>hdf5&#45;&gt;zlib</title>
<path fill="none" stroke="#64748b" d="M514.87,-147.17C526.34,-137.01 542.11,-123.03 555.06,-111.56"/>
<polygon fill="#64748b" stroke="#64748b" points="557.52,-114.05 562.69,-104.8 552.88,-108.81 557.52,-114.05"/>
</g>
<!-- libgeotiff -->
<g id="node27" class="node">
<title>libgeotiff</title>
<ellipse fill="none" stroke="#64748b" cx="1386.26" cy="-234" rx="35.14" ry="18"/>
<text text-anchor="middle" x="1386.26" y="-231.5" font-family="Times-Roman" font-size="10.00" fill="#64748b">libgeotiff</text>
</g>
<!-- wxWidgets -->
<g id="node28" class="node">
<title>wxWidgets</title>
<ellipse fill="none" stroke="#64748b" cx="1473.26" cy="-162" rx="41.59" ry="18"/>
<text text-anchor="middle" x="1473.26" y="-159.5" font-family="Times-Roman" font-size="10.00" fill="#64748b">wxWidgets</text>
</g>
<!-- libgeotiff&#45;&gt;wxWidgets -->
<g id="edge22" class="edge">
<title>libgeotiff&#45;&gt;wxWidgets</title>
<path fill="none" stroke="#64748b" d="M1404.29,-218.5C1416.41,-208.75 1432.6,-195.72 1446.25,-184.74"/>
<polygon fill="#64748b" stroke="#64748b" points="1448.76,-187.21 1454.36,-178.21 1444.37,-181.75 1448.76,-187.21"/>
</g>
<!-- wxWidgets&#45;&gt;OpenGL -->
<g id="edge47" class="edge">
<title>wxWidgets&#45;&gt;OpenGL</title>
<path fill="none" stroke="#64748b" stroke-dasharray="5,2" d="M1466.49,-144.05C1463.25,-135.97 1459.31,-126.12 1455.71,-117.11"/>
<polygon fill="#64748b" stroke="#64748b" points="1458.94,-115.77 1451.98,-107.79 1452.44,-118.37 1458.94,-115.77"/>
</g>
<!-- libgit2 -->
<g id="node29" class="node">
<title>libgit2</title>
<ellipse fill="none" stroke="#64748b" cx="350.26" cy="-234" rx="27.84" ry="18"/>
<text text-anchor="middle" x="350.26" y="-231.5" font-family="Times-Roman" font-size="10.00" fill="#64748b">libgit2</text>
</g>
<!-- libgit2&#45;&gt;libssh2 -->
<g id="edge23" class="edge">
<title>libgit2&#45;&gt;libssh2</title>
<path fill="none" stroke="#64748b" d="M350.26,-215.7C350.26,-207.98 350.26,-198.71 350.26,-190.11"/>
<polygon fill="#64748b" stroke="#64748b" points="353.76,-190.1 350.26,-180.1 346.76,-190.1 353.76,-190.1"/>
</g>
<!-- librttopo -->
<g id="node30" class="node">
<title>librttopo</title>
<ellipse fill="none" stroke="#64748b" cx="1158.26" cy="-162" rx="34.29" ry="18"/>
<text text-anchor="middle" x="1158.26" y="-159.5" font-family="Times-Roman" font-size="10.00" fill="#64748b">librttopo</text>
</g>
<!-- geos -->
<g id="node31" class="node">
<title>geos</title>
<ellipse fill="none" stroke="#64748b" cx="1175.26" cy="-90" rx="27" ry="18"/>
<text text-anchor="middle" x="1175.26" y="-87.5" font-family="Times-Roman" font-size="10.00" fill="#64748b">geos</text>
</g>
<!-- librttopo&#45;&gt;geos -->
<g id="edge24" class="edge">
<title>librttopo&#45;&gt;geos</title>
<path fill="none" stroke="#64748b" d="M1162.38,-144.05C1164.27,-136.26 1166.56,-126.82 1168.69,-118.08"/>
<polygon fill="#64748b" stroke="#64748b" points="1172.11,-118.82 1171.07,-108.28 1165.31,-117.17 1172.11,-118.82"/>
</g>
<!-- libsodium&#45;&gt;Threads -->
<g id="edge25" class="edge">
<title>libsodium&#45;&gt;Threads</title>
<path fill="none" stroke="#64748b" d="M810.26,-71.7C810.26,-63.98 810.26,-54.71 810.26,-46.11"/>
<polygon fill="#64748b" stroke="#64748b" points="813.76,-46.1 810.26,-36.1 806.76,-46.1 813.76,-46.1"/>
</g>
<!-- libspatialite -->
<g id="node33" class="node">
<title>libspatialite</title>
<ellipse fill="none" stroke="#64748b" cx="1254.26" cy="-162" rx="43.62" ry="18"/>
<text text-anchor="middle" x="1254.26" y="-159.5" font-family="Times-Roman" font-size="10.00" fill="#64748b">libspatialite</text>
</g>
<!-- libspatialite&#45;&gt;zlib -->
<g id="edge29" class="edge">
<title>libspatialite&#45;&gt;zlib</title>
<path fill="none" stroke="#64748b" d="M1222.64,-149.44C1215.68,-147.3 1208.29,-145.32 1201.26,-144 944.38,-95.71 867.44,-172.97 614.26,-108 612.09,-107.44 609.88,-106.75 607.69,-105.97"/>
<polygon fill="#64748b" stroke="#64748b" points="608.9,-102.68 598.32,-102.11 606.23,-109.15 608.9,-102.68"/>
</g>
<!-- libspatialite&#45;&gt;geos -->
<g id="edge27" class="edge">
<title>libspatialite&#45;&gt;geos</title>
<path fill="none" stroke="#64748b" d="M1236.73,-145.46C1225.47,-135.49 1210.72,-122.41 1198.48,-111.58"/>
<polygon fill="#64748b" stroke="#64748b" points="1200.68,-108.84 1190.87,-104.83 1196.04,-114.08 1200.68,-108.84"/>
</g>
<!-- SQLite3 -->
<g id="node34" class="node">
<title>SQLite3</title>
<ellipse fill="none" stroke="#64748b" cx="1252.26" cy="-90" rx="31.58" ry="18"/>
<text text-anchor="middle" x="1252.26" y="-87.5" font-family="Times-Roman" font-size="10.00" fill="#64748b">SQLite3</text>
</g>
<!-- libspatialite&#45;&gt;SQLite3 -->
<g id="edge26" class="edge">
<title>libspatialite&#45;&gt;SQLite3</title>
<path fill="none" stroke="#64748b" d="M1253.77,-143.7C1253.55,-135.98 1253.28,-126.71 1253.04,-118.11"/>
<polygon fill="#64748b" stroke="#64748b" points="1256.54,-118 1252.75,-108.1 1249.54,-118.2 1256.54,-118"/>
</g>
<!-- libiconv -->
<g id="node35" class="node">
<title>libiconv</title>
<ellipse fill="none" stroke="#64748b" cx="1334.26" cy="-90" rx="32.25" ry="18"/>
<text text-anchor="middle" x="1334.26" y="-87.5" font-family="Times-Roman" font-size="10.00" fill="#64748b">libiconv</text>
</g>
<!-- libspatialite&#45;&gt;libiconv -->
<g id="edge28" class="edge">
<title>libspatialite&#45;&gt;libiconv</title>
<path fill="none" stroke="#64748b" d="M1272.02,-145.46C1283.19,-135.68 1297.77,-122.93 1310.01,-112.22"/>
<polygon fill="#64748b" stroke="#64748b" points="1312.43,-114.76 1317.65,-105.54 1307.82,-109.49 1312.43,-114.76"/>
</g>
<!-- libstrophe -->
<g id="node36" class="node">
<title>libstrophe</title>
<ellipse fill="none" stroke="#64748b" cx="264.26" cy="-162" rx="38.03" ry="18"/>
<text text-anchor="middle" x="264.26" y="-159.5" font-family="Times-Roman" font-size="10.00" fill="#64748b">libstrophe</text>
</g>
<!-- libstrophe&#45;&gt;openssl -->
<g id="edge33" class="edge">
<title>libstrophe&#45;&gt;openssl</title>
<path fill="none" stroke="#64748b" d="M277.25,-144.76C284.42,-135.8 293.45,-124.51 301.39,-114.59"/>
<polygon fill="#64748b" stroke="#64748b" points="304.22,-116.66 307.73,-106.67 298.75,-112.29 304.22,-116.66"/>
</g>
<!-- libexpat -->
<g id="node37" class="node">
<title>libexpat</title>
<ellipse fill="none" stroke="#64748b" cx="237.26" cy="-90" rx="32.93" ry="18"/>
<text text-anchor="middle" x="237.26" y="-87.5" font-family="Times-Roman" font-size="10.00" fill="#64748b">libexpat</text>
</g>
<!-- libstrophe&#45;&gt;libexpat -->
<g id="edge32" class="edge">
<title>libstrophe&#45;&gt;libexpat</title>
<path fill="none" stroke="#64748b" d="M257.73,-144.05C254.64,-136.06 250.89,-126.33 247.45,-117.4"/>
<polygon fill="#64748b" stroke="#64748b" points="250.6,-115.86 243.74,-107.79 244.07,-118.38 250.6,-115.86"/>
</g>
<!-- node&#45;addon&#45;api -->
<g id="node38" class="node">
<title>node&#45;addon&#45;api</title>
<ellipse fill="none" stroke="#64748b" cx="1652.26" cy="-234" rx="54.99" ry="18"/>
<text text-anchor="middle" x="1652.26" y="-231.5" font-family="Times-Roman" font-size="10.00" fill="#64748b">node&#45;addon&#45;api</text>
</g>
<!-- nodexp -->
<g id="node39" class="node">
<title>nodexp</title>
<ellipse fill="none" stroke="#64748b" cx="1652.26" cy="-162" rx="31.4" ry="18"/>
<text text-anchor="middle" x="1652.26" y="-159.5" font-family="Times-Roman" font-size="10.00" fill="#64748b">nodexp</text>
</g>
<!-- node&#45;addon&#45;api&#45;&gt;nodexp -->
<g id="edge35" class="edge">
<title>node&#45;addon&#45;api&#45;&gt;nodexp</title>
<path fill="none" stroke="#64748b" d="M1652.26,-215.7C1652.26,-207.98 1652.26,-198.71 1652.26,-190.11"/>
<polygon fill="#64748b" stroke="#64748b" points="1655.76,-190.1 1652.26,-180.1 1648.76,-190.1 1655.76,-190.1"/>
</g>
<!-- protobuf -->
<g id="node41" class="node">
<title>protobuf</title>
<ellipse fill="none" stroke="#64748b" cx="578.26" cy="-162" rx="34.29" ry="18"/>
<text text-anchor="middle" x="578.26" y="-159.5" font-family="Times-Roman" font-size="10.00" fill="#64748b">protobuf</text>
</g>
<!-- protobuf&#45;&gt;zlib -->
<g id="edge39" class="edge">
<title>protobuf&#45;&gt;zlib</title>
<path fill="none" stroke="#64748b" d="M578.26,-143.7C578.26,-135.98 578.26,-126.71 578.26,-118.11"/>
<polygon fill="#64748b" stroke="#64748b" points="581.76,-118.1 578.26,-108.1 574.76,-118.1 581.76,-118.1"/>
</g>
<!-- rapidjson -->
<g id="node42" class="node">
<title>rapidjson</title>
<ellipse fill="none" stroke="#64748b" cx="906.26" cy="-162" rx="36.49" ry="18"/>
<text text-anchor="middle" x="906.26" y="-159.5" font-family="Times-Roman" font-size="10.00" fill="#64748b">rapidjson</text>
</g>
<!-- rapidjson&#45;&gt;googletest -->
<g id="edge40" class="edge">
<title>rapidjson&#45;&gt;googletest</title>
<path fill="none" stroke="#64748b" stroke-dasharray="5,2" d="M906.26,-143.7C906.26,-135.98 906.26,-126.71 906.26,-118.11"/>
<polygon fill="#64748b" stroke="#64748b" points="909.76,-118.1 906.26,-108.1 902.76,-118.1 909.76,-118.1"/>
</g>
<!-- spatialite&#45;tools -->
<g id="node43" class="node">
<title>spatialite&#45;tools</title>
<ellipse fill="none" stroke="#64748b" cx="1267.26" cy="-234" rx="52.96" ry="18"/>
<text text-anchor="middle" x="1267.26" y="-231.5" font-family="Times-Roman" font-size="10.00" fill="#64748b">spatialite&#45;tools</text>
</g>
<!-- spatialite&#45;tools&#45;&gt;libspatialite -->
<g id="edge41" class="edge">
<title>spatialite&#45;tools&#45;&gt;libspatialite</title>
<path fill="none" stroke="#64748b" stroke-dasharray="5,2" d="M1264.05,-215.7C1262.62,-207.98 1260.9,-198.71 1259.3,-190.11"/>
<polygon fill="#64748b" stroke="#64748b" points="1262.71,-189.3 1257.44,-180.1 1255.82,-190.58 1262.71,-189.3"/>
</g>
<!-- spatialite&#45;tools&#45;&gt;libiconv -->
<g id="edge42" class="edge">
<title>spatialite&#45;tools&#45;&gt;libiconv</title>
<path fill="none" stroke="#64748b" stroke-dasharray="5,2" d="M1282.25,-216.36C1290.57,-206.4 1300.57,-193.15 1307.26,-180 1317.3,-160.27 1324.33,-136.15 1328.69,-118"/>
<polygon fill="#64748b" stroke="#64748b" points="1332.15,-118.6 1330.96,-108.08 1325.32,-117.05 1332.15,-118.6"/>
</g>
<!-- spdlog -->
<g id="node44" class="node">
<title>spdlog</title>
<ellipse fill="none" stroke="#64748b" cx="1101.26" cy="-90" rx="28.69" ry="18"/>
<text text-anchor="middle" x="1101.26" y="-87.5" font-family="Times-Roman" font-size="10.00" fill="#64748b">spdlog</text>
</g>
<!-- spdlog&#45;&gt;Threads -->
<g id="edge43" class="edge">
<title>spdlog&#45;&gt;Threads</title>
<path fill="none" stroke="#64748b" d="M1079.07,-78.12C1073.96,-75.88 1068.49,-73.69 1063.26,-72 990.58,-48.43 902.66,-32.77 851.92,-24.92"/>
<polygon fill="#64748b" stroke="#64748b" points="852.4,-21.45 841.99,-23.41 851.35,-28.37 852.4,-21.45"/>
</g>
<!-- fmt -->
<g id="node45" class="node">
<title>fmt</title>
<ellipse fill="none" stroke="#64748b" cx="1101.26" cy="-18" rx="27" ry="18"/>
<text text-anchor="middle" x="1101.26" y="-15.5" font-family="Times-Roman" font-size="10.00" fill="#64748b">fmt</text>
</g>
<!-- spdlog&#45;&gt;fmt -->
<g id="edge44" class="edge">
<title>spdlog&#45;&gt;fmt</title>
<path fill="none" stroke="#64748b" d="M1101.26,-71.7C1101.26,-63.98 1101.26,-54.71 1101.26,-46.11"/>
<polygon fill="#64748b" stroke="#64748b" points="1104.76,-46.1 1101.26,-36.1 1097.76,-46.1 1104.76,-46.1"/>
</g>
<!-- wxInclude -->
<g id="node46" class="node">
<title>wxInclude</title>
<ellipse fill="none" stroke="#64748b" cx="655.26" cy="-234" rx="38.7" ry="18"/>
<text text-anchor="middle" x="655.26" y="-231.5" font-family="Times-Roman" font-size="10.00" fill="#64748b">wxInclude</text>
</g>
<!-- wxInclude&#45;&gt;boost -->
<g id="edge45" class="edge">
<title>wxInclude&#45;&gt;boost</title>
<path fill="none" stroke="#64748b" stroke-dasharray="5,2" d="M655.76,-215.7C655.98,-207.98 656.24,-198.71 656.49,-190.11"/>
<polygon fill="#64748b" stroke="#64748b" points="659.99,-190.2 656.77,-180.1 652.99,-190 659.99,-190.2"/>
</g>
<!-- wxTetris -->
<g id="node47" class="node">
<title>wxTetris</title>
<ellipse fill="none" stroke="#64748b" cx="1473.26" cy="-234" rx="33.61" ry="18"/>
<text text-anchor="middle" x="1473.26" y="-231.5" font-family="Times-Roman" font-size="10.00" fill="#64748b">wxTetris</text>
</g>
<!-- wxTetris&#45;&gt;wxWidgets -->
<g id="edge46" class="edge">
<title>wxTetris&#45;&gt;wxWidgets</title>
<path fill="none" stroke="#64748b" stroke-dasharray="5,2" d="M1473.26,-215.7C1473.26,-207.98 1473.26,-198.71 1473.26,-190.11"/>
<polygon fill="#64748b" stroke="#64748b" points="1476.76,-190.1 1473.26,-180.1 1469.76,-190.1 1476.76,-190.1"/>
</g>
<!-- wxx -->
<g id="node48" class="node">
<title>wxx</title>
<ellipse fill="none" stroke="#64748b" cx="1552.26" cy="-234" rx="27" ry="18"/>
<text text-anchor="middle" x="1552.26" y="-231.5" font-family="Times-Roman" font-size="10.00" fill="#64748b">wxx</text>
</g>
<!-- wxx&#45;&gt;wxWidgets -->
<g id="edge48" class="edge">
<title>wxx&#45;&gt;wxWidgets</title>
<path fill="none" stroke="#64748b" d="M1536.66,-219.17C1525.71,-209.47 1510.84,-196.29 1498.25,-185.14"/>
<polygon fill="#64748b" stroke="#64748b" points="1500.57,-182.52 1490.76,-178.51 1495.93,-187.76 1500.57,-182.52"/>
</g>
<!-- zmqpp -->
<g id="node49" class="node">
<title>zmqpp</title>
<ellipse fill="none" stroke="#64748b" cx="896.26" cy="-234" rx="29.37" ry="18"/>
<text text-anchor="middle" x="896.26" y="-231.5" font-family="Times-Roman" font-size="10.00" fill="#64748b">zmqpp</text>
</g>
<!-- zmqpp&#45;&gt;libzmq -->
<g id="edge49" class="edge">
<title>zmqpp&#45;&gt;libzmq</title>
<path fill="none" stroke="#64748b" d="M879.67,-218.83C867.89,-208.78 851.88,-195.11 838.65,-183.82"/>
<polygon fill="#64748b" stroke="#64748b" points="840.71,-180.98 830.83,-177.14 836.17,-186.3 840.71,-180.98"/>
</g>
</g>
</svg>
