<?xml version="1.0" encoding="UTF-8" standalone="no"?>
<!DOCTYPE svg PUBLIC "-//W3C//DTD SVG 1.1//EN"
 "http://www.w3.org/Graphics/SVG/1.1/DTD/svg11.dtd">
<!-- Generated by graphviz version 2.44.0 (0)
 -->
<!-- Title: GG Pages: 1 -->
<svg width="1818pt" height="260pt"
 viewBox="0.00 0.00 1818.01 260.00" xmlns="http://www.w3.org/2000/svg" xmlns:xlink="http://www.w3.org/1999/xlink">
<g id="graph0" class="graph" transform="scale(1 1) rotate(0) translate(4 256)">
<title>GG</title>
<!-- FFmpeg -->
<g id="node1" class="node">
<title>FFmpeg</title>
<ellipse fill="none" stroke="#64748b" cx="49.26" cy="-162" rx="32.93" ry="18"/>
<text text-anchor="middle" x="49.26" y="-159.5" font-family="Times-Roman" font-size="10.00" fill="#64748b">FFmpeg</text>
</g>
<!-- openh264 -->
<g id="node2" class="node">
<title>openh264</title>
<ellipse fill="none" stroke="#64748b" cx="38.26" cy="-90" rx="38.03" ry="18"/>
<text text-anchor="middle" x="38.26" y="-87.5" font-family="Times-Roman" font-size="10.00" fill="#64748b">openh264</text>
</g>
<!-- FFmpeg&#45;&gt;openh264 -->
<g id="edge1" class="edge">
<title>FFmpeg&#45;&gt;openh264</title>
<path fill="none" stroke="#64748b" d="M46.6,-144.05C45.39,-136.35 43.92,-127.03 42.56,-118.36"/>
<polygon fill="#64748b" stroke="#64748b" points="45.99,-117.61 40.98,-108.28 39.07,-118.7 45.99,-117.61"/>
</g>
<!-- yasm -->
<g id="node3" class="node">
<title>yasm</title>
<ellipse fill="none" stroke="#64748b" cx="104.26" cy="-18" rx="27" ry="18"/>
<text text-anchor="middle" x="104.26" y="-15.5" font-family="Times-Roman" font-size="10.00" fill="#64748b">yasm</text>
</g>
<!-- FFmpeg&#45;&gt;yasm -->
<g id="edge2" class="edge">
<title>FFmpeg&#45;&gt;yasm</title>
<path fill="none" stroke="#64748b" stroke-dasharray="5,2" d="M62.36,-145.25C70.11,-135.17 79.5,-121.5 85.26,-108 93.73,-88.17 98.57,-64.2 101.24,-46.13"/>
<polygon fill="#64748b" stroke="#64748b" points="104.74,-46.37 102.61,-35.99 97.8,-45.43 104.74,-46.37"/>
</g>
<!-- openh264&#45;&gt;yasm -->
<g id="edge34" class="edge">
<title>openh264&#45;&gt;yasm</title>
<path fill="none" stroke="#64748b" stroke-dasharray="5,2" d="M53.24,-73.12C62.09,-63.73 73.43,-51.7 83.18,-41.36"/>
<polygon fill="#64748b" stroke="#64748b" points="85.93,-43.54 90.25,-33.86 80.84,-38.74 85.93,-43.54"/>
</g>
<!-- LuaBridge -->
<g id="node4" class="node">
<title>LuaBridge</title>
<ellipse fill="none" stroke="#64748b" cx="1217.26" cy="-234" rx="38.03" ry="18"/>
<text text-anchor="middle" x="1217.26" y="-231.5" font-family="Times-Roman" font-size="10.00" fill="#64748b">LuaBridge</text>
</g>
<!-- lua -->
<g id="node5" class="node">
<title>lua</title>
<ellipse fill="none" stroke="#64748b" cx="1217.26" cy="-162" rx="27" ry="18"/>
<text text-anchor="middle" x="1217.26" y="-159.5" font-family="Times-Roman" font-size="10.00" fill="#64748b">lua</text>
</g>
<!-- LuaBridge&#45;&gt;lua -->
<g id="edge3" class="edge">
<title>LuaBridge&#45;&gt;lua</title>
<path fill="none" stroke="#64748b" d="M1217.26,-215.7C1217.26,-207.98 1217.26,-198.71 1217.26,-190.11"/>
<polygon fill="#64748b" stroke="#64748b" points="1220.76,-190.1 1217.26,-180.1 1213.76,-190.1 1220.76,-190.1"/>
</g>
<!-- activemq&#45;cpp -->
<g id="node6" class="node">
<title>activemq&#45;cpp</title>
<ellipse fill="none" stroke="#64748b" cx="159.26" cy="-162" rx="48.72" ry="18"/>
<text text-anchor="middle" x="159.26" y="-159.5" font-family="Times-Roman" font-size="10.00" fill="#64748b">activemq&#45;cpp</text>
</g>
<!-- apr -->
<g id="node7" class="node">
<title>apr</title>
<ellipse fill="none" stroke="#64748b" cx="159.26" cy="-90" rx="27" ry="18"/>
<text text-anchor="middle" x="159.26" y="-87.5" font-family="Times-Roman" font-size="10.00" fill="#64748b">apr</text>
</g>
<!-- activemq&#45;cpp&#45;&gt;apr -->
<g id="edge4" class="edge">
<title>activemq&#45;cpp&#45;&gt;apr</title>
<path fill="none" stroke="#64748b" d="M159.26,-143.7C159.26,-135.98 159.26,-126.71 159.26,-118.11"/>
<polygon fill="#64748b" stroke="#64748b" points="162.76,-118.1 159.26,-108.1 155.76,-118.1 162.76,-118.1"/>
</g>
<!-- openssl -->
<g id="node8" class="node">
<title>openssl</title>
<ellipse fill="none" stroke="#64748b" cx="236.26" cy="-90" rx="31.58" ry="18"/>
<text text-anchor="middle" x="236.26" y="-87.5" font-family="Times-Roman" font-size="10.00" fill="#64748b">openssl</text>
</g>
<!-- activemq&#45;cpp&#45;&gt;openssl -->
<g id="edge5" class="edge">
<title>activemq&#45;cpp&#45;&gt;openssl</title>
<path fill="none" stroke="#64748b" d="M176.74,-145.12C187.33,-135.48 201,-123.06 212.57,-112.54"/>
<polygon fill="#64748b" stroke="#64748b" points="215.13,-114.94 220.17,-105.63 210.42,-109.76 215.13,-114.94"/>
</g>
<!-- openssl&#45;&gt;yasm -->
<g id="edge36" class="edge">
<title>openssl&#45;&gt;yasm</title>
<path fill="none" stroke="#64748b" stroke-dasharray="5,2" d="M213.87,-77.13C191.92,-65.49 158.33,-47.67 134.12,-34.83"/>
<polygon fill="#64748b" stroke="#64748b" points="135.5,-31.6 125.02,-30.01 132.22,-37.79 135.5,-31.6"/>
</g>
<!-- nasm -->
<g id="node40" class="node">
<title>nasm</title>
<ellipse fill="none" stroke="#64748b" cx="236.26" cy="-18" rx="27" ry="18"/>
<text text-anchor="middle" x="236.26" y="-15.5" font-family="Times-Roman" font-size="10.00" fill="#64748b">nasm</text>
</g>
<!-- openssl&#45;&gt;nasm -->
<g id="edge35" class="edge">
<title>openssl&#45;&gt;nasm</title>
<path fill="none" stroke="#64748b" stroke-dasharray="5,2" d="M236.26,-71.7C236.26,-63.98 236.26,-54.71 236.26,-46.11"/>
<polygon fill="#64748b" stroke="#64748b" points="239.76,-46.1 236.26,-36.1 232.76,-46.1 239.76,-46.1"/>
</g>
<!-- argon2 -->
<g id="node9" class="node">
<title>argon2</title>
<ellipse fill="none" stroke="#64748b" cx="809.26" cy="-90" rx="29.37" ry="18"/>
<text text-anchor="middle" x="809.26" y="-87.5" font-family="Times-Roman" font-size="10.00" fill="#64748b">argon2</text>
</g>
<!-- Threads -->
<g id="node10" class="node">
<title>Threads</title>
<ellipse fill="none" stroke="#64748b" cx="809.26" cy="-18" rx="32.93" ry="18"/>
<text text-anchor="middle" x="809.26" y="-15.5" font-family="Times-Roman" font-size="10.00" fill="#64748b">Threads</text>
</g>
<!-- argon2&#45;&gt;Threads -->
<g id="edge6" class="edge">
<title>argon2&#45;&gt;Threads</title>
<path fill="none" stroke="#64748b" d="M809.26,-71.7C809.26,-63.98 809.26,-54.71 809.26,-46.11"/>
<polygon fill="#64748b" stroke="#64748b" points="812.76,-46.1 809.26,-36.1 805.76,-46.1 812.76,-46.1"/>
</g>
<!-- azmq -->
<g id="node11" class="node">
<title>azmq</title>
<ellipse fill="none" stroke="#64748b" cx="825.26" cy="-234" rx="27" ry="18"/>
<text text-anchor="middle" x="825.26" y="-231.5" font-family="Times-Roman" font-size="10.00" fill="#64748b">azmq</text>
</g>
<!-- boost -->
<g id="node12" class="node">
<title>boost</title>
<ellipse fill="none" stroke="#64748b" cx="748.26" cy="-162" rx="27" ry="18"/>
<text text-anchor="middle" x="748.26" y="-159.5" font-family="Times-Roman" font-size="10.00" fill="#64748b">boost</text>
</g>
<!-- azmq&#45;&gt;boost -->
<g id="edge7" class="edge">
<title>azmq&#45;&gt;boost</title>
<path fill="none" stroke="#64748b" d="M809.68,-218.83C798.65,-208.81 783.67,-195.19 771.27,-183.92"/>
<polygon fill="#64748b" stroke="#64748b" points="773.31,-181.04 763.56,-176.91 768.6,-186.22 773.31,-181.04"/>
</g>
<!-- libzmq -->
<g id="node13" class="node">
<title>libzmq</title>
<ellipse fill="none" stroke="#64748b" cx="896.26" cy="-162" rx="29.37" ry="18"/>
<text text-anchor="middle" x="896.26" y="-159.5" font-family="Times-Roman" font-size="10.00" fill="#64748b">libzmq</text>
</g>
<!-- azmq&#45;&gt;libzmq -->
<g id="edge8" class="edge">
<title>azmq&#45;&gt;libzmq</title>
<path fill="none" stroke="#64748b" d="M839.97,-218.5C849.74,-208.86 862.75,-196.04 873.81,-185.14"/>
<polygon fill="#64748b" stroke="#64748b" points="876.42,-187.48 881.08,-177.97 871.5,-182.5 876.42,-187.48"/>
</g>
<!-- bzip2 -->
<g id="node14" class="node">
<title>bzip2</title>
<ellipse fill="none" stroke="#64748b" cx="735.26" cy="-90" rx="27" ry="18"/>
<text text-anchor="middle" x="735.26" y="-87.5" font-family="Times-Roman" font-size="10.00" fill="#64748b">bzip2</text>
</g>
<!-- boost&#45;&gt;bzip2 -->
<g id="edge9" class="edge">
<title>boost&#45;&gt;bzip2</title>
<path fill="none" stroke="#64748b" d="M745.12,-144.05C743.68,-136.35 741.95,-127.03 740.35,-118.36"/>
<polygon fill="#64748b" stroke="#64748b" points="743.74,-117.47 738.47,-108.28 736.86,-118.75 743.74,-117.47"/>
</g>
<!-- zlib -->
<g id="node15" class="node">
<title>zlib</title>
<ellipse fill="none" stroke="#64748b" cx="663.26" cy="-90" rx="27" ry="18"/>
<text text-anchor="middle" x="663.26" y="-87.5" font-family="Times-Roman" font-size="10.00" fill="#64748b">zlib</text>
</g>
<!-- boost&#45;&gt;zlib -->
<g id="edge10" class="edge">
<title>boost&#45;&gt;zlib</title>
<path fill="none" stroke="#64748b" d="M731.87,-147.5C719.29,-137.14 701.72,-122.67 687.52,-110.97"/>
<polygon fill="#64748b" stroke="#64748b" points="689.55,-108.11 679.6,-104.46 685.1,-113.51 689.55,-108.11"/>
</g>
<!-- libsodium -->
<g id="node32" class="node">
<title>libsodium</title>
<ellipse fill="none" stroke="#64748b" cx="895.26" cy="-90" rx="38.03" ry="18"/>
<text text-anchor="middle" x="895.26" y="-87.5" font-family="Times-Roman" font-size="10.00" fill="#64748b">libsodium</text>
</g>
<!-- libzmq&#45;&gt;libsodium -->
<g id="edge32" class="edge">
<title>libzmq&#45;&gt;libsodium</title>
<path fill="none" stroke="#64748b" d="M896.02,-143.7C895.91,-135.98 895.77,-126.71 895.65,-118.11"/>
<polygon fill="#64748b" stroke="#64748b" points="899.15,-118.05 895.51,-108.1 892.15,-118.15 899.15,-118.05"/>
</g>
<!-- ceres&#45;solver -->
<g id="node16" class="node">
<title>ceres&#45;solver</title>
<ellipse fill="none" stroke="#64748b" cx="1319.26" cy="-234" rx="45.15" ry="18"/>
<text text-anchor="middle" x="1319.26" y="-231.5" font-family="Times-Roman" font-size="10.00" fill="#64748b">ceres&#45;solver</text>
</g>
<!-- eigen -->
<g id="node17" class="node">
<title>eigen</title>
<ellipse fill="none" stroke="#64748b" cx="1319.26" cy="-162" rx="27" ry="18"/>
<text text-anchor="middle" x="1319.26" y="-159.5" font-family="Times-Roman" font-size="10.00" fill="#64748b">eigen</text>
</g>
<!-- ceres&#45;solver&#45;&gt;eigen -->
<g id="edge11" class="edge">
<title>ceres&#45;solver&#45;&gt;eigen</title>
<path fill="none" stroke="#64748b" d="M1319.26,-215.7C1319.26,-207.98 1319.26,-198.71 1319.26,-190.11"/>
<polygon fill="#64748b" stroke="#64748b" points="1322.76,-190.1 1319.26,-180.1 1315.76,-190.1 1322.76,-190.1"/>
</g>
<!-- cppzmq -->
<g id="node18" class="node">
<title>cppzmq</title>
<ellipse fill="none" stroke="#64748b" cx="902.26" cy="-234" rx="32.25" ry="18"/>
<text text-anchor="middle" x="902.26" y="-231.5" font-family="Times-Roman" font-size="10.00" fill="#64748b">cppzmq</text>
</g>
<!-- cppzmq&#45;&gt;libzmq -->
<g id="edge12" class="edge">
<title>cppzmq&#45;&gt;libzmq</title>
<path fill="none" stroke="#64748b" d="M900.78,-215.7C900.12,-207.98 899.32,-198.71 898.59,-190.11"/>
<polygon fill="#64748b" stroke="#64748b" points="902.07,-189.77 897.73,-180.1 895.1,-190.37 902.07,-189.77"/>
</g>
<!-- curl -->
<g id="node19" class="node">
<title>curl</title>
<ellipse fill="none" stroke="#64748b" cx="441.26" cy="-234" rx="27" ry="18"/>
<text text-anchor="middle" x="441.26" y="-231.5" font-family="Times-Roman" font-size="10.00" fill="#64748b">curl</text>
</g>
<!-- c&#45;ares -->
<g id="node20" class="node">
<title>c&#45;ares</title>
<ellipse fill="none" stroke="#64748b" cx="439.26" cy="-162" rx="27.84" ry="18"/>
<text text-anchor="middle" x="439.26" y="-159.5" font-family="Times-Roman" font-size="10.00" fill="#64748b">c&#45;ares</text>
</g>
<!-- curl&#45;&gt;c&#45;ares -->
<g id="edge13" class="edge">
<title>curl&#45;&gt;c&#45;ares</title>
<path fill="none" stroke="#64748b" d="M440.77,-215.7C440.55,-207.98 440.28,-198.71 440.04,-190.11"/>
<polygon fill="#64748b" stroke="#64748b" points="443.54,-190 439.75,-180.1 436.54,-190.2 443.54,-190"/>
</g>
<!-- libssh2 -->
<g id="node21" class="node">
<title>libssh2</title>
<ellipse fill="none" stroke="#64748b" cx="515.26" cy="-162" rx="30.04" ry="18"/>
<text text-anchor="middle" x="515.26" y="-159.5" font-family="Times-Roman" font-size="10.00" fill="#64748b">libssh2</text>
</g>
<!-- curl&#45;&gt;libssh2 -->
<g id="edge14" class="edge">
<title>curl&#45;&gt;libssh2</title>
<path fill="none" stroke="#64748b" d="M456.24,-218.83C466.63,-209 480.67,-195.72 492.45,-184.58"/>
<polygon fill="#64748b" stroke="#64748b" points="494.94,-187.04 499.8,-177.63 490.13,-181.96 494.94,-187.04"/>
</g>
<!-- libssh2&#45;&gt;openssl -->
<g id="edge28" class="edge">
<title>libssh2&#45;&gt;openssl</title>
<path fill="none" stroke="#64748b" d="M492.5,-150.03C487.25,-147.79 481.63,-145.63 476.26,-144 390.27,-117.87 363.49,-133.36 277.26,-108 274.81,-107.28 272.29,-106.46 269.78,-105.57"/>
<polygon fill="#64748b" stroke="#64748b" points="270.83,-102.22 260.24,-101.94 268.34,-108.77 270.83,-102.22"/>
</g>
<!-- libssh2&#45;&gt;zlib -->
<g id="edge29" class="edge">
<title>libssh2&#45;&gt;zlib</title>
<path fill="none" stroke="#64748b" d="M538.06,-150.22C563.31,-138.28 604.13,-118.97 632.27,-105.66"/>
<polygon fill="#64748b" stroke="#64748b" points="634.1,-108.67 641.64,-101.23 631.1,-102.34 634.1,-108.67"/>
</g>
<!-- fecpp -->
<g id="node22" class="node">
<title>fecpp</title>
<ellipse fill="none" stroke="#64748b" cx="657.26" cy="-234" rx="27" ry="18"/>
<text text-anchor="middle" x="657.26" y="-231.5" font-family="Times-Roman" font-size="10.00" fill="#64748b">fecpp</text>
</g>
<!-- fecpp&#45;&gt;boost -->
<g id="edge15" class="edge">
<title>fecpp&#45;&gt;boost</title>
<path fill="none" stroke="#64748b" stroke-dasharray="5,2" d="M674.38,-219.83C688.11,-209.27 707.57,-194.3 723.08,-182.37"/>
<polygon fill="#64748b" stroke="#64748b" points="725.43,-184.98 731.22,-176.11 721.16,-179.43 725.43,-184.98"/>
</g>
<!-- glew -->
<g id="node23" class="node">
<title>glew</title>
<ellipse fill="none" stroke="#64748b" cx="1409.26" cy="-234" rx="27" ry="18"/>
<text text-anchor="middle" x="1409.26" y="-231.5" font-family="Times-Roman" font-size="10.00" fill="#64748b">glew</text>
</g>
<!-- OpenGL -->
<g id="node24" class="node">
<title>OpenGL</title>
<ellipse fill="none" stroke="#64748b" cx="1409.26" cy="-162" rx="32.25" ry="18"/>
<text text-anchor="middle" x="1409.26" y="-159.5" font-family="Times-Roman" font-size="10.00" fill="#64748b">OpenGL</text>
</g>
<!-- glew&#45;&gt;OpenGL -->
<g id="edge16" class="edge">
<title>glew&#45;&gt;OpenGL</title>
<path fill="none" stroke="#64748b" d="M1409.26,-215.7C1409.26,-207.98 1409.26,-198.71 1409.26,-190.11"/>
<polygon fill="#64748b" stroke="#64748b" points="1412.76,-190.1 1409.26,-180.1 1405.76,-190.1 1412.76,-190.1"/>
</g>
<!-- googletest -->
<g id="node25" class="node">
<title>googletest</title>
<ellipse fill="none" stroke="#64748b" cx="472.26" cy="-90" rx="40.06" ry="18"/>
<text text-anchor="middle" x="472.26" y="-87.5" font-family="Times-Roman" font-size="10.00" fill="#64748b">googletest</text>
</g>
<!-- googletest&#45;&gt;Threads -->
<g id="edge17" class="edge">
<title>googletest&#45;&gt;Threads</title>
<path fill="none" stroke="#64748b" d="M508.01,-81.58C571.2,-68.45 702.23,-41.23 768.7,-27.43"/>
<polygon fill="#64748b" stroke="#64748b" points="769.72,-30.79 778.8,-25.33 768.29,-23.94 769.72,-30.79"/>
</g>
<!-- hdf5 -->
<g id="node26" class="node">
<title>hdf5</title>
<ellipse fill="none" stroke="#64748b" cx="590.26" cy="-162" rx="27" ry="18"/>
<text text-anchor="middle" x="590.26" y="-159.5" font-family="Times-Roman" font-size="10.00" fill="#64748b">hdf5</text>
</g>
<!-- hdf5&#45;&gt;Threads -->
<g id="edge18" class="edge">
<title>hdf5&#45;&gt;Threads</title>
<path fill="none" stroke="#64748b" d="M592.81,-144.04C596.71,-123.99 606.07,-90.97 627.26,-72 665.84,-37.47 725.73,-25.37 766.17,-21.16"/>
<polygon fill="#64748b" stroke="#64748b" points="766.62,-24.64 776.26,-20.24 765.98,-17.67 766.62,-24.64"/>
</g>
<!-- hdf5&#45;&gt;zlib -->
<g id="edge19" class="edge">
<title>hdf5&#45;&gt;zlib</title>
<path fill="none" stroke="#64748b" d="M605.04,-146.83C615.43,-136.87 629.51,-123.37 641.22,-112.14"/>
<polygon fill="#64748b" stroke="#64748b" points="643.72,-114.59 648.51,-105.14 638.87,-109.54 643.72,-114.59"/>
</g>
<!-- libgeotiff -->
<g id="node27" class="node">
<title>libgeotiff</title>
<ellipse fill="none" stroke="#64748b" cx="1489.26" cy="-234" rx="35.14" ry="18"/>
<text text-anchor="middle" x="1489.26" y="-231.5" font-family="Times-Roman" font-size="10.00" fill="#64748b">libgeotiff</text>
</g>
<!-- wxwidgets -->
<g id="node28" class="node">
<title>wxwidgets</title>
<ellipse fill="none" stroke="#64748b" cx="1576.26" cy="-162" rx="40.74" ry="18"/>
<text text-anchor="middle" x="1576.26" y="-159.5" font-family="Times-Roman" font-size="10.00" fill="#64748b">wxwidgets</text>
</g>
<!-- libgeotiff&#45;&gt;wxwidgets -->
<g id="edge20" class="edge">
<title>libgeotiff&#45;&gt;wxwidgets</title>
<path fill="none" stroke="#64748b" d="M1507.29,-218.5C1519.41,-208.75 1535.6,-195.72 1549.25,-184.74"/>
<polygon fill="#64748b" stroke="#64748b" points="1551.76,-187.21 1557.36,-178.21 1547.37,-181.75 1551.76,-187.21"/>
</g>
<!-- libgit2 -->
<g id="node29" class="node">
<title>libgit2</title>
<ellipse fill="none" stroke="#64748b" cx="515.26" cy="-234" rx="27.84" ry="18"/>
<text text-anchor="middle" x="515.26" y="-231.5" font-family="Times-Roman" font-size="10.00" fill="#64748b">libgit2</text>
</g>
<!-- libgit2&#45;&gt;libssh2 -->
<g id="edge21" class="edge">
<title>libgit2&#45;&gt;libssh2</title>
<path fill="none" stroke="#64748b" d="M515.26,-215.7C515.26,-207.98 515.26,-198.71 515.26,-190.11"/>
<polygon fill="#64748b" stroke="#64748b" points="518.76,-190.1 515.26,-180.1 511.76,-190.1 518.76,-190.1"/>
</g>
<!-- librttopo -->
<g id="node30" class="node">
<title>librttopo</title>
<ellipse fill="none" stroke="#64748b" cx="978.26" cy="-162" rx="34.29" ry="18"/>
<text text-anchor="middle" x="978.26" y="-159.5" font-family="Times-Roman" font-size="10.00" fill="#64748b">librttopo</text>
</g>
<!-- geos -->
<g id="node31" class="node">
<title>geos</title>
<ellipse fill="none" stroke="#64748b" cx="978.26" cy="-90" rx="27" ry="18"/>
<text text-anchor="middle" x="978.26" y="-87.5" font-family="Times-Roman" font-size="10.00" fill="#64748b">geos</text>
</g>
<!-- librttopo&#45;&gt;geos -->
<g id="edge22" class="edge">
<title>librttopo&#45;&gt;geos</title>
<path fill="none" stroke="#64748b" d="M978.26,-143.7C978.26,-135.98 978.26,-126.71 978.26,-118.11"/>
<polygon fill="#64748b" stroke="#64748b" points="981.76,-118.1 978.26,-108.1 974.76,-118.1 981.76,-118.1"/>
</g>
<!-- libsodium&#45;&gt;Threads -->
<g id="edge23" class="edge">
<title>libsodium&#45;&gt;Threads</title>
<path fill="none" stroke="#64748b" d="M877.02,-74.15C864.78,-64.18 848.46,-50.9 834.91,-39.87"/>
<polygon fill="#64748b" stroke="#64748b" points="836.85,-36.94 826.89,-33.35 832.43,-42.37 836.85,-36.94"/>
</g>
<!-- libspatialite -->
<g id="node33" class="node">
<title>libspatialite</title>
<ellipse fill="none" stroke="#64748b" cx="1108.26" cy="-162" rx="43.62" ry="18"/>
<text text-anchor="middle" x="1108.26" y="-159.5" font-family="Times-Roman" font-size="10.00" fill="#64748b">libspatialite</text>
</g>
<!-- libspatialite&#45;&gt;zlib -->
<g id="edge27" class="edge">
<title>libspatialite&#45;&gt;zlib</title>
<path fill="none" stroke="#64748b" d="M1070.27,-152.88C1055.08,-149.81 1037.39,-146.47 1021.26,-144 878.92,-122.17 837.81,-147.28 699.26,-108 697.32,-107.45 695.35,-106.8 693.38,-106.09"/>
<polygon fill="#64748b" stroke="#64748b" points="694.33,-102.69 683.75,-102.09 691.65,-109.16 694.33,-102.69"/>
</g>
<!-- libspatialite&#45;&gt;geos -->
<g id="edge24" class="edge">
<title>libspatialite&#45;&gt;geos</title>
<path fill="none" stroke="#64748b" d="M1082.89,-147.34C1061.33,-135.73 1030.36,-119.05 1007.71,-106.86"/>
<polygon fill="#64748b" stroke="#64748b" points="1009.33,-103.75 998.87,-102.1 1006.01,-109.92 1009.33,-103.75"/>
</g>
<!-- libiconv -->
<g id="node34" class="node">
<title>libiconv</title>
<ellipse fill="none" stroke="#64748b" cx="1208.26" cy="-90" rx="32.25" ry="18"/>
<text text-anchor="middle" x="1208.26" y="-87.5" font-family="Times-Roman" font-size="10.00" fill="#64748b">libiconv</text>
</g>
<!-- libspatialite&#45;&gt;libiconv -->
<g id="edge25" class="edge">
<title>libspatialite&#45;&gt;libiconv</title>
<path fill="none" stroke="#64748b" d="M1129.47,-146.15C1144.27,-135.79 1164.18,-121.86 1180.28,-110.58"/>
<polygon fill="#64748b" stroke="#64748b" points="1182.6,-113.24 1188.78,-104.64 1178.58,-107.5 1182.6,-113.24"/>
</g>
<!-- sqlite3 -->
<g id="node35" class="node">
<title>sqlite3</title>
<ellipse fill="none" stroke="#64748b" cx="1128.26" cy="-90" rx="29.37" ry="18"/>
<text text-anchor="middle" x="1128.26" y="-87.5" font-family="Times-Roman" font-size="10.00" fill="#64748b">sqlite3</text>
</g>
<!-- libspatialite&#45;&gt;sqlite3 -->
<g id="edge26" class="edge">
<title>libspatialite&#45;&gt;sqlite3</title>
<path fill="none" stroke="#64748b" d="M1113.1,-144.05C1115.36,-136.14 1118.11,-126.54 1120.64,-117.69"/>
<polygon fill="#64748b" stroke="#64748b" points="1124.08,-118.37 1123.47,-107.79 1117.35,-116.44 1124.08,-118.37"/>
</g>
<!-- libstrophe -->
<g id="node36" class="node">
<title>libstrophe</title>
<ellipse fill="none" stroke="#64748b" cx="264.26" cy="-162" rx="38.03" ry="18"/>
<text text-anchor="middle" x="264.26" y="-159.5" font-family="Times-Roman" font-size="10.00" fill="#64748b">libstrophe</text>
</g>
<!-- libstrophe&#45;&gt;openssl -->
<g id="edge31" class="edge">
<title>libstrophe&#45;&gt;openssl</title>
<path fill="none" stroke="#64748b" d="M257.49,-144.05C254.25,-135.97 250.31,-126.12 246.71,-117.11"/>
<polygon fill="#64748b" stroke="#64748b" points="249.94,-115.77 242.98,-107.79 243.44,-118.37 249.94,-115.77"/>
</g>
<!-- libexpat -->
<g id="node37" class="node">
<title>libexpat</title>
<ellipse fill="none" stroke="#64748b" cx="319.26" cy="-90" rx="32.93" ry="18"/>
<text text-anchor="middle" x="319.26" y="-87.5" font-family="Times-Roman" font-size="10.00" fill="#64748b">libexpat</text>
</g>
<!-- libstrophe&#45;&gt;libexpat -->
<g id="edge30" class="edge">
<title>libstrophe&#45;&gt;libexpat</title>
<path fill="none" stroke="#64748b" d="M277.02,-144.76C283.96,-135.93 292.68,-124.83 300.4,-115.01"/>
<polygon fill="#64748b" stroke="#64748b" points="303.15,-117.17 306.58,-107.15 297.65,-112.85 303.15,-117.17"/>
</g>
<!-- node&#45;addon&#45;api -->
<g id="node38" class="node">
<title>node&#45;addon&#45;api</title>
<ellipse fill="none" stroke="#64748b" cx="1755.26" cy="-234" rx="54.99" ry="18"/>
<text text-anchor="middle" x="1755.26" y="-231.5" font-family="Times-Roman" font-size="10.00" fill="#64748b">node&#45;addon&#45;api</text>
</g>
<!-- nodexp -->
<g id="node39" class="node">
<title>nodexp</title>
<ellipse fill="none" stroke="#64748b" cx="1755.26" cy="-162" rx="31.4" ry="18"/>
<text text-anchor="middle" x="1755.26" y="-159.5" font-family="Times-Roman" font-size="10.00" fill="#64748b">nodexp</text>
</g>
<!-- node&#45;addon&#45;api&#45;&gt;nodexp -->
<g id="edge33" class="edge">
<title>node&#45;addon&#45;api&#45;&gt;nodexp</title>
<path fill="none" stroke="#64748b" d="M1755.26,-215.7C1755.26,-207.98 1755.26,-198.71 1755.26,-190.11"/>
<polygon fill="#64748b" stroke="#64748b" points="1758.76,-190.1 1755.26,-180.1 1751.76,-190.1 1758.76,-190.1"/>
</g>
<!-- protobuf -->
<g id="node41" class="node">
<title>protobuf</title>
<ellipse fill="none" stroke="#64748b" cx="669.26" cy="-162" rx="34.29" ry="18"/>
<text text-anchor="middle" x="669.26" y="-159.5" font-family="Times-Roman" font-size="10.00" fill="#64748b">protobuf</text>
</g>
<!-- protobuf&#45;&gt;zlib -->
<g id="edge37" class="edge">
<title>protobuf&#45;&gt;zlib</title>
<path fill="none" stroke="#64748b" d="M667.78,-143.7C667.12,-135.98 666.32,-126.71 665.59,-118.11"/>
<polygon fill="#64748b" stroke="#64748b" points="669.07,-117.77 664.73,-108.1 662.1,-118.37 669.07,-117.77"/>
</g>
<!-- rapidjson -->
<g id="node42" class="node">
<title>rapidjson</title>
<ellipse fill="none" stroke="#64748b" cx="357.26" cy="-162" rx="36.49" ry="18"/>
<text text-anchor="middle" x="357.26" y="-159.5" font-family="Times-Roman" font-size="10.00" fill="#64748b">rapidjson</text>
</g>
<!-- rapidjson&#45;&gt;googletest -->
<g id="edge38" class="edge">
<title>rapidjson&#45;&gt;googletest</title>
<path fill="none" stroke="#64748b" stroke-dasharray="5,2" d="M379.44,-147.5C396.79,-136.94 421.15,-122.11 440.57,-110.29"/>
<polygon fill="#64748b" stroke="#64748b" points="442.65,-113.12 449.37,-104.93 439.01,-107.14 442.65,-113.12"/>
</g>
<!-- spatialite&#45;tools -->
<g id="node43" class="node">
<title>spatialite&#45;tools</title>
<ellipse fill="none" stroke="#64748b" cx="1108.26" cy="-234" rx="52.96" ry="18"/>
<text text-anchor="middle" x="1108.26" y="-231.5" font-family="Times-Roman" font-size="10.00" fill="#64748b">spatialite&#45;tools</text>
</g>
<!-- spatialite&#45;tools&#45;&gt;libspatialite -->
<g id="edge39" class="edge">
<title>spatialite&#45;tools&#45;&gt;libspatialite</title>
<path fill="none" stroke="#64748b" stroke-dasharray="5,2" d="M1108.26,-215.7C1108.26,-207.98 1108.26,-198.71 1108.26,-190.11"/>
<polygon fill="#64748b" stroke="#64748b" points="1111.76,-190.1 1108.26,-180.1 1104.76,-190.1 1111.76,-190.1"/>
</g>
<!-- spdlog -->
<g id="node44" class="node">
<title>spdlog</title>
<ellipse fill="none" stroke="#64748b" cx="1052.26" cy="-90" rx="28.69" ry="18"/>
<text text-anchor="middle" x="1052.26" y="-87.5" font-family="Times-Roman" font-size="10.00" fill="#64748b">spdlog</text>
</g>
<!-- spdlog&#45;&gt;Threads -->
<g id="edge40" class="edge">
<title>spdlog&#45;&gt;Threads</title>
<path fill="none" stroke="#64748b" d="M1030.01,-78.3C1024.9,-76.05 1019.45,-73.82 1014.26,-72 958.17,-52.36 891.17,-36.39 849.41,-27.28"/>
<polygon fill="#64748b" stroke="#64748b" points="850.12,-23.86 839.61,-25.17 848.65,-30.7 850.12,-23.86"/>
</g>
<!-- fmt -->
<g id="node45" class="node">
<title>fmt</title>
<ellipse fill="none" stroke="#64748b" cx="1052.26" cy="-18" rx="27" ry="18"/>
<text text-anchor="middle" x="1052.26" y="-15.5" font-family="Times-Roman" font-size="10.00" fill="#64748b">fmt</text>
</g>
<!-- spdlog&#45;&gt;fmt -->
<g id="edge41" class="edge">
<title>spdlog&#45;&gt;fmt</title>
<path fill="none" stroke="#64748b" d="M1052.26,-71.7C1052.26,-63.98 1052.26,-54.71 1052.26,-46.11"/>
<polygon fill="#64748b" stroke="#64748b" points="1055.76,-46.1 1052.26,-36.1 1048.76,-46.1 1055.76,-46.1"/>
</g>
<!-- wxInclude -->
<g id="node46" class="node">
<title>wxInclude</title>
<ellipse fill="none" stroke="#64748b" cx="741.26" cy="-234" rx="38.7" ry="18"/>
<text text-anchor="middle" x="741.26" y="-231.5" font-family="Times-Roman" font-size="10.00" fill="#64748b">wxInclude</text>
</g>
<!-- wxInclude&#45;&gt;boost -->
<g id="edge42" class="edge">
<title>wxInclude&#45;&gt;boost</title>
<path fill="none" stroke="#64748b" stroke-dasharray="5,2" d="M742.99,-215.7C743.76,-207.98 744.69,-198.71 745.55,-190.11"/>
<polygon fill="#64748b" stroke="#64748b" points="749.04,-190.4 746.55,-180.1 742.07,-189.71 749.04,-190.4"/>
</g>
<!-- wxTetris -->
<g id="node47" class="node">
<title>wxTetris</title>
<ellipse fill="none" stroke="#64748b" cx="1576.26" cy="-234" rx="33.61" ry="18"/>
<text text-anchor="middle" x="1576.26" y="-231.5" font-family="Times-Roman" font-size="10.00" fill="#64748b">wxTetris</text>
</g>
<!-- wxTetris&#45;&gt;wxwidgets -->
<g id="edge43" class="edge">
<title>wxTetris&#45;&gt;wxwidgets</title>
<path fill="none" stroke="#64748b" stroke-dasharray="5,2" d="M1576.26,-215.7C1576.26,-207.98 1576.26,-198.71 1576.26,-190.11"/>
<polygon fill="#64748b" stroke="#64748b" points="1579.76,-190.1 1576.26,-180.1 1572.76,-190.1 1579.76,-190.1"/>
</g>
<!-- wxx -->
<g id="node48" class="node">
<title>wxx</title>
<ellipse fill="none" stroke="#64748b" cx="1655.26" cy="-234" rx="27" ry="18"/>
<text text-anchor="middle" x="1655.26" y="-231.5" font-family="Times-Roman" font-size="10.00" fill="#64748b">wxx</text>
</g>
<!-- wxx&#45;&gt;wxwidgets -->
<g id="edge44" class="edge">
<title>wxx&#45;&gt;wxwidgets</title>
<path fill="none" stroke="#64748b" d="M1639.66,-219.17C1628.71,-209.47 1613.84,-196.29 1601.25,-185.14"/>
<polygon fill="#64748b" stroke="#64748b" points="1603.57,-182.52 1593.76,-178.51 1598.93,-187.76 1603.57,-182.52"/>
</g>
<!-- zmqpp -->
<g id="node49" class="node">
<title>zmqpp</title>
<ellipse fill="none" stroke="#64748b" cx="982.26" cy="-234" rx="29.37" ry="18"/>
<text text-anchor="middle" x="982.26" y="-231.5" font-family="Times-Roman" font-size="10.00" fill="#64748b">zmqpp</text>
</g>
<!-- zmqpp&#45;&gt;libzmq -->
<g id="edge45" class="edge">
<title>zmqpp&#45;&gt;libzmq</title>
<path fill="none" stroke="#64748b" d="M965.27,-219.17C952.67,-208.91 935.29,-194.77 921.13,-183.24"/>
<polygon fill="#64748b" stroke="#64748b" points="923.18,-180.4 913.22,-176.8 918.76,-185.83 923.18,-180.4"/>
</g>
</g>
</svg>
