<?xml version="1.0" encoding="UTF-8" standalone="no"?>
<!DOCTYPE svg PUBLIC "-//W3C//DTD SVG 1.1//EN"
 "http://www.w3.org/Graphics/SVG/1.1/DTD/svg11.dtd">
<!-- Generated by graphviz version 14.1.2 (20260124.0452)
 -->
<!-- Title: GG Pages: 1 -->
<svg width="1551pt" height="260pt"
 viewBox="0.00 0.00 1551.00 260.00" xmlns="http://www.w3.org/2000/svg" xmlns:xlink="http://www.w3.org/1999/xlink">
<g id="graph0" class="graph" transform="scale(1 1) rotate(0) translate(4 256)">
<title>GG</title>
<!-- activemq&#45;cpp -->
<g id="node1" class="node">
<title>activemq&#45;cpp</title>
<ellipse fill="none" stroke="#64748b" cx="42.31" cy="-162" rx="42.31" ry="18"/>
<text xml:space="preserve" text-anchor="middle" x="42.31" y="-158.12" font-family="Times,serif" font-size="10.00" fill="#64748b">activemq&#45;cpp</text>
</g>
<!-- apr -->
<g id="node2" class="node">
<title>apr</title>
<ellipse fill="none" stroke="#64748b" cx="34.31" cy="-90" rx="27" ry="18"/>
<text xml:space="preserve" text-anchor="middle" x="34.31" y="-86.12" font-family="Times,serif" font-size="10.00" fill="#64748b">apr</text>
</g>
<!-- activemq&#45;cpp&#45;&gt;apr -->
<g id="edge1" class="edge">
<title>activemq&#45;cpp&#45;&gt;apr</title>
<path fill="none" stroke="#64748b" d="M40.33,-143.7C39.5,-136.41 38.5,-127.73 37.57,-119.54"/>
<polygon fill="#64748b" stroke="#64748b" points="41.05,-119.15 36.43,-109.61 34.09,-119.94 41.05,-119.15"/>
</g>
<!-- openssl -->
<g id="node3" class="node">
<title>openssl</title>
<ellipse fill="none" stroke="#64748b" cx="183.31" cy="-90" rx="27.66" ry="18"/>
<text xml:space="preserve" text-anchor="middle" x="183.31" y="-86.12" font-family="Times,serif" font-size="10.00" fill="#64748b">openssl</text>
</g>
<!-- activemq&#45;cpp&#45;&gt;openssl -->
<g id="edge2" class="edge">
<title>activemq&#45;cpp&#45;&gt;openssl</title>
<path fill="none" stroke="#64748b" d="M69.16,-147.67C92.65,-136.01 126.8,-119.05 151.62,-106.73"/>
<polygon fill="#64748b" stroke="#64748b" points="152.88,-110.01 160.28,-102.43 149.76,-103.75 152.88,-110.01"/>
</g>
<!-- yasm -->
<g id="node18" class="node">
<title>yasm</title>
<ellipse fill="none" stroke="#64748b" cx="247.31" cy="-18" rx="27" ry="18"/>
<text xml:space="preserve" text-anchor="middle" x="247.31" y="-14.12" font-family="Times,serif" font-size="10.00" fill="#64748b">yasm</text>
</g>
<!-- openssl&#45;&gt;yasm -->
<g id="edge31" class="edge">
<title>openssl&#45;&gt;yasm</title>
<path fill="none" stroke="#64748b" stroke-dasharray="5,2" d="M196.88,-74.15C205.36,-64.87 216.47,-52.73 226.1,-42.19"/>
<polygon fill="#64748b" stroke="#64748b" points="228.57,-44.68 232.73,-34.94 223.4,-39.96 228.57,-44.68"/>
</g>
<!-- nasm -->
<g id="node35" class="node">
<title>nasm</title>
<ellipse fill="none" stroke="#64748b" cx="175.31" cy="-18" rx="27" ry="18"/>
<text xml:space="preserve" text-anchor="middle" x="175.31" y="-14.12" font-family="Times,serif" font-size="10.00" fill="#64748b">nasm</text>
</g>
<!-- openssl&#45;&gt;nasm -->
<g id="edge30" class="edge">
<title>openssl&#45;&gt;nasm</title>
<path fill="none" stroke="#64748b" stroke-dasharray="5,2" d="M181.33,-71.7C180.5,-64.41 179.5,-55.73 178.57,-47.54"/>
<polygon fill="#64748b" stroke="#64748b" points="182.05,-47.15 177.43,-37.61 175.09,-47.94 182.05,-47.15"/>
</g>
<!-- azmq -->
<g id="node4" class="node">
<title>azmq</title>
<ellipse fill="none" stroke="#64748b" cx="667.31" cy="-234" rx="27" ry="18"/>
<text xml:space="preserve" text-anchor="middle" x="667.31" y="-230.12" font-family="Times,serif" font-size="10.00" fill="#64748b">azmq</text>
</g>
<!-- boost -->
<g id="node5" class="node">
<title>boost</title>
<ellipse fill="none" stroke="#64748b" cx="605.31" cy="-162" rx="27" ry="18"/>
<text xml:space="preserve" text-anchor="middle" x="605.31" y="-158.12" font-family="Times,serif" font-size="10.00" fill="#64748b">boost</text>
</g>
<!-- azmq&#45;&gt;boost -->
<g id="edge3" class="edge">
<title>azmq&#45;&gt;boost</title>
<path fill="none" stroke="#64748b" d="M654.16,-218.15C645.94,-208.87 635.18,-196.73 625.85,-186.19"/>
<polygon fill="#64748b" stroke="#64748b" points="628.69,-184.12 619.44,-178.96 623.45,-188.76 628.69,-184.12"/>
</g>
<!-- libzmq -->
<g id="node6" class="node">
<title>libzmq</title>
<ellipse fill="none" stroke="#64748b" cx="741.31" cy="-162" rx="27" ry="18"/>
<text xml:space="preserve" text-anchor="middle" x="741.31" y="-158.12" font-family="Times,serif" font-size="10.00" fill="#64748b">libzmq</text>
</g>
<!-- azmq&#45;&gt;libzmq -->
<g id="edge4" class="edge">
<title>azmq&#45;&gt;libzmq</title>
<path fill="none" stroke="#64748b" d="M682.28,-218.83C692.54,-209.13 706.36,-196.06 718.05,-185"/>
<polygon fill="#64748b" stroke="#64748b" points="720.14,-187.84 725,-178.42 715.33,-182.75 720.14,-187.84"/>
</g>
<!-- bzip2 -->
<g id="node7" class="node">
<title>bzip2</title>
<ellipse fill="none" stroke="#64748b" cx="605.31" cy="-90" rx="27" ry="18"/>
<text xml:space="preserve" text-anchor="middle" x="605.31" y="-86.12" font-family="Times,serif" font-size="10.00" fill="#64748b">bzip2</text>
</g>
<!-- boost&#45;&gt;bzip2 -->
<g id="edge5" class="edge">
<title>boost&#45;&gt;bzip2</title>
<path fill="none" stroke="#64748b" d="M605.31,-143.7C605.31,-136.41 605.31,-127.73 605.31,-119.54"/>
<polygon fill="#64748b" stroke="#64748b" points="608.81,-119.62 605.31,-109.62 601.81,-119.62 608.81,-119.62"/>
</g>
<!-- zlib -->
<g id="node8" class="node">
<title>zlib</title>
<ellipse fill="none" stroke="#64748b" cx="461.31" cy="-90" rx="27" ry="18"/>
<text xml:space="preserve" text-anchor="middle" x="461.31" y="-86.12" font-family="Times,serif" font-size="10.00" fill="#64748b">zlib</text>
</g>
<!-- boost&#45;&gt;zlib -->
<g id="edge6" class="edge">
<title>boost&#45;&gt;zlib</title>
<path fill="none" stroke="#64748b" d="M583.75,-150.52C559.64,-138.8 520.38,-119.72 492.83,-106.32"/>
<polygon fill="#64748b" stroke="#64748b" points="494.43,-103.21 483.9,-101.98 491.37,-109.5 494.43,-103.21"/>
</g>
<!-- libsodium -->
<g id="node30" class="node">
<title>libsodium</title>
<ellipse fill="none" stroke="#64748b" cx="741.31" cy="-90" rx="33.87" ry="18"/>
<text xml:space="preserve" text-anchor="middle" x="741.31" y="-86.12" font-family="Times,serif" font-size="10.00" fill="#64748b">libsodium</text>
</g>
<!-- libzmq&#45;&gt;libsodium -->
<g id="edge26" class="edge">
<title>libzmq&#45;&gt;libsodium</title>
<path fill="none" stroke="#64748b" d="M741.31,-143.7C741.31,-136.41 741.31,-127.73 741.31,-119.54"/>
<polygon fill="#64748b" stroke="#64748b" points="744.81,-119.62 741.31,-109.62 737.81,-119.62 744.81,-119.62"/>
</g>
<!-- ceres&#45;solver -->
<g id="node9" class="node">
<title>ceres&#45;solver</title>
<ellipse fill="none" stroke="#64748b" cx="1006.31" cy="-234" rx="37.87" ry="18"/>
<text xml:space="preserve" text-anchor="middle" x="1006.31" y="-230.12" font-family="Times,serif" font-size="10.00" fill="#64748b">ceres&#45;solver</text>
</g>
<!-- eigen -->
<g id="node10" class="node">
<title>eigen</title>
<ellipse fill="none" stroke="#64748b" cx="1006.31" cy="-162" rx="27" ry="18"/>
<text xml:space="preserve" text-anchor="middle" x="1006.31" y="-158.12" font-family="Times,serif" font-size="10.00" fill="#64748b">eigen</text>
</g>
<!-- ceres&#45;solver&#45;&gt;eigen -->
<g id="edge7" class="edge">
<title>ceres&#45;solver&#45;&gt;eigen</title>
<path fill="none" stroke="#64748b" d="M1006.31,-215.7C1006.31,-208.41 1006.31,-199.73 1006.31,-191.54"/>
<polygon fill="#64748b" stroke="#64748b" points="1009.81,-191.62 1006.31,-181.62 1002.81,-191.62 1009.81,-191.62"/>
</g>
<!-- cppzmq -->
<g id="node11" class="node">
<title>cppzmq</title>
<ellipse fill="none" stroke="#64748b" cx="741.31" cy="-234" rx="28.55" ry="18"/>
<text xml:space="preserve" text-anchor="middle" x="741.31" y="-230.12" font-family="Times,serif" font-size="10.00" fill="#64748b">cppzmq</text>
</g>
<!-- cppzmq&#45;&gt;libzmq -->
<g id="edge8" class="edge">
<title>cppzmq&#45;&gt;libzmq</title>
<path fill="none" stroke="#64748b" d="M741.31,-215.7C741.31,-208.41 741.31,-199.73 741.31,-191.54"/>
<polygon fill="#64748b" stroke="#64748b" points="744.81,-191.62 741.31,-181.62 737.81,-191.62 744.81,-191.62"/>
</g>
<!-- curl -->
<g id="node12" class="node">
<title>curl</title>
<ellipse fill="none" stroke="#64748b" cx="418.31" cy="-234" rx="27" ry="18"/>
<text xml:space="preserve" text-anchor="middle" x="418.31" y="-230.12" font-family="Times,serif" font-size="10.00" fill="#64748b">curl</text>
</g>
<!-- c&#45;ares -->
<g id="node13" class="node">
<title>c&#45;ares</title>
<ellipse fill="none" stroke="#64748b" cx="533.31" cy="-162" rx="27" ry="18"/>
<text xml:space="preserve" text-anchor="middle" x="533.31" y="-158.12" font-family="Times,serif" font-size="10.00" fill="#64748b">c&#45;ares</text>
</g>
<!-- curl&#45;&gt;c&#45;ares -->
<g id="edge9" class="edge">
<title>curl&#45;&gt;c&#45;ares</title>
<path fill="none" stroke="#64748b" d="M437.81,-221.13C455.99,-210.06 483.33,-193.42 504.1,-180.78"/>
<polygon fill="#64748b" stroke="#64748b" points="505.69,-183.91 512.41,-175.72 502.05,-177.93 505.69,-183.91"/>
</g>
<!-- libssh2 -->
<g id="node14" class="node">
<title>libssh2</title>
<ellipse fill="none" stroke="#64748b" cx="311.31" cy="-162" rx="27" ry="18"/>
<text xml:space="preserve" text-anchor="middle" x="311.31" y="-158.12" font-family="Times,serif" font-size="10.00" fill="#64748b">libssh2</text>
</g>
<!-- curl&#45;&gt;libssh2 -->
<g id="edge10" class="edge">
<title>curl&#45;&gt;libssh2</title>
<path fill="none" stroke="#64748b" d="M399.67,-220.81C383.12,-209.98 358.7,-194 339.72,-181.59"/>
<polygon fill="#64748b" stroke="#64748b" points="341.64,-178.66 331.36,-176.12 337.81,-184.52 341.64,-178.66"/>
</g>
<!-- libssh2&#45;&gt;openssl -->
<g id="edge22" class="edge">
<title>libssh2&#45;&gt;openssl</title>
<path fill="none" stroke="#64748b" d="M290.74,-149.75C269.93,-138.37 237.53,-120.65 213.75,-107.65"/>
<polygon fill="#64748b" stroke="#64748b" points="215.6,-104.67 205.15,-102.95 212.24,-110.81 215.6,-104.67"/>
</g>
<!-- libssh2&#45;&gt;zlib -->
<g id="edge23" class="edge">
<title>libssh2&#45;&gt;zlib</title>
<path fill="none" stroke="#64748b" d="M333,-150.73C337.71,-148.51 342.67,-146.17 347.31,-144 374.95,-131.05 406.41,-116.43 429.27,-105.83"/>
<polygon fill="#64748b" stroke="#64748b" points="430.46,-109.14 438.06,-101.76 427.52,-102.79 430.46,-109.14"/>
</g>
<!-- fecpp -->
<g id="node15" class="node">
<title>fecpp</title>
<ellipse fill="none" stroke="#64748b" cx="507.31" cy="-234" rx="27" ry="18"/>
<text xml:space="preserve" text-anchor="middle" x="507.31" y="-230.12" font-family="Times,serif" font-size="10.00" fill="#64748b">fecpp</text>
</g>
<!-- fecpp&#45;&gt;boost -->
<g id="edge11" class="edge">
<title>fecpp&#45;&gt;boost</title>
<path fill="none" stroke="#64748b" stroke-dasharray="5,2" d="M525.28,-220.16C540.06,-209.6 561.24,-194.47 578.1,-182.43"/>
<polygon fill="#64748b" stroke="#64748b" points="580.11,-185.3 586.21,-176.64 576.04,-179.6 580.11,-185.3"/>
</g>
<!-- ffmpeg -->
<g id="node16" class="node">
<title>ffmpeg</title>
<ellipse fill="none" stroke="#64748b" cx="239.31" cy="-162" rx="27" ry="18"/>
<text xml:space="preserve" text-anchor="middle" x="239.31" y="-158.12" font-family="Times,serif" font-size="10.00" fill="#64748b">ffmpeg</text>
</g>
<!-- openh264 -->
<g id="node17" class="node">
<title>openh264</title>
<ellipse fill="none" stroke="#64748b" cx="301.31" cy="-90" rx="33.87" ry="18"/>
<text xml:space="preserve" text-anchor="middle" x="301.31" y="-86.12" font-family="Times,serif" font-size="10.00" fill="#64748b">openh264</text>
</g>
<!-- ffmpeg&#45;&gt;openh264 -->
<g id="edge12" class="edge">
<title>ffmpeg&#45;&gt;openh264</title>
<path fill="none" stroke="#64748b" d="M252.45,-146.15C260.37,-137.22 270.65,-125.61 279.73,-115.36"/>
<polygon fill="#64748b" stroke="#64748b" points="282.3,-117.74 286.31,-107.93 277.06,-113.09 282.3,-117.74"/>
</g>
<!-- ffmpeg&#45;&gt;yasm -->
<g id="edge13" class="edge">
<title>ffmpeg&#45;&gt;yasm</title>
<path fill="none" stroke="#64748b" stroke-dasharray="5,2" d="M240.29,-143.59C241.64,-119.61 244.09,-76.14 245.71,-47.42"/>
<polygon fill="#64748b" stroke="#64748b" points="249.19,-47.8 246.26,-37.62 242.2,-47.41 249.19,-47.8"/>
</g>
<!-- openh264&#45;&gt;yasm -->
<g id="edge29" class="edge">
<title>openh264&#45;&gt;yasm</title>
<path fill="none" stroke="#64748b" stroke-dasharray="5,2" d="M289.05,-73.12C282.26,-64.31 273.67,-53.18 266.06,-43.31"/>
<polygon fill="#64748b" stroke="#64748b" points="268.94,-41.32 260.06,-35.54 263.4,-45.59 268.94,-41.32"/>
</g>
<!-- hdf5 -->
<g id="node19" class="node">
<title>hdf5</title>
<ellipse fill="none" stroke="#64748b" cx="461.31" cy="-162" rx="27" ry="18"/>
<text xml:space="preserve" text-anchor="middle" x="461.31" y="-158.12" font-family="Times,serif" font-size="10.00" fill="#64748b">hdf5</text>
</g>
<!-- hdf5&#45;&gt;zlib -->
<g id="edge14" class="edge">
<title>hdf5&#45;&gt;zlib</title>
<path fill="none" stroke="#64748b" d="M461.31,-143.7C461.31,-136.41 461.31,-127.73 461.31,-119.54"/>
<polygon fill="#64748b" stroke="#64748b" points="464.81,-119.62 461.31,-109.62 457.81,-119.62 464.81,-119.62"/>
</g>
<!-- libgeotiff -->
<g id="node20" class="node">
<title>libgeotiff</title>
<ellipse fill="none" stroke="#64748b" cx="1094.31" cy="-234" rx="32.1" ry="18"/>
<text xml:space="preserve" text-anchor="middle" x="1094.31" y="-230.12" font-family="Times,serif" font-size="10.00" fill="#64748b">libgeotiff</text>
</g>
<!-- wxwidgets -->
<g id="node21" class="node">
<title>wxwidgets</title>
<ellipse fill="none" stroke="#64748b" cx="1173.31" cy="-162" rx="36.09" ry="18"/>
<text xml:space="preserve" text-anchor="middle" x="1173.31" y="-158.12" font-family="Times,serif" font-size="10.00" fill="#64748b">wxwidgets</text>
</g>
<!-- libgeotiff&#45;&gt;wxwidgets -->
<g id="edge15" class="edge">
<title>libgeotiff&#45;&gt;wxwidgets</title>
<path fill="none" stroke="#64748b" d="M1111.06,-218.15C1121.7,-208.72 1135.69,-196.33 1147.7,-185.69"/>
<polygon fill="#64748b" stroke="#64748b" points="1149.73,-188.56 1154.9,-179.31 1145.09,-183.32 1149.73,-188.56"/>
</g>
<!-- libgit2 -->
<g id="node22" class="node">
<title>libgit2</title>
<ellipse fill="none" stroke="#64748b" cx="311.31" cy="-234" rx="27" ry="18"/>
<text xml:space="preserve" text-anchor="middle" x="311.31" y="-230.12" font-family="Times,serif" font-size="10.00" fill="#64748b">libgit2</text>
</g>
<!-- libgit2&#45;&gt;libssh2 -->
<g id="edge16" class="edge">
<title>libgit2&#45;&gt;libssh2</title>
<path fill="none" stroke="#64748b" d="M311.31,-215.7C311.31,-208.41 311.31,-199.73 311.31,-191.54"/>
<polygon fill="#64748b" stroke="#64748b" points="314.81,-191.62 311.31,-181.62 307.81,-191.62 314.81,-191.62"/>
</g>
<!-- librttopo -->
<g id="node23" class="node">
<title>librttopo</title>
<ellipse fill="none" stroke="#64748b" cx="818.31" cy="-162" rx="30.77" ry="18"/>
<text xml:space="preserve" text-anchor="middle" x="818.31" y="-158.12" font-family="Times,serif" font-size="10.00" fill="#64748b">librttopo</text>
</g>
<!-- geos -->
<g id="node24" class="node">
<title>geos</title>
<ellipse fill="none" stroke="#64748b" cx="826.31" cy="-90" rx="27" ry="18"/>
<text xml:space="preserve" text-anchor="middle" x="826.31" y="-86.12" font-family="Times,serif" font-size="10.00" fill="#64748b">geos</text>
</g>
<!-- librttopo&#45;&gt;geos -->
<g id="edge17" class="edge">
<title>librttopo&#45;&gt;geos</title>
<path fill="none" stroke="#64748b" d="M820.28,-143.7C821.12,-136.41 822.11,-127.73 823.05,-119.54"/>
<polygon fill="#64748b" stroke="#64748b" points="826.52,-119.94 824.18,-109.61 819.57,-119.15 826.52,-119.94"/>
</g>
<!-- libspatialite -->
<g id="node25" class="node">
<title>libspatialite</title>
<ellipse fill="none" stroke="#64748b" cx="905.31" cy="-162" rx="38.31" ry="18"/>
<text xml:space="preserve" text-anchor="middle" x="905.31" y="-158.12" font-family="Times,serif" font-size="10.00" fill="#64748b">libspatialite</text>
</g>
<!-- libspatialite&#45;&gt;zlib -->
<g id="edge21" class="edge">
<title>libspatialite&#45;&gt;zlib</title>
<path fill="none" stroke="#64748b" d="M876.78,-149.54C870.76,-147.44 864.38,-145.46 858.31,-144 732.44,-113.8 697.48,-126.07 569.31,-108 545.79,-104.68 519.46,-100.55 498.68,-97.19"/>
<polygon fill="#64748b" stroke="#64748b" points="499.39,-93.76 488.95,-95.6 498.26,-100.66 499.39,-93.76"/>
</g>
<!-- libspatialite&#45;&gt;geos -->
<g id="edge18" class="edge">
<title>libspatialite&#45;&gt;geos</title>
<path fill="none" stroke="#64748b" d="M888.16,-145.81C877.14,-136.04 862.64,-123.2 850.46,-112.4"/>
<polygon fill="#64748b" stroke="#64748b" points="853.01,-109.99 843.2,-105.97 848.37,-115.23 853.01,-109.99"/>
</g>
<!-- libiconv -->
<g id="node26" class="node">
<title>libiconv</title>
<ellipse fill="none" stroke="#64748b" cx="976.31" cy="-90" rx="29.88" ry="18"/>
<text xml:space="preserve" text-anchor="middle" x="976.31" y="-86.12" font-family="Times,serif" font-size="10.00" fill="#64748b">libiconv</text>
</g>
<!-- libspatialite&#45;&gt;libiconv -->
<g id="edge19" class="edge">
<title>libspatialite&#45;&gt;libiconv</title>
<path fill="none" stroke="#64748b" d="M921.06,-145.46C930.61,-136.06 942.94,-123.9 953.53,-113.46"/>
<polygon fill="#64748b" stroke="#64748b" points="955.82,-116.11 960.48,-106.6 950.91,-111.13 955.82,-116.11"/>
</g>
<!-- sqlite3 -->
<g id="node27" class="node">
<title>sqlite3</title>
<ellipse fill="none" stroke="#64748b" cx="901.31" cy="-90" rx="27" ry="18"/>
<text xml:space="preserve" text-anchor="middle" x="901.31" y="-86.12" font-family="Times,serif" font-size="10.00" fill="#64748b">sqlite3</text>
</g>
<!-- libspatialite&#45;&gt;sqlite3 -->
<g id="edge20" class="edge">
<title>libspatialite&#45;&gt;sqlite3</title>
<path fill="none" stroke="#64748b" d="M904.32,-143.7C903.9,-136.41 903.4,-127.73 902.94,-119.54"/>
<polygon fill="#64748b" stroke="#64748b" points="906.43,-119.4 902.37,-109.62 899.45,-119.8 906.43,-119.4"/>
</g>
<!-- libstrophe -->
<g id="node28" class="node">
<title>libstrophe</title>
<ellipse fill="none" stroke="#64748b" cx="152.31" cy="-162" rx="33.87" ry="18"/>
<text xml:space="preserve" text-anchor="middle" x="152.31" y="-158.12" font-family="Times,serif" font-size="10.00" fill="#64748b">libstrophe</text>
</g>
<!-- libstrophe&#45;&gt;openssl -->
<g id="edge25" class="edge">
<title>libstrophe&#45;&gt;openssl</title>
<path fill="none" stroke="#64748b" d="M159.81,-144.05C163.24,-136.32 167.38,-126.96 171.23,-118.27"/>
<polygon fill="#64748b" stroke="#64748b" points="174.41,-119.73 175.26,-109.17 168.01,-116.9 174.41,-119.73"/>
</g>
<!-- libexpat -->
<g id="node29" class="node">
<title>libexpat</title>
<ellipse fill="none" stroke="#64748b" cx="108.31" cy="-90" rx="29.44" ry="18"/>
<text xml:space="preserve" text-anchor="middle" x="108.31" y="-86.12" font-family="Times,serif" font-size="10.00" fill="#64748b">libexpat</text>
</g>
<!-- libstrophe&#45;&gt;libexpat -->
<g id="edge24" class="edge">
<title>libstrophe&#45;&gt;libexpat</title>
<path fill="none" stroke="#64748b" d="M141.88,-144.41C136.65,-136.1 130.21,-125.85 124.37,-116.56"/>
<polygon fill="#64748b" stroke="#64748b" points="127.45,-114.87 119.16,-108.27 121.52,-118.6 127.45,-114.87"/>
</g>
<!-- luabridge -->
<g id="node31" class="node">
<title>luabridge</title>
<ellipse fill="none" stroke="#64748b" cx="1325.31" cy="-234" rx="32.54" ry="18"/>
<text xml:space="preserve" text-anchor="middle" x="1325.31" y="-230.12" font-family="Times,serif" font-size="10.00" fill="#64748b">luabridge</text>
</g>
<!-- lua -->
<g id="node32" class="node">
<title>lua</title>
<ellipse fill="none" stroke="#64748b" cx="1325.31" cy="-162" rx="27" ry="18"/>
<text xml:space="preserve" text-anchor="middle" x="1325.31" y="-158.12" font-family="Times,serif" font-size="10.00" fill="#64748b">lua</text>
</g>
<!-- luabridge&#45;&gt;lua -->
<g id="edge27" class="edge">
<title>luabridge&#45;&gt;lua</title>
<path fill="none" stroke="#64748b" d="M1325.31,-215.7C1325.31,-208.41 1325.31,-199.73 1325.31,-191.54"/>
<polygon fill="#64748b" stroke="#64748b" points="1328.81,-191.62 1325.31,-181.62 1321.81,-191.62 1328.81,-191.62"/>
</g>
<!-- node&#45;addon&#45;api -->
<g id="node33" class="node">
<title>node&#45;addon&#45;api</title>
<ellipse fill="none" stroke="#64748b" cx="1423.31" cy="-234" rx="47.63" ry="18"/>
<text xml:space="preserve" text-anchor="middle" x="1423.31" y="-230.12" font-family="Times,serif" font-size="10.00" fill="#64748b">node&#45;addon&#45;api</text>
</g>
<!-- nodexp -->
<g id="node34" class="node">
<title>nodexp</title>
<ellipse fill="none" stroke="#64748b" cx="1423.31" cy="-162" rx="27.66" ry="18"/>
<text xml:space="preserve" text-anchor="middle" x="1423.31" y="-158.12" font-family="Times,serif" font-size="10.00" fill="#64748b">nodexp</text>
</g>
<!-- node&#45;addon&#45;api&#45;&gt;nodexp -->
<g id="edge28" class="edge">
<title>node&#45;addon&#45;api&#45;&gt;nodexp</title>
<path fill="none" stroke="#64748b" d="M1423.31,-215.7C1423.31,-208.41 1423.31,-199.73 1423.31,-191.54"/>
<polygon fill="#64748b" stroke="#64748b" points="1426.81,-191.62 1423.31,-181.62 1419.81,-191.62 1426.81,-191.62"/>
</g>
<!-- protobuf -->
<g id="node36" class="node">
<title>protobuf</title>
<ellipse fill="none" stroke="#64748b" cx="386.31" cy="-162" rx="30.32" ry="18"/>
<text xml:space="preserve" text-anchor="middle" x="386.31" y="-158.12" font-family="Times,serif" font-size="10.00" fill="#64748b">protobuf</text>
</g>
<!-- protobuf&#45;&gt;zlib -->
<g id="edge32" class="edge">
<title>protobuf&#45;&gt;zlib</title>
<path fill="none" stroke="#64748b" d="M402.21,-146.15C412.56,-136.5 426.24,-123.73 437.83,-112.92"/>
<polygon fill="#64748b" stroke="#64748b" points="440.16,-115.52 445.08,-106.14 435.39,-110.4 440.16,-115.52"/>
</g>
<!-- spatialite&#45;tools -->
<g id="node37" class="node">
<title>spatialite&#45;tools</title>
<ellipse fill="none" stroke="#64748b" cx="905.31" cy="-234" rx="45.41" ry="18"/>
<text xml:space="preserve" text-anchor="middle" x="905.31" y="-230.12" font-family="Times,serif" font-size="10.00" fill="#64748b">spatialite&#45;tools</text>
</g>
<!-- spatialite&#45;tools&#45;&gt;libspatialite -->
<g id="edge33" class="edge">
<title>spatialite&#45;tools&#45;&gt;libspatialite</title>
<path fill="none" stroke="#64748b" stroke-dasharray="5,2" d="M905.31,-215.7C905.31,-208.41 905.31,-199.73 905.31,-191.54"/>
<polygon fill="#64748b" stroke="#64748b" points="908.81,-191.62 905.31,-181.62 901.81,-191.62 908.81,-191.62"/>
</g>
<!-- spdlog -->
<g id="node38" class="node">
<title>spdlog</title>
<ellipse fill="none" stroke="#64748b" cx="1516.31" cy="-234" rx="27" ry="18"/>
<text xml:space="preserve" text-anchor="middle" x="1516.31" y="-230.12" font-family="Times,serif" font-size="10.00" fill="#64748b">spdlog</text>
</g>
<!-- fmt -->
<g id="node39" class="node">
<title>fmt</title>
<ellipse fill="none" stroke="#64748b" cx="1516.31" cy="-162" rx="27" ry="18"/>
<text xml:space="preserve" text-anchor="middle" x="1516.31" y="-158.12" font-family="Times,serif" font-size="10.00" fill="#64748b">fmt</text>
</g>
<!-- spdlog&#45;&gt;fmt -->
<g id="edge34" class="edge">
<title>spdlog&#45;&gt;fmt</title>
<path fill="none" stroke="#64748b" d="M1516.31,-215.7C1516.31,-208.41 1516.31,-199.73 1516.31,-191.54"/>
<polygon fill="#64748b" stroke="#64748b" points="1519.81,-191.62 1516.31,-181.62 1512.81,-191.62 1519.81,-191.62"/>
</g>
<!-- wxinclude -->
<g id="node40" class="node">
<title>wxinclude</title>
<ellipse fill="none" stroke="#64748b" cx="587.31" cy="-234" rx="35.21" ry="18"/>
<text xml:space="preserve" text-anchor="middle" x="587.31" y="-230.12" font-family="Times,serif" font-size="10.00" fill="#64748b">wxinclude</text>
</g>
<!-- wxinclude&#45;&gt;boost -->
<g id="edge35" class="edge">
<title>wxinclude&#45;&gt;boost</title>
<path fill="none" stroke="#64748b" stroke-dasharray="5,2" d="M591.76,-215.7C593.65,-208.32 595.91,-199.52 598.04,-191.25"/>
<polygon fill="#64748b" stroke="#64748b" points="601.43,-192.13 600.53,-181.57 594.65,-190.38 601.43,-192.13"/>
</g>
<!-- wxtetris -->
<g id="node41" class="node">
<title>wxtetris</title>
<ellipse fill="none" stroke="#64748b" cx="1173.31" cy="-234" rx="28.99" ry="18"/>
<text xml:space="preserve" text-anchor="middle" x="1173.31" y="-230.12" font-family="Times,serif" font-size="10.00" fill="#64748b">wxtetris</text>
</g>
<!-- wxtetris&#45;&gt;wxwidgets -->
<g id="edge36" class="edge">
<title>wxtetris&#45;&gt;wxwidgets</title>
<path fill="none" stroke="#64748b" stroke-dasharray="5,2" d="M1173.31,-215.7C1173.31,-208.41 1173.31,-199.73 1173.31,-191.54"/>
<polygon fill="#64748b" stroke="#64748b" points="1176.81,-191.62 1173.31,-181.62 1169.81,-191.62 1176.81,-191.62"/>
</g>
<!-- wxx -->
<g id="node42" class="node">
<title>wxx</title>
<ellipse fill="none" stroke="#64748b" cx="1247.31" cy="-234" rx="27" ry="18"/>
<text xml:space="preserve" text-anchor="middle" x="1247.31" y="-230.12" font-family="Times,serif" font-size="10.00" fill="#64748b">wxx</text>
</g>
<!-- wxx&#45;&gt;wxwidgets -->
<g id="edge37" class="edge">
<title>wxx&#45;&gt;wxwidgets</title>
<path fill="none" stroke="#64748b" d="M1232.33,-218.83C1222.44,-209.48 1209.24,-196.99 1197.83,-186.2"/>
<polygon fill="#64748b" stroke="#64748b" points="1200.31,-183.73 1190.64,-179.4 1195.5,-188.81 1200.31,-183.73"/>
</g>
<!-- zmqpp -->
<g id="node43" class="node">
<title>zmqpp</title>
<ellipse fill="none" stroke="#64748b" cx="815.31" cy="-234" rx="27" ry="18"/>
<text xml:space="preserve" text-anchor="middle" x="815.31" y="-230.12" font-family="Times,serif" font-size="10.00" fill="#64748b">zmqpp</text>
</g>
<!-- zmqpp&#45;&gt;libzmq -->
<g id="edge38" class="edge">
<title>zmqpp&#45;&gt;libzmq</title>
<path fill="none" stroke="#64748b" d="M800.33,-218.83C790.07,-209.13 776.25,-196.06 764.56,-185"/>
<polygon fill="#64748b" stroke="#64748b" points="767.28,-182.75 757.61,-178.42 762.47,-187.84 767.28,-182.75"/>
</g>
</g>
</svg>
