<?xml version="1.0" encoding="UTF-8" standalone="no"?>
<!DOCTYPE svg PUBLIC "-//W3C//DTD SVG 1.1//EN"
 "http://www.w3.org/Graphics/SVG/1.1/DTD/svg11.dtd">
<!-- Generated by graphviz version 2.44.0 (0)
 -->
<!-- Title: GG Pages: 1 -->
<svg width="1867pt" height="260pt"
 viewBox="0.00 0.00 1867.01 260.00" xmlns="http://www.w3.org/2000/svg" xmlns:xlink="http://www.w3.org/1999/xlink">
<g id="graph0" class="graph" transform="scale(1 1) rotate(0) translate(4 256)">
<title>GG</title>
<!-- FFmpeg -->
<g id="node1" class="node">
<title>FFmpeg</title>
<ellipse fill="none" stroke="#64748b" cx="64.26" cy="-162" rx="32.93" ry="18"/>
<text text-anchor="middle" x="64.26" y="-159.5" font-family="Times-Roman" font-size="10.00" fill="#64748b">FFmpeg</text>
</g>
<!-- openh264 -->
<g id="node2" class="node">
<title>openh264</title>
<ellipse fill="none" stroke="#64748b" cx="38.26" cy="-90" rx="38.03" ry="18"/>
<text text-anchor="middle" x="38.26" y="-87.5" font-family="Times-Roman" font-size="10.00" fill="#64748b">openh264</text>
</g>
<!-- FFmpeg&#45;&gt;openh264 -->
<g id="edge1" class="edge">
<title>FFmpeg&#45;&gt;openh264</title>
<path fill="none" stroke="#64748b" d="M57.97,-144.05C55,-136.06 51.39,-126.33 48.07,-117.4"/>
<polygon fill="#64748b" stroke="#64748b" points="51.26,-115.94 44.5,-107.79 44.7,-118.38 51.26,-115.94"/>
</g>
<!-- yasm -->
<g id="node3" class="node">
<title>yasm</title>
<ellipse fill="none" stroke="#64748b" cx="104.26" cy="-18" rx="27" ry="18"/>
<text text-anchor="middle" x="104.26" y="-15.5" font-family="Times-Roman" font-size="10.00" fill="#64748b">yasm</text>
</g>
<!-- FFmpeg&#45;&gt;yasm -->
<g id="edge2" class="edge">
<title>FFmpeg&#45;&gt;yasm</title>
<path fill="none" stroke="#64748b" stroke-dasharray="5,2" d="M71.81,-144.07C76.18,-133.79 81.54,-120.32 85.26,-108 91.47,-87.49 96.43,-63.73 99.73,-45.93"/>
<polygon fill="#64748b" stroke="#64748b" points="103.2,-46.4 101.52,-35.94 96.31,-45.17 103.2,-46.4"/>
</g>
<!-- openh264&#45;&gt;yasm -->
<g id="edge33" class="edge">
<title>openh264&#45;&gt;yasm</title>
<path fill="none" stroke="#64748b" stroke-dasharray="5,2" d="M53.24,-73.12C62.09,-63.73 73.43,-51.7 83.18,-41.36"/>
<polygon fill="#64748b" stroke="#64748b" points="85.93,-43.54 90.25,-33.86 80.84,-38.74 85.93,-43.54"/>
</g>
<!-- LuaBridge -->
<g id="node4" class="node">
<title>LuaBridge</title>
<ellipse fill="none" stroke="#64748b" cx="1266.26" cy="-234" rx="38.03" ry="18"/>
<text text-anchor="middle" x="1266.26" y="-231.5" font-family="Times-Roman" font-size="10.00" fill="#64748b">LuaBridge</text>
</g>
<!-- lua -->
<g id="node5" class="node">
<title>lua</title>
<ellipse fill="none" stroke="#64748b" cx="1266.26" cy="-162" rx="27" ry="18"/>
<text text-anchor="middle" x="1266.26" y="-159.5" font-family="Times-Roman" font-size="10.00" fill="#64748b">lua</text>
</g>
<!-- LuaBridge&#45;&gt;lua -->
<g id="edge3" class="edge">
<title>LuaBridge&#45;&gt;lua</title>
<path fill="none" stroke="#64748b" d="M1266.26,-215.7C1266.26,-207.98 1266.26,-198.71 1266.26,-190.11"/>
<polygon fill="#64748b" stroke="#64748b" points="1269.76,-190.1 1266.26,-180.1 1262.76,-190.1 1269.76,-190.1"/>
</g>
<!-- activemq&#45;cpp -->
<g id="node6" class="node">
<title>activemq&#45;cpp</title>
<ellipse fill="none" stroke="#64748b" cx="1078.26" cy="-162" rx="48.72" ry="18"/>
<text text-anchor="middle" x="1078.26" y="-159.5" font-family="Times-Roman" font-size="10.00" fill="#64748b">activemq&#45;cpp</text>
</g>
<!-- apr -->
<g id="node7" class="node">
<title>apr</title>
<ellipse fill="none" stroke="#64748b" cx="1078.26" cy="-90" rx="27" ry="18"/>
<text text-anchor="middle" x="1078.26" y="-87.5" font-family="Times-Roman" font-size="10.00" fill="#64748b">apr</text>
</g>
<!-- activemq&#45;cpp&#45;&gt;apr -->
<g id="edge4" class="edge">
<title>activemq&#45;cpp&#45;&gt;apr</title>
<path fill="none" stroke="#64748b" d="M1078.26,-143.7C1078.26,-135.98 1078.26,-126.71 1078.26,-118.11"/>
<polygon fill="#64748b" stroke="#64748b" points="1081.76,-118.1 1078.26,-108.1 1074.76,-118.1 1081.76,-118.1"/>
</g>
<!-- openssl -->
<g id="node8" class="node">
<title>openssl</title>
<ellipse fill="none" stroke="#64748b" cx="988.26" cy="-90" rx="31.58" ry="18"/>
<text text-anchor="middle" x="988.26" y="-87.5" font-family="Times-Roman" font-size="10.00" fill="#64748b">openssl</text>
</g>
<!-- activemq&#45;cpp&#45;&gt;openssl -->
<g id="edge5" class="edge">
<title>activemq&#45;cpp&#45;&gt;openssl</title>
<path fill="none" stroke="#64748b" d="M1058.29,-145.46C1045.42,-135.46 1028.56,-122.34 1014.6,-111.48"/>
<polygon fill="#64748b" stroke="#64748b" points="1016.39,-108.44 1006.35,-105.07 1012.09,-113.97 1016.39,-108.44"/>
</g>
<!-- openssl&#45;&gt;yasm -->
<g id="edge35" class="edge">
<title>openssl&#45;&gt;yasm</title>
<path fill="none" stroke="#64748b" stroke-dasharray="5,2" d="M961.7,-79.88C951.93,-76.88 940.7,-73.84 930.26,-72 629.39,-18.93 258.54,-17.45 141.47,-18.48"/>
<polygon fill="#64748b" stroke="#64748b" points="141.23,-14.98 131.26,-18.58 141.29,-21.98 141.23,-14.98"/>
</g>
<!-- nasm -->
<g id="node40" class="node">
<title>nasm</title>
<ellipse fill="none" stroke="#64748b" cx="988.26" cy="-18" rx="27" ry="18"/>
<text text-anchor="middle" x="988.26" y="-15.5" font-family="Times-Roman" font-size="10.00" fill="#64748b">nasm</text>
</g>
<!-- openssl&#45;&gt;nasm -->
<g id="edge34" class="edge">
<title>openssl&#45;&gt;nasm</title>
<path fill="none" stroke="#64748b" stroke-dasharray="5,2" d="M988.26,-71.7C988.26,-63.98 988.26,-54.71 988.26,-46.11"/>
<polygon fill="#64748b" stroke="#64748b" points="991.76,-46.1 988.26,-36.1 984.76,-46.1 991.76,-46.1"/>
</g>
<!-- argon2 -->
<g id="node9" class="node">
<title>argon2</title>
<ellipse fill="none" stroke="#64748b" cx="234.26" cy="-162" rx="29.37" ry="18"/>
<text text-anchor="middle" x="234.26" y="-159.5" font-family="Times-Roman" font-size="10.00" fill="#64748b">argon2</text>
</g>
<!-- Threads -->
<g id="node10" class="node">
<title>Threads</title>
<ellipse fill="none" stroke="#64748b" cx="326.26" cy="-90" rx="32.93" ry="18"/>
<text text-anchor="middle" x="326.26" y="-87.5" font-family="Times-Roman" font-size="10.00" fill="#64748b">Threads</text>
</g>
<!-- argon2&#45;&gt;Threads -->
<g id="edge6" class="edge">
<title>argon2&#45;&gt;Threads</title>
<path fill="none" stroke="#64748b" d="M252,-147.5C265.48,-137.25 284.25,-122.97 299.55,-111.33"/>
<polygon fill="#64748b" stroke="#64748b" points="301.79,-114.02 307.63,-105.18 297.55,-108.45 301.79,-114.02"/>
</g>
<!-- azmq -->
<g id="node11" class="node">
<title>azmq</title>
<ellipse fill="none" stroke="#64748b" cx="238.26" cy="-234" rx="27" ry="18"/>
<text text-anchor="middle" x="238.26" y="-231.5" font-family="Times-Roman" font-size="10.00" fill="#64748b">azmq</text>
</g>
<!-- boost -->
<g id="node12" class="node">
<title>boost</title>
<ellipse fill="none" stroke="#64748b" cx="554.26" cy="-162" rx="27" ry="18"/>
<text text-anchor="middle" x="554.26" y="-159.5" font-family="Times-Roman" font-size="10.00" fill="#64748b">boost</text>
</g>
<!-- azmq&#45;&gt;boost -->
<g id="edge7" class="edge">
<title>azmq&#45;&gt;boost</title>
<path fill="none" stroke="#64748b" d="M259.18,-222.42C264.63,-220 270.57,-217.66 276.26,-216 380.64,-185.51 414.2,-211.56 518.26,-180 520.2,-179.41 522.16,-178.74 524.12,-178"/>
<polygon fill="#64748b" stroke="#64748b" points="525.88,-181.06 533.74,-173.96 523.16,-174.61 525.88,-181.06"/>
</g>
<!-- libzmq -->
<g id="node13" class="node">
<title>libzmq</title>
<ellipse fill="none" stroke="#64748b" cx="157.26" cy="-162" rx="29.37" ry="18"/>
<text text-anchor="middle" x="157.26" y="-159.5" font-family="Times-Roman" font-size="10.00" fill="#64748b">libzmq</text>
</g>
<!-- azmq&#45;&gt;libzmq -->
<g id="edge8" class="edge">
<title>azmq&#45;&gt;libzmq</title>
<path fill="none" stroke="#64748b" d="M222.26,-219.17C210.58,-209.07 194.54,-195.21 181.31,-183.79"/>
<polygon fill="#64748b" stroke="#64748b" points="183.36,-180.93 173.51,-177.04 178.79,-186.23 183.36,-180.93"/>
</g>
<!-- bzip2 -->
<g id="node14" class="node">
<title>bzip2</title>
<ellipse fill="none" stroke="#64748b" cx="554.26" cy="-90" rx="27" ry="18"/>
<text text-anchor="middle" x="554.26" y="-87.5" font-family="Times-Roman" font-size="10.00" fill="#64748b">bzip2</text>
</g>
<!-- boost&#45;&gt;bzip2 -->
<g id="edge9" class="edge">
<title>boost&#45;&gt;bzip2</title>
<path fill="none" stroke="#64748b" d="M554.26,-143.7C554.26,-135.98 554.26,-126.71 554.26,-118.11"/>
<polygon fill="#64748b" stroke="#64748b" points="557.76,-118.1 554.26,-108.1 550.76,-118.1 557.76,-118.1"/>
</g>
<!-- zlib -->
<g id="node15" class="node">
<title>zlib</title>
<ellipse fill="none" stroke="#64748b" cx="633.26" cy="-90" rx="27" ry="18"/>
<text text-anchor="middle" x="633.26" y="-87.5" font-family="Times-Roman" font-size="10.00" fill="#64748b">zlib</text>
</g>
<!-- boost&#45;&gt;zlib -->
<g id="edge10" class="edge">
<title>boost&#45;&gt;zlib</title>
<path fill="none" stroke="#64748b" d="M569.87,-147.17C581.34,-137.01 597.11,-123.03 610.06,-111.56"/>
<polygon fill="#64748b" stroke="#64748b" points="612.52,-114.05 617.69,-104.8 607.88,-108.81 612.52,-114.05"/>
</g>
<!-- libsodium -->
<g id="node37" class="node">
<title>libsodium</title>
<ellipse fill="none" stroke="#64748b" cx="170.26" cy="-90" rx="38.03" ry="18"/>
<text text-anchor="middle" x="170.26" y="-87.5" font-family="Times-Roman" font-size="10.00" fill="#64748b">libsodium</text>
</g>
<!-- libzmq&#45;&gt;libsodium -->
<g id="edge31" class="edge">
<title>libzmq&#45;&gt;libsodium</title>
<path fill="none" stroke="#64748b" d="M160.41,-144.05C161.84,-136.35 163.57,-127.03 165.18,-118.36"/>
<polygon fill="#64748b" stroke="#64748b" points="168.67,-118.75 167.05,-108.28 161.79,-117.47 168.67,-118.75"/>
</g>
<!-- ceres&#45;solver -->
<g id="node16" class="node">
<title>ceres&#45;solver</title>
<ellipse fill="none" stroke="#64748b" cx="1368.26" cy="-234" rx="45.15" ry="18"/>
<text text-anchor="middle" x="1368.26" y="-231.5" font-family="Times-Roman" font-size="10.00" fill="#64748b">ceres&#45;solver</text>
</g>
<!-- eigen -->
<g id="node17" class="node">
<title>eigen</title>
<ellipse fill="none" stroke="#64748b" cx="1368.26" cy="-162" rx="27" ry="18"/>
<text text-anchor="middle" x="1368.26" y="-159.5" font-family="Times-Roman" font-size="10.00" fill="#64748b">eigen</text>
</g>
<!-- ceres&#45;solver&#45;&gt;eigen -->
<g id="edge11" class="edge">
<title>ceres&#45;solver&#45;&gt;eigen</title>
<path fill="none" stroke="#64748b" d="M1368.26,-215.7C1368.26,-207.98 1368.26,-198.71 1368.26,-190.11"/>
<polygon fill="#64748b" stroke="#64748b" points="1371.76,-190.1 1368.26,-180.1 1364.76,-190.1 1371.76,-190.1"/>
</g>
<!-- cppzmq -->
<g id="node18" class="node">
<title>cppzmq</title>
<ellipse fill="none" stroke="#64748b" cx="80.26" cy="-234" rx="32.25" ry="18"/>
<text text-anchor="middle" x="80.26" y="-231.5" font-family="Times-Roman" font-size="10.00" fill="#64748b">cppzmq</text>
</g>
<!-- cppzmq&#45;&gt;libzmq -->
<g id="edge12" class="edge">
<title>cppzmq&#45;&gt;libzmq</title>
<path fill="none" stroke="#64748b" d="M96.59,-218.15C107.46,-208.28 121.89,-195.15 133.96,-184.19"/>
<polygon fill="#64748b" stroke="#64748b" points="136.44,-186.66 141.48,-177.35 131.73,-181.48 136.44,-186.66"/>
</g>
<!-- curl -->
<g id="node19" class="node">
<title>curl</title>
<ellipse fill="none" stroke="#64748b" cx="982.26" cy="-234" rx="27" ry="18"/>
<text text-anchor="middle" x="982.26" y="-231.5" font-family="Times-Roman" font-size="10.00" fill="#64748b">curl</text>
</g>
<!-- c&#45;ares -->
<g id="node20" class="node">
<title>c&#45;ares</title>
<ellipse fill="none" stroke="#64748b" cx="983.26" cy="-162" rx="27.84" ry="18"/>
<text text-anchor="middle" x="983.26" y="-159.5" font-family="Times-Roman" font-size="10.00" fill="#64748b">c&#45;ares</text>
</g>
<!-- curl&#45;&gt;c&#45;ares -->
<g id="edge13" class="edge">
<title>curl&#45;&gt;c&#45;ares</title>
<path fill="none" stroke="#64748b" d="M982.51,-215.7C982.62,-207.98 982.75,-198.71 982.88,-190.11"/>
<polygon fill="#64748b" stroke="#64748b" points="986.38,-190.15 983.02,-180.1 979.38,-190.05 986.38,-190.15"/>
</g>
<!-- libssh2 -->
<g id="node21" class="node">
<title>libssh2</title>
<ellipse fill="none" stroke="#64748b" cx="907.26" cy="-162" rx="30.04" ry="18"/>
<text text-anchor="middle" x="907.26" y="-159.5" font-family="Times-Roman" font-size="10.00" fill="#64748b">libssh2</text>
</g>
<!-- curl&#45;&gt;libssh2 -->
<g id="edge14" class="edge">
<title>curl&#45;&gt;libssh2</title>
<path fill="none" stroke="#64748b" d="M967.09,-218.83C956.55,-209 942.32,-195.72 930.39,-184.58"/>
<polygon fill="#64748b" stroke="#64748b" points="932.63,-181.89 922.93,-177.63 927.86,-187.01 932.63,-181.89"/>
</g>
<!-- libssh2&#45;&gt;openssl -->
<g id="edge27" class="edge">
<title>libssh2&#45;&gt;openssl</title>
<path fill="none" stroke="#64748b" d="M923.65,-146.83C935.22,-136.84 950.9,-123.29 963.92,-112.04"/>
<polygon fill="#64748b" stroke="#64748b" points="966.34,-114.57 971.62,-105.38 961.76,-109.28 966.34,-114.57"/>
</g>
<!-- libssh2&#45;&gt;zlib -->
<g id="edge28" class="edge">
<title>libssh2&#45;&gt;zlib</title>
<path fill="none" stroke="#64748b" d="M884.48,-150.1C879.23,-147.86 873.62,-145.68 868.26,-144 790.43,-119.56 767.34,-128.07 688.26,-108 681.3,-106.23 673.91,-104.12 666.88,-101.99"/>
<polygon fill="#64748b" stroke="#64748b" points="667.52,-98.52 656.94,-98.9 665.45,-105.21 667.52,-98.52"/>
</g>
<!-- fecpp -->
<g id="node22" class="node">
<title>fecpp</title>
<ellipse fill="none" stroke="#64748b" cx="596.26" cy="-234" rx="27" ry="18"/>
<text text-anchor="middle" x="596.26" y="-231.5" font-family="Times-Roman" font-size="10.00" fill="#64748b">fecpp</text>
</g>
<!-- fecpp&#45;&gt;boost -->
<g id="edge15" class="edge">
<title>fecpp&#45;&gt;boost</title>
<path fill="none" stroke="#64748b" stroke-dasharray="5,2" d="M586.73,-217.12C581.6,-208.56 575.14,-197.8 569.34,-188.13"/>
<polygon fill="#64748b" stroke="#64748b" points="572.19,-186.08 564.05,-179.31 566.19,-189.68 572.19,-186.08"/>
</g>
<!-- glew -->
<g id="node23" class="node">
<title>glew</title>
<ellipse fill="none" stroke="#64748b" cx="1458.26" cy="-234" rx="27" ry="18"/>
<text text-anchor="middle" x="1458.26" y="-231.5" font-family="Times-Roman" font-size="10.00" fill="#64748b">glew</text>
</g>
<!-- OpenGL -->
<g id="node24" class="node">
<title>OpenGL</title>
<ellipse fill="none" stroke="#64748b" cx="1458.26" cy="-162" rx="32.25" ry="18"/>
<text text-anchor="middle" x="1458.26" y="-159.5" font-family="Times-Roman" font-size="10.00" fill="#64748b">OpenGL</text>
</g>
<!-- glew&#45;&gt;OpenGL -->
<g id="edge16" class="edge">
<title>glew&#45;&gt;OpenGL</title>
<path fill="none" stroke="#64748b" d="M1458.26,-215.7C1458.26,-207.98 1458.26,-198.71 1458.26,-190.11"/>
<polygon fill="#64748b" stroke="#64748b" points="1461.76,-190.1 1458.26,-180.1 1454.76,-190.1 1461.76,-190.1"/>
</g>
<!-- googletest -->
<g id="node25" class="node">
<title>googletest</title>
<ellipse fill="none" stroke="#64748b" cx="321.26" cy="-162" rx="40.06" ry="18"/>
<text text-anchor="middle" x="321.26" y="-159.5" font-family="Times-Roman" font-size="10.00" fill="#64748b">googletest</text>
</g>
<!-- googletest&#45;&gt;Threads -->
<g id="edge17" class="edge">
<title>googletest&#45;&gt;Threads</title>
<path fill="none" stroke="#64748b" d="M322.5,-143.7C323.05,-135.98 323.71,-126.71 324.33,-118.11"/>
<polygon fill="#64748b" stroke="#64748b" points="327.82,-118.33 325.04,-108.1 320.84,-117.83 327.82,-118.33"/>
</g>
<!-- hdf5 -->
<g id="node26" class="node">
<title>hdf5</title>
<ellipse fill="none" stroke="#64748b" cx="482.26" cy="-162" rx="27" ry="18"/>
<text text-anchor="middle" x="482.26" y="-159.5" font-family="Times-Roman" font-size="10.00" fill="#64748b">hdf5</text>
</g>
<!-- hdf5&#45;&gt;Threads -->
<g id="edge18" class="edge">
<title>hdf5&#45;&gt;Threads</title>
<path fill="none" stroke="#64748b" d="M460.98,-150.84C456.15,-148.57 451.04,-146.18 446.26,-144 417.68,-130.94 385.04,-116.56 361.03,-106.08"/>
<polygon fill="#64748b" stroke="#64748b" points="362.2,-102.77 351.63,-101.98 359.4,-109.19 362.2,-102.77"/>
</g>
<!-- hdf5&#45;&gt;zlib -->
<g id="edge19" class="edge">
<title>hdf5&#45;&gt;zlib</title>
<path fill="none" stroke="#64748b" d="M503.57,-150.9C508.4,-148.62 513.5,-146.22 518.26,-144 546.68,-130.74 579.13,-115.81 602.29,-105.18"/>
<polygon fill="#64748b" stroke="#64748b" points="603.98,-108.25 611.62,-100.9 601.07,-101.89 603.98,-108.25"/>
</g>
<!-- libgeotiff -->
<g id="node27" class="node">
<title>libgeotiff</title>
<ellipse fill="none" stroke="#64748b" cx="1538.26" cy="-234" rx="35.14" ry="18"/>
<text text-anchor="middle" x="1538.26" y="-231.5" font-family="Times-Roman" font-size="10.00" fill="#64748b">libgeotiff</text>
</g>
<!-- wxwidgets -->
<g id="node28" class="node">
<title>wxwidgets</title>
<ellipse fill="none" stroke="#64748b" cx="1625.26" cy="-162" rx="40.74" ry="18"/>
<text text-anchor="middle" x="1625.26" y="-159.5" font-family="Times-Roman" font-size="10.00" fill="#64748b">wxwidgets</text>
</g>
<!-- libgeotiff&#45;&gt;wxwidgets -->
<g id="edge20" class="edge">
<title>libgeotiff&#45;&gt;wxwidgets</title>
<path fill="none" stroke="#64748b" d="M1556.29,-218.5C1568.41,-208.75 1584.6,-195.72 1598.25,-184.74"/>
<polygon fill="#64748b" stroke="#64748b" points="1600.76,-187.21 1606.36,-178.21 1596.37,-181.75 1600.76,-187.21"/>
</g>
<!-- libgit2 -->
<g id="node29" class="node">
<title>libgit2</title>
<ellipse fill="none" stroke="#64748b" cx="908.26" cy="-234" rx="27.84" ry="18"/>
<text text-anchor="middle" x="908.26" y="-231.5" font-family="Times-Roman" font-size="10.00" fill="#64748b">libgit2</text>
</g>
<!-- libgit2&#45;&gt;libssh2 -->
<g id="edge21" class="edge">
<title>libgit2&#45;&gt;libssh2</title>
<path fill="none" stroke="#64748b" d="M908.02,-215.7C907.91,-207.98 907.77,-198.71 907.65,-190.11"/>
<polygon fill="#64748b" stroke="#64748b" points="911.15,-190.05 907.51,-180.1 904.15,-190.15 911.15,-190.05"/>
</g>
<!-- librttopo -->
<g id="node30" class="node">
<title>librttopo</title>
<ellipse fill="none" stroke="#64748b" cx="719.26" cy="-162" rx="34.29" ry="18"/>
<text text-anchor="middle" x="719.26" y="-159.5" font-family="Times-Roman" font-size="10.00" fill="#64748b">librttopo</text>
</g>
<!-- geos -->
<g id="node31" class="node">
<title>geos</title>
<ellipse fill="none" stroke="#64748b" cx="724.26" cy="-90" rx="27" ry="18"/>
<text text-anchor="middle" x="724.26" y="-87.5" font-family="Times-Roman" font-size="10.00" fill="#64748b">geos</text>
</g>
<!-- librttopo&#45;&gt;geos -->
<g id="edge22" class="edge">
<title>librttopo&#45;&gt;geos</title>
<path fill="none" stroke="#64748b" d="M720.5,-143.7C721.05,-135.98 721.71,-126.71 722.33,-118.11"/>
<polygon fill="#64748b" stroke="#64748b" points="725.82,-118.33 723.04,-108.1 718.84,-117.83 725.82,-118.33"/>
</g>
<!-- libspatialite -->
<g id="node32" class="node">
<title>libspatialite</title>
<ellipse fill="none" stroke="#64748b" cx="815.26" cy="-162" rx="43.62" ry="18"/>
<text text-anchor="middle" x="815.26" y="-159.5" font-family="Times-Roman" font-size="10.00" fill="#64748b">libspatialite</text>
</g>
<!-- libspatialite&#45;&gt;zlib -->
<g id="edge26" class="edge">
<title>libspatialite&#45;&gt;zlib</title>
<path fill="none" stroke="#64748b" d="M784.39,-149.13C751.34,-136.42 699.15,-116.34 665.57,-103.42"/>
<polygon fill="#64748b" stroke="#64748b" points="666.79,-100.15 656.2,-99.82 664.28,-106.68 666.79,-100.15"/>
</g>
<!-- libspatialite&#45;&gt;geos -->
<g id="edge23" class="edge">
<title>libspatialite&#45;&gt;geos</title>
<path fill="none" stroke="#64748b" d="M795.52,-145.81C781.97,-135.39 763.88,-121.48 749.32,-110.28"/>
<polygon fill="#64748b" stroke="#64748b" points="751.28,-107.37 741.22,-104.04 747.01,-112.91 751.28,-107.37"/>
</g>
<!-- libiconv -->
<g id="node33" class="node">
<title>libiconv</title>
<ellipse fill="none" stroke="#64748b" cx="889.26" cy="-90" rx="32.25" ry="18"/>
<text text-anchor="middle" x="889.26" y="-87.5" font-family="Times-Roman" font-size="10.00" fill="#64748b">libiconv</text>
</g>
<!-- libspatialite&#45;&gt;libiconv -->
<g id="edge24" class="edge">
<title>libspatialite&#45;&gt;libiconv</title>
<path fill="none" stroke="#64748b" d="M832.05,-145.12C842.17,-135.55 855.2,-123.23 866.26,-112.76"/>
<polygon fill="#64748b" stroke="#64748b" points="868.69,-115.28 873.55,-105.86 863.88,-110.19 868.69,-115.28"/>
</g>
<!-- sqlite3 -->
<g id="node34" class="node">
<title>sqlite3</title>
<ellipse fill="none" stroke="#64748b" cx="809.26" cy="-90" rx="29.37" ry="18"/>
<text text-anchor="middle" x="809.26" y="-87.5" font-family="Times-Roman" font-size="10.00" fill="#64748b">sqlite3</text>
</g>
<!-- libspatialite&#45;&gt;sqlite3 -->
<g id="edge25" class="edge">
<title>libspatialite&#45;&gt;sqlite3</title>
<path fill="none" stroke="#64748b" d="M813.78,-143.7C813.12,-135.98 812.32,-126.71 811.59,-118.11"/>
<polygon fill="#64748b" stroke="#64748b" points="815.07,-117.77 810.73,-108.1 808.1,-118.37 815.07,-117.77"/>
</g>
<!-- libstrophe -->
<g id="node35" class="node">
<title>libstrophe</title>
<ellipse fill="none" stroke="#64748b" cx="1183.26" cy="-162" rx="38.03" ry="18"/>
<text text-anchor="middle" x="1183.26" y="-159.5" font-family="Times-Roman" font-size="10.00" fill="#64748b">libstrophe</text>
</g>
<!-- libstrophe&#45;&gt;openssl -->
<g id="edge30" class="edge">
<title>libstrophe&#45;&gt;openssl</title>
<path fill="none" stroke="#64748b" d="M1153.93,-150.38C1148.08,-148.26 1141.98,-146.06 1136.26,-144 1097.96,-130.22 1054.06,-114.5 1024.08,-103.79"/>
<polygon fill="#64748b" stroke="#64748b" points="1025.07,-100.43 1014.47,-100.36 1022.71,-107.02 1025.07,-100.43"/>
</g>
<!-- libexpat -->
<g id="node36" class="node">
<title>libexpat</title>
<ellipse fill="none" stroke="#64748b" cx="1183.26" cy="-90" rx="32.93" ry="18"/>
<text text-anchor="middle" x="1183.26" y="-87.5" font-family="Times-Roman" font-size="10.00" fill="#64748b">libexpat</text>
</g>
<!-- libstrophe&#45;&gt;libexpat -->
<g id="edge29" class="edge">
<title>libstrophe&#45;&gt;libexpat</title>
<path fill="none" stroke="#64748b" d="M1183.26,-143.7C1183.26,-135.98 1183.26,-126.71 1183.26,-118.11"/>
<polygon fill="#64748b" stroke="#64748b" points="1186.76,-118.1 1183.26,-108.1 1179.76,-118.1 1186.76,-118.1"/>
</g>
<!-- node&#45;addon&#45;api -->
<g id="node38" class="node">
<title>node&#45;addon&#45;api</title>
<ellipse fill="none" stroke="#64748b" cx="1804.26" cy="-234" rx="54.99" ry="18"/>
<text text-anchor="middle" x="1804.26" y="-231.5" font-family="Times-Roman" font-size="10.00" fill="#64748b">node&#45;addon&#45;api</text>
</g>
<!-- nodexp -->
<g id="node39" class="node">
<title>nodexp</title>
<ellipse fill="none" stroke="#64748b" cx="1804.26" cy="-162" rx="31.4" ry="18"/>
<text text-anchor="middle" x="1804.26" y="-159.5" font-family="Times-Roman" font-size="10.00" fill="#64748b">nodexp</text>
</g>
<!-- node&#45;addon&#45;api&#45;&gt;nodexp -->
<g id="edge32" class="edge">
<title>node&#45;addon&#45;api&#45;&gt;nodexp</title>
<path fill="none" stroke="#64748b" d="M1804.26,-215.7C1804.26,-207.98 1804.26,-198.71 1804.26,-190.11"/>
<polygon fill="#64748b" stroke="#64748b" points="1807.76,-190.1 1804.26,-180.1 1800.76,-190.1 1807.76,-190.1"/>
</g>
<!-- protobuf -->
<g id="node41" class="node">
<title>protobuf</title>
<ellipse fill="none" stroke="#64748b" cx="633.26" cy="-162" rx="34.29" ry="18"/>
<text text-anchor="middle" x="633.26" y="-159.5" font-family="Times-Roman" font-size="10.00" fill="#64748b">protobuf</text>
</g>
<!-- protobuf&#45;&gt;zlib -->
<g id="edge36" class="edge">
<title>protobuf&#45;&gt;zlib</title>
<path fill="none" stroke="#64748b" d="M633.26,-143.7C633.26,-135.98 633.26,-126.71 633.26,-118.11"/>
<polygon fill="#64748b" stroke="#64748b" points="636.76,-118.1 633.26,-108.1 629.76,-118.1 636.76,-118.1"/>
</g>
<!-- rapidjson -->
<g id="node42" class="node">
<title>rapidjson</title>
<ellipse fill="none" stroke="#64748b" cx="321.26" cy="-234" rx="36.49" ry="18"/>
<text text-anchor="middle" x="321.26" y="-231.5" font-family="Times-Roman" font-size="10.00" fill="#64748b">rapidjson</text>
</g>
<!-- rapidjson&#45;&gt;googletest -->
<g id="edge37" class="edge">
<title>rapidjson&#45;&gt;googletest</title>
<path fill="none" stroke="#64748b" stroke-dasharray="5,2" d="M321.26,-215.7C321.26,-207.98 321.26,-198.71 321.26,-190.11"/>
<polygon fill="#64748b" stroke="#64748b" points="324.76,-190.1 321.26,-180.1 317.76,-190.1 324.76,-190.1"/>
</g>
<!-- spatialite&#45;tools -->
<g id="node43" class="node">
<title>spatialite&#45;tools</title>
<ellipse fill="none" stroke="#64748b" cx="809.26" cy="-234" rx="52.96" ry="18"/>
<text text-anchor="middle" x="809.26" y="-231.5" font-family="Times-Roman" font-size="10.00" fill="#64748b">spatialite&#45;tools</text>
</g>
<!-- spatialite&#45;tools&#45;&gt;libspatialite -->
<g id="edge38" class="edge">
<title>spatialite&#45;tools&#45;&gt;libspatialite</title>
<path fill="none" stroke="#64748b" stroke-dasharray="5,2" d="M810.75,-215.7C811.41,-207.98 812.2,-198.71 812.94,-190.11"/>
<polygon fill="#64748b" stroke="#64748b" points="816.43,-190.37 813.8,-180.1 809.46,-189.77 816.43,-190.37"/>
</g>
<!-- spdlog -->
<g id="node44" class="node">
<title>spdlog</title>
<ellipse fill="none" stroke="#64748b" cx="408.26" cy="-162" rx="28.69" ry="18"/>
<text text-anchor="middle" x="408.26" y="-159.5" font-family="Times-Roman" font-size="10.00" fill="#64748b">spdlog</text>
</g>
<!-- spdlog&#45;&gt;Threads -->
<g id="edge39" class="edge">
<title>spdlog&#45;&gt;Threads</title>
<path fill="none" stroke="#64748b" d="M391.67,-146.83C380.04,-136.91 364.3,-123.47 351.17,-112.26"/>
<polygon fill="#64748b" stroke="#64748b" points="353.27,-109.46 343.4,-105.63 348.73,-114.78 353.27,-109.46"/>
</g>
<!-- fmt -->
<g id="node45" class="node">
<title>fmt</title>
<ellipse fill="none" stroke="#64748b" cx="408.26" cy="-90" rx="27" ry="18"/>
<text text-anchor="middle" x="408.26" y="-87.5" font-family="Times-Roman" font-size="10.00" fill="#64748b">fmt</text>
</g>
<!-- spdlog&#45;&gt;fmt -->
<g id="edge40" class="edge">
<title>spdlog&#45;&gt;fmt</title>
<path fill="none" stroke="#64748b" d="M408.26,-143.7C408.26,-135.98 408.26,-126.71 408.26,-118.11"/>
<polygon fill="#64748b" stroke="#64748b" points="411.76,-118.1 408.26,-108.1 404.76,-118.1 411.76,-118.1"/>
</g>
<!-- wxInclude -->
<g id="node46" class="node">
<title>wxInclude</title>
<ellipse fill="none" stroke="#64748b" cx="512.26" cy="-234" rx="38.7" ry="18"/>
<text text-anchor="middle" x="512.26" y="-231.5" font-family="Times-Roman" font-size="10.00" fill="#64748b">wxInclude</text>
</g>
<!-- wxInclude&#45;&gt;boost -->
<g id="edge41" class="edge">
<title>wxInclude&#45;&gt;boost</title>
<path fill="none" stroke="#64748b" stroke-dasharray="5,2" d="M522.22,-216.41C527.36,-207.83 533.75,-197.19 539.46,-187.67"/>
<polygon fill="#64748b" stroke="#64748b" points="542.53,-189.36 544.67,-178.99 536.52,-185.76 542.53,-189.36"/>
</g>
<!-- wxTetris -->
<g id="node47" class="node">
<title>wxTetris</title>
<ellipse fill="none" stroke="#64748b" cx="1625.26" cy="-234" rx="33.61" ry="18"/>
<text text-anchor="middle" x="1625.26" y="-231.5" font-family="Times-Roman" font-size="10.00" fill="#64748b">wxTetris</text>
</g>
<!-- wxTetris&#45;&gt;wxwidgets -->
<g id="edge42" class="edge">
<title>wxTetris&#45;&gt;wxwidgets</title>
<path fill="none" stroke="#64748b" stroke-dasharray="5,2" d="M1625.26,-215.7C1625.26,-207.98 1625.26,-198.71 1625.26,-190.11"/>
<polygon fill="#64748b" stroke="#64748b" points="1628.76,-190.1 1625.26,-180.1 1621.76,-190.1 1628.76,-190.1"/>
</g>
<!-- wxx -->
<g id="node48" class="node">
<title>wxx</title>
<ellipse fill="none" stroke="#64748b" cx="1704.26" cy="-234" rx="27" ry="18"/>
<text text-anchor="middle" x="1704.26" y="-231.5" font-family="Times-Roman" font-size="10.00" fill="#64748b">wxx</text>
</g>
<!-- wxx&#45;&gt;wxwidgets -->
<g id="edge43" class="edge">
<title>wxx&#45;&gt;wxwidgets</title>
<path fill="none" stroke="#64748b" d="M1688.66,-219.17C1677.71,-209.47 1662.84,-196.29 1650.25,-185.14"/>
<polygon fill="#64748b" stroke="#64748b" points="1652.57,-182.52 1642.76,-178.51 1647.93,-187.76 1652.57,-182.52"/>
</g>
<!-- zmqpp -->
<g id="node49" class="node">
<title>zmqpp</title>
<ellipse fill="none" stroke="#64748b" cx="160.26" cy="-234" rx="29.37" ry="18"/>
<text text-anchor="middle" x="160.26" y="-231.5" font-family="Times-Roman" font-size="10.00" fill="#64748b">zmqpp</text>
</g>
<!-- zmqpp&#45;&gt;libzmq -->
<g id="edge44" class="edge">
<title>zmqpp&#45;&gt;libzmq</title>
<path fill="none" stroke="#64748b" d="M159.52,-215.7C159.19,-207.98 158.79,-198.71 158.43,-190.11"/>
<polygon fill="#64748b" stroke="#64748b" points="161.92,-189.95 158,-180.1 154.93,-190.25 161.92,-189.95"/>
</g>
</g>
</svg>
