<?xml version="1.0" encoding="UTF-8" standalone="no"?>
<!DOCTYPE svg PUBLIC "-//W3C//DTD SVG 1.1//EN"
 "http://www.w3.org/Graphics/SVG/1.1/DTD/svg11.dtd">
<!-- Generated by graphviz version 2.44.0 (0)
 -->
<!-- Title: GG Pages: 1 -->
<svg width="1728pt" height="260pt"
 viewBox="0.00 0.00 1727.93 260.00" xmlns="http://www.w3.org/2000/svg" xmlns:xlink="http://www.w3.org/1999/xlink">
<g id="graph0" class="graph" transform="scale(1 1) rotate(0) translate(4 256)">
<title>GG</title>
<!-- FFmpeg -->
<g id="node1" class="node">
<title>FFmpeg</title>
<ellipse fill="none" stroke="#64748b" cx="32.97" cy="-162" rx="32.93" ry="18"/>
<text text-anchor="middle" x="32.97" y="-159.5" font-family="Times-Roman" font-size="10.00" fill="#64748b">FFmpeg</text>
</g>
<!-- openh264 -->
<g id="node2" class="node">
<title>openh264</title>
<ellipse fill="none" stroke="#64748b" cx="73.97" cy="-90" rx="38.03" ry="18"/>
<text text-anchor="middle" x="73.97" y="-87.5" font-family="Times-Roman" font-size="10.00" fill="#64748b">openh264</text>
</g>
<!-- FFmpeg&#45;&gt;openh264 -->
<g id="edge1" class="edge">
<title>FFmpeg&#45;&gt;openh264</title>
<path fill="none" stroke="#64748b" d="M42.47,-144.76C47.42,-136.32 53.58,-125.8 59.14,-116.31"/>
<polygon fill="#64748b" stroke="#64748b" points="62.19,-118.03 64.22,-107.63 56.15,-114.49 62.19,-118.03"/>
</g>
<!-- yasm -->
<g id="node3" class="node">
<title>yasm</title>
<ellipse fill="none" stroke="#64748b" cx="73.97" cy="-18" rx="27" ry="18"/>
<text text-anchor="middle" x="73.97" y="-15.5" font-family="Times-Roman" font-size="10.00" fill="#64748b">yasm</text>
</g>
<!-- FFmpeg&#45;&gt;yasm -->
<g id="edge2" class="edge">
<title>FFmpeg&#45;&gt;yasm</title>
<path fill="none" stroke="#64748b" stroke-dasharray="5,2" d="M27.71,-143.98C22.95,-125.59 17.95,-95.75 26.97,-72 31.67,-59.6 40.75,-48.25 49.68,-39.26"/>
<polygon fill="#64748b" stroke="#64748b" points="52.19,-41.7 57.05,-32.29 47.38,-36.61 52.19,-41.7"/>
</g>
<!-- openh264&#45;&gt;yasm -->
<g id="edge29" class="edge">
<title>openh264&#45;&gt;yasm</title>
<path fill="none" stroke="#64748b" stroke-dasharray="5,2" d="M73.97,-71.7C73.97,-63.98 73.97,-54.71 73.97,-46.11"/>
<polygon fill="#64748b" stroke="#64748b" points="77.47,-46.1 73.97,-36.1 70.47,-46.1 77.47,-46.1"/>
</g>
<!-- LuaBridge -->
<g id="node4" class="node">
<title>LuaBridge</title>
<ellipse fill="none" stroke="#64748b" cx="1065.97" cy="-234" rx="38.03" ry="18"/>
<text text-anchor="middle" x="1065.97" y="-231.5" font-family="Times-Roman" font-size="10.00" fill="#64748b">LuaBridge</text>
</g>
<!-- lua -->
<g id="node5" class="node">
<title>lua</title>
<ellipse fill="none" stroke="#64748b" cx="1065.97" cy="-162" rx="27" ry="18"/>
<text text-anchor="middle" x="1065.97" y="-159.5" font-family="Times-Roman" font-size="10.00" fill="#64748b">lua</text>
</g>
<!-- LuaBridge&#45;&gt;lua -->
<g id="edge3" class="edge">
<title>LuaBridge&#45;&gt;lua</title>
<path fill="none" stroke="#64748b" d="M1065.97,-215.7C1065.97,-207.98 1065.97,-198.71 1065.97,-190.11"/>
<polygon fill="#64748b" stroke="#64748b" points="1069.47,-190.1 1065.97,-180.1 1062.47,-190.1 1069.47,-190.1"/>
</g>
<!-- activemq&#45;cpp -->
<g id="node6" class="node">
<title>activemq&#45;cpp</title>
<ellipse fill="none" stroke="#64748b" cx="156.97" cy="-162" rx="48.72" ry="18"/>
<text text-anchor="middle" x="156.97" y="-159.5" font-family="Times-Roman" font-size="10.00" fill="#64748b">activemq&#45;cpp</text>
</g>
<!-- apr -->
<g id="node7" class="node">
<title>apr</title>
<ellipse fill="none" stroke="#64748b" cx="156.97" cy="-90" rx="27" ry="18"/>
<text text-anchor="middle" x="156.97" y="-87.5" font-family="Times-Roman" font-size="10.00" fill="#64748b">apr</text>
</g>
<!-- activemq&#45;cpp&#45;&gt;apr -->
<g id="edge4" class="edge">
<title>activemq&#45;cpp&#45;&gt;apr</title>
<path fill="none" stroke="#64748b" d="M156.97,-143.7C156.97,-135.98 156.97,-126.71 156.97,-118.11"/>
<polygon fill="#64748b" stroke="#64748b" points="160.47,-118.1 156.97,-108.1 153.47,-118.1 160.47,-118.1"/>
</g>
<!-- openssl -->
<g id="node8" class="node">
<title>openssl</title>
<ellipse fill="none" stroke="#64748b" cx="317.97" cy="-90" rx="31.58" ry="18"/>
<text text-anchor="middle" x="317.97" y="-87.5" font-family="Times-Roman" font-size="10.00" fill="#64748b">openssl</text>
</g>
<!-- activemq&#45;cpp&#45;&gt;openssl -->
<g id="edge5" class="edge">
<title>activemq&#45;cpp&#45;&gt;openssl</title>
<path fill="none" stroke="#64748b" d="M187.25,-147.83C214.91,-135.81 255.74,-118.05 284.39,-105.6"/>
<polygon fill="#64748b" stroke="#64748b" points="285.83,-108.79 293.6,-101.59 283.04,-102.37 285.83,-108.79"/>
</g>
<!-- openssl&#45;&gt;yasm -->
<g id="edge31" class="edge">
<title>openssl&#45;&gt;yasm</title>
<path fill="none" stroke="#64748b" stroke-dasharray="5,2" d="M293.46,-78.19C288.08,-76 282.37,-73.82 276.97,-72 219.16,-52.57 150.14,-35.89 109.29,-26.67"/>
<polygon fill="#64748b" stroke="#64748b" points="109.82,-23.2 99.29,-24.43 108.29,-30.03 109.82,-23.2"/>
</g>
<!-- nasm -->
<g id="node35" class="node">
<title>nasm</title>
<ellipse fill="none" stroke="#64748b" cx="317.97" cy="-18" rx="27" ry="18"/>
<text text-anchor="middle" x="317.97" y="-15.5" font-family="Times-Roman" font-size="10.00" fill="#64748b">nasm</text>
</g>
<!-- openssl&#45;&gt;nasm -->
<g id="edge30" class="edge">
<title>openssl&#45;&gt;nasm</title>
<path fill="none" stroke="#64748b" stroke-dasharray="5,2" d="M317.97,-71.7C317.97,-63.98 317.97,-54.71 317.97,-46.11"/>
<polygon fill="#64748b" stroke="#64748b" points="321.47,-46.1 317.97,-36.1 314.47,-46.1 321.47,-46.1"/>
</g>
<!-- azmq -->
<g id="node9" class="node">
<title>azmq</title>
<ellipse fill="none" stroke="#64748b" cx="699.97" cy="-234" rx="27" ry="18"/>
<text text-anchor="middle" x="699.97" y="-231.5" font-family="Times-Roman" font-size="10.00" fill="#64748b">azmq</text>
</g>
<!-- boost -->
<g id="node10" class="node">
<title>boost</title>
<ellipse fill="none" stroke="#64748b" cx="654.97" cy="-162" rx="27" ry="18"/>
<text text-anchor="middle" x="654.97" y="-159.5" font-family="Times-Roman" font-size="10.00" fill="#64748b">boost</text>
</g>
<!-- azmq&#45;&gt;boost -->
<g id="edge6" class="edge">
<title>azmq&#45;&gt;boost</title>
<path fill="none" stroke="#64748b" d="M689.75,-217.12C684.12,-208.34 676.99,-197.26 670.66,-187.42"/>
<polygon fill="#64748b" stroke="#64748b" points="673.49,-185.34 665.14,-178.82 667.6,-189.13 673.49,-185.34"/>
</g>
<!-- libzmq -->
<g id="node11" class="node">
<title>libzmq</title>
<ellipse fill="none" stroke="#64748b" cx="776.97" cy="-162" rx="29.37" ry="18"/>
<text text-anchor="middle" x="776.97" y="-159.5" font-family="Times-Roman" font-size="10.00" fill="#64748b">libzmq</text>
</g>
<!-- azmq&#45;&gt;libzmq -->
<g id="edge7" class="edge">
<title>azmq&#45;&gt;libzmq</title>
<path fill="none" stroke="#64748b" d="M715.55,-218.83C726.43,-208.94 741.16,-195.55 753.47,-184.36"/>
<polygon fill="#64748b" stroke="#64748b" points="756.1,-186.7 761.14,-177.38 751.39,-181.52 756.1,-186.7"/>
</g>
<!-- bzip2 -->
<g id="node12" class="node">
<title>bzip2</title>
<ellipse fill="none" stroke="#64748b" cx="654.97" cy="-90" rx="27" ry="18"/>
<text text-anchor="middle" x="654.97" y="-87.5" font-family="Times-Roman" font-size="10.00" fill="#64748b">bzip2</text>
</g>
<!-- boost&#45;&gt;bzip2 -->
<g id="edge8" class="edge">
<title>boost&#45;&gt;bzip2</title>
<path fill="none" stroke="#64748b" d="M654.97,-143.7C654.97,-135.98 654.97,-126.71 654.97,-118.11"/>
<polygon fill="#64748b" stroke="#64748b" points="658.47,-118.1 654.97,-108.1 651.47,-118.1 658.47,-118.1"/>
</g>
<!-- zlib -->
<g id="node13" class="node">
<title>zlib</title>
<ellipse fill="none" stroke="#64748b" cx="508.97" cy="-90" rx="27" ry="18"/>
<text text-anchor="middle" x="508.97" y="-87.5" font-family="Times-Roman" font-size="10.00" fill="#64748b">zlib</text>
</g>
<!-- boost&#45;&gt;zlib -->
<g id="edge9" class="edge">
<title>boost&#45;&gt;zlib</title>
<path fill="none" stroke="#64748b" d="M633.74,-150.82C608.87,-138.9 567.48,-119.06 539.25,-105.52"/>
<polygon fill="#64748b" stroke="#64748b" points="540.75,-102.36 530.22,-101.19 537.72,-108.67 540.75,-102.36"/>
</g>
<!-- libsodium -->
<g id="node32" class="node">
<title>libsodium</title>
<ellipse fill="none" stroke="#64748b" cx="776.97" cy="-90" rx="38.03" ry="18"/>
<text text-anchor="middle" x="776.97" y="-87.5" font-family="Times-Roman" font-size="10.00" fill="#64748b">libsodium</text>
</g>
<!-- libzmq&#45;&gt;libsodium -->
<g id="edge27" class="edge">
<title>libzmq&#45;&gt;libsodium</title>
<path fill="none" stroke="#64748b" d="M776.97,-143.7C776.97,-135.98 776.97,-126.71 776.97,-118.11"/>
<polygon fill="#64748b" stroke="#64748b" points="780.47,-118.1 776.97,-108.1 773.47,-118.1 780.47,-118.1"/>
</g>
<!-- ceres&#45;solver -->
<g id="node14" class="node">
<title>ceres&#45;solver</title>
<ellipse fill="none" stroke="#64748b" cx="1167.97" cy="-234" rx="45.15" ry="18"/>
<text text-anchor="middle" x="1167.97" y="-231.5" font-family="Times-Roman" font-size="10.00" fill="#64748b">ceres&#45;solver</text>
</g>
<!-- eigen -->
<g id="node15" class="node">
<title>eigen</title>
<ellipse fill="none" stroke="#64748b" cx="1167.97" cy="-162" rx="27" ry="18"/>
<text text-anchor="middle" x="1167.97" y="-159.5" font-family="Times-Roman" font-size="10.00" fill="#64748b">eigen</text>
</g>
<!-- ceres&#45;solver&#45;&gt;eigen -->
<g id="edge10" class="edge">
<title>ceres&#45;solver&#45;&gt;eigen</title>
<path fill="none" stroke="#64748b" d="M1167.97,-215.7C1167.97,-207.98 1167.97,-198.71 1167.97,-190.11"/>
<polygon fill="#64748b" stroke="#64748b" points="1171.47,-190.1 1167.97,-180.1 1164.47,-190.1 1171.47,-190.1"/>
</g>
<!-- cppzmq -->
<g id="node16" class="node">
<title>cppzmq</title>
<ellipse fill="none" stroke="#64748b" cx="776.97" cy="-234" rx="32.25" ry="18"/>
<text text-anchor="middle" x="776.97" y="-231.5" font-family="Times-Roman" font-size="10.00" fill="#64748b">cppzmq</text>
</g>
<!-- cppzmq&#45;&gt;libzmq -->
<g id="edge11" class="edge">
<title>cppzmq&#45;&gt;libzmq</title>
<path fill="none" stroke="#64748b" d="M776.97,-215.7C776.97,-207.98 776.97,-198.71 776.97,-190.11"/>
<polygon fill="#64748b" stroke="#64748b" points="780.47,-190.1 776.97,-180.1 773.47,-190.1 780.47,-190.1"/>
</g>
<!-- curl -->
<g id="node17" class="node">
<title>curl</title>
<ellipse fill="none" stroke="#64748b" cx="459.97" cy="-234" rx="27" ry="18"/>
<text text-anchor="middle" x="459.97" y="-231.5" font-family="Times-Roman" font-size="10.00" fill="#64748b">curl</text>
</g>
<!-- c&#45;ares -->
<g id="node18" class="node">
<title>c&#45;ares</title>
<ellipse fill="none" stroke="#64748b" cx="581.97" cy="-162" rx="27.84" ry="18"/>
<text text-anchor="middle" x="581.97" y="-159.5" font-family="Times-Roman" font-size="10.00" fill="#64748b">c&#45;ares</text>
</g>
<!-- curl&#45;&gt;c&#45;ares -->
<g id="edge12" class="edge">
<title>curl&#45;&gt;c&#45;ares</title>
<path fill="none" stroke="#64748b" d="M479.84,-221.6C499.66,-210.22 530.32,-192.63 552.88,-179.69"/>
<polygon fill="#64748b" stroke="#64748b" points="554.76,-182.64 561.69,-174.63 551.28,-176.57 554.76,-182.64"/>
</g>
<!-- libssh2 -->
<g id="node19" class="node">
<title>libssh2</title>
<ellipse fill="none" stroke="#64748b" cx="347.97" cy="-162" rx="30.04" ry="18"/>
<text text-anchor="middle" x="347.97" y="-159.5" font-family="Times-Roman" font-size="10.00" fill="#64748b">libssh2</text>
</g>
<!-- curl&#45;&gt;libssh2 -->
<g id="edge13" class="edge">
<title>curl&#45;&gt;libssh2</title>
<path fill="none" stroke="#64748b" d="M440.97,-221.13C423.35,-210.12 396.9,-193.58 376.7,-180.96"/>
<polygon fill="#64748b" stroke="#64748b" points="378.53,-177.98 368.19,-175.64 374.82,-183.91 378.53,-177.98"/>
</g>
<!-- libssh2&#45;&gt;openssl -->
<g id="edge23" class="edge">
<title>libssh2&#45;&gt;openssl</title>
<path fill="none" stroke="#64748b" d="M340.86,-144.41C337.39,-136.34 333.15,-126.43 329.26,-117.35"/>
<polygon fill="#64748b" stroke="#64748b" points="332.39,-115.77 325.23,-107.96 325.95,-118.53 332.39,-115.77"/>
</g>
<!-- libssh2&#45;&gt;zlib -->
<g id="edge24" class="edge">
<title>libssh2&#45;&gt;zlib</title>
<path fill="none" stroke="#64748b" d="M371.47,-150.75C376.58,-148.52 381.95,-146.18 386.97,-144 417.81,-130.58 453.05,-115.27 477.7,-104.57"/>
<polygon fill="#64748b" stroke="#64748b" points="479.14,-107.76 486.92,-100.57 476.36,-101.34 479.14,-107.76"/>
</g>
<!-- fecpp -->
<g id="node20" class="node">
<title>fecpp</title>
<ellipse fill="none" stroke="#64748b" cx="531.97" cy="-234" rx="27" ry="18"/>
<text text-anchor="middle" x="531.97" y="-231.5" font-family="Times-Roman" font-size="10.00" fill="#64748b">fecpp</text>
</g>
<!-- fecpp&#45;&gt;boost -->
<g id="edge14" class="edge">
<title>fecpp&#45;&gt;boost</title>
<path fill="none" stroke="#64748b" stroke-dasharray="5,2" d="M552,-221.6C572.1,-210.16 603.27,-192.42 626.05,-179.46"/>
<polygon fill="#64748b" stroke="#64748b" points="627.98,-182.39 634.94,-174.4 624.52,-176.3 627.98,-182.39"/>
</g>
<!-- hdf5 -->
<g id="node21" class="node">
<title>hdf5</title>
<ellipse fill="none" stroke="#64748b" cx="508.97" cy="-162" rx="27" ry="18"/>
<text text-anchor="middle" x="508.97" y="-159.5" font-family="Times-Roman" font-size="10.00" fill="#64748b">hdf5</text>
</g>
<!-- hdf5&#45;&gt;zlib -->
<g id="edge15" class="edge">
<title>hdf5&#45;&gt;zlib</title>
<path fill="none" stroke="#64748b" d="M508.97,-143.7C508.97,-135.98 508.97,-126.71 508.97,-118.11"/>
<polygon fill="#64748b" stroke="#64748b" points="512.47,-118.1 508.97,-108.1 505.47,-118.1 512.47,-118.1"/>
</g>
<!-- libgeotiff -->
<g id="node22" class="node">
<title>libgeotiff</title>
<ellipse fill="none" stroke="#64748b" cx="1266.97" cy="-234" rx="35.14" ry="18"/>
<text text-anchor="middle" x="1266.97" y="-231.5" font-family="Times-Roman" font-size="10.00" fill="#64748b">libgeotiff</text>
</g>
<!-- wxwidgets -->
<g id="node23" class="node">
<title>wxwidgets</title>
<ellipse fill="none" stroke="#64748b" cx="1353.97" cy="-162" rx="40.74" ry="18"/>
<text text-anchor="middle" x="1353.97" y="-159.5" font-family="Times-Roman" font-size="10.00" fill="#64748b">wxwidgets</text>
</g>
<!-- libgeotiff&#45;&gt;wxwidgets -->
<g id="edge16" class="edge">
<title>libgeotiff&#45;&gt;wxwidgets</title>
<path fill="none" stroke="#64748b" d="M1284.99,-218.5C1297.11,-208.75 1313.3,-195.72 1326.95,-184.74"/>
<polygon fill="#64748b" stroke="#64748b" points="1329.46,-187.21 1335.06,-178.21 1325.07,-181.75 1329.46,-187.21"/>
</g>
<!-- libgit2 -->
<g id="node24" class="node">
<title>libgit2</title>
<ellipse fill="none" stroke="#64748b" cx="347.97" cy="-234" rx="27.84" ry="18"/>
<text text-anchor="middle" x="347.97" y="-231.5" font-family="Times-Roman" font-size="10.00" fill="#64748b">libgit2</text>
</g>
<!-- libgit2&#45;&gt;libssh2 -->
<g id="edge17" class="edge">
<title>libgit2&#45;&gt;libssh2</title>
<path fill="none" stroke="#64748b" d="M347.97,-215.7C347.97,-207.98 347.97,-198.71 347.97,-190.11"/>
<polygon fill="#64748b" stroke="#64748b" points="351.47,-190.1 347.97,-180.1 344.47,-190.1 351.47,-190.1"/>
</g>
<!-- librttopo -->
<g id="node25" class="node">
<title>librttopo</title>
<ellipse fill="none" stroke="#64748b" cx="859.97" cy="-162" rx="34.29" ry="18"/>
<text text-anchor="middle" x="859.97" y="-159.5" font-family="Times-Roman" font-size="10.00" fill="#64748b">librttopo</text>
</g>
<!-- geos -->
<g id="node26" class="node">
<title>geos</title>
<ellipse fill="none" stroke="#64748b" cx="864.97" cy="-90" rx="27" ry="18"/>
<text text-anchor="middle" x="864.97" y="-87.5" font-family="Times-Roman" font-size="10.00" fill="#64748b">geos</text>
</g>
<!-- librttopo&#45;&gt;geos -->
<g id="edge18" class="edge">
<title>librttopo&#45;&gt;geos</title>
<path fill="none" stroke="#64748b" d="M861.2,-143.7C861.75,-135.98 862.41,-126.71 863.03,-118.11"/>
<polygon fill="#64748b" stroke="#64748b" points="866.52,-118.33 863.74,-108.1 859.54,-117.83 866.52,-118.33"/>
</g>
<!-- libspatialite -->
<g id="node27" class="node">
<title>libspatialite</title>
<ellipse fill="none" stroke="#64748b" cx="955.97" cy="-162" rx="43.62" ry="18"/>
<text text-anchor="middle" x="955.97" y="-159.5" font-family="Times-Roman" font-size="10.00" fill="#64748b">libspatialite</text>
</g>
<!-- libspatialite&#45;&gt;zlib -->
<g id="edge22" class="edge">
<title>libspatialite&#45;&gt;zlib</title>
<path fill="none" stroke="#64748b" d="M923.99,-149.7C917.12,-147.57 909.85,-145.53 902.97,-144 778.75,-116.45 744.96,-125.72 618.97,-108 594.3,-104.53 566.58,-100.25 545.14,-96.84"/>
<polygon fill="#64748b" stroke="#64748b" points="545.59,-93.37 535.16,-95.25 544.49,-100.28 545.59,-93.37"/>
</g>
<!-- libspatialite&#45;&gt;geos -->
<g id="edge19" class="edge">
<title>libspatialite&#45;&gt;geos</title>
<path fill="none" stroke="#64748b" d="M936.22,-145.81C922.67,-135.39 904.59,-121.48 890.02,-110.28"/>
<polygon fill="#64748b" stroke="#64748b" points="891.98,-107.37 881.92,-104.04 887.71,-112.91 891.98,-107.37"/>
</g>
<!-- libiconv -->
<g id="node28" class="node">
<title>libiconv</title>
<ellipse fill="none" stroke="#64748b" cx="1029.97" cy="-90" rx="32.25" ry="18"/>
<text text-anchor="middle" x="1029.97" y="-87.5" font-family="Times-Roman" font-size="10.00" fill="#64748b">libiconv</text>
</g>
<!-- libspatialite&#45;&gt;libiconv -->
<g id="edge20" class="edge">
<title>libspatialite&#45;&gt;libiconv</title>
<path fill="none" stroke="#64748b" d="M972.76,-145.12C982.87,-135.55 995.9,-123.23 1006.96,-112.76"/>
<polygon fill="#64748b" stroke="#64748b" points="1009.39,-115.28 1014.25,-105.86 1004.58,-110.19 1009.39,-115.28"/>
</g>
<!-- sqlite3 -->
<g id="node29" class="node">
<title>sqlite3</title>
<ellipse fill="none" stroke="#64748b" cx="949.97" cy="-90" rx="29.37" ry="18"/>
<text text-anchor="middle" x="949.97" y="-87.5" font-family="Times-Roman" font-size="10.00" fill="#64748b">sqlite3</text>
</g>
<!-- libspatialite&#45;&gt;sqlite3 -->
<g id="edge21" class="edge">
<title>libspatialite&#45;&gt;sqlite3</title>
<path fill="none" stroke="#64748b" d="M954.48,-143.7C953.82,-135.98 953.03,-126.71 952.29,-118.11"/>
<polygon fill="#64748b" stroke="#64748b" points="955.77,-117.77 951.43,-108.1 948.8,-118.37 955.77,-117.77"/>
</g>
<!-- libstrophe -->
<g id="node30" class="node">
<title>libstrophe</title>
<ellipse fill="none" stroke="#64748b" cx="261.97" cy="-162" rx="38.03" ry="18"/>
<text text-anchor="middle" x="261.97" y="-159.5" font-family="Times-Roman" font-size="10.00" fill="#64748b">libstrophe</text>
</g>
<!-- libstrophe&#45;&gt;openssl -->
<g id="edge26" class="edge">
<title>libstrophe&#45;&gt;openssl</title>
<path fill="none" stroke="#64748b" d="M274.95,-144.76C282.12,-135.8 291.16,-124.51 299.09,-114.59"/>
<polygon fill="#64748b" stroke="#64748b" points="301.92,-116.66 305.43,-106.67 296.45,-112.29 301.92,-116.66"/>
</g>
<!-- libexpat -->
<g id="node31" class="node">
<title>libexpat</title>
<ellipse fill="none" stroke="#64748b" cx="234.97" cy="-90" rx="32.93" ry="18"/>
<text text-anchor="middle" x="234.97" y="-87.5" font-family="Times-Roman" font-size="10.00" fill="#64748b">libexpat</text>
</g>
<!-- libstrophe&#45;&gt;libexpat -->
<g id="edge25" class="edge">
<title>libstrophe&#45;&gt;libexpat</title>
<path fill="none" stroke="#64748b" d="M255.43,-144.05C252.34,-136.06 248.59,-126.33 245.15,-117.4"/>
<polygon fill="#64748b" stroke="#64748b" points="248.31,-115.86 241.44,-107.79 241.77,-118.38 248.31,-115.86"/>
</g>
<!-- node&#45;addon&#45;api -->
<g id="node33" class="node">
<title>node&#45;addon&#45;api</title>
<ellipse fill="none" stroke="#64748b" cx="1532.97" cy="-234" rx="54.99" ry="18"/>
<text text-anchor="middle" x="1532.97" y="-231.5" font-family="Times-Roman" font-size="10.00" fill="#64748b">node&#45;addon&#45;api</text>
</g>
<!-- nodexp -->
<g id="node34" class="node">
<title>nodexp</title>
<ellipse fill="none" stroke="#64748b" cx="1532.97" cy="-162" rx="31.4" ry="18"/>
<text text-anchor="middle" x="1532.97" y="-159.5" font-family="Times-Roman" font-size="10.00" fill="#64748b">nodexp</text>
</g>
<!-- node&#45;addon&#45;api&#45;&gt;nodexp -->
<g id="edge28" class="edge">
<title>node&#45;addon&#45;api&#45;&gt;nodexp</title>
<path fill="none" stroke="#64748b" d="M1532.97,-215.7C1532.97,-207.98 1532.97,-198.71 1532.97,-190.11"/>
<polygon fill="#64748b" stroke="#64748b" points="1536.47,-190.1 1532.97,-180.1 1529.47,-190.1 1536.47,-190.1"/>
</g>
<!-- protobuf -->
<g id="node36" class="node">
<title>protobuf</title>
<ellipse fill="none" stroke="#64748b" cx="429.97" cy="-162" rx="34.29" ry="18"/>
<text text-anchor="middle" x="429.97" y="-159.5" font-family="Times-Roman" font-size="10.00" fill="#64748b">protobuf</text>
</g>
<!-- protobuf&#45;&gt;zlib -->
<g id="edge32" class="edge">
<title>protobuf&#45;&gt;zlib</title>
<path fill="none" stroke="#64748b" d="M446.72,-146.15C458.01,-136.15 473.07,-122.8 485.55,-111.75"/>
<polygon fill="#64748b" stroke="#64748b" points="488.15,-114.12 493.31,-104.87 483.5,-108.88 488.15,-114.12"/>
</g>
<!-- spatialite&#45;tools -->
<g id="node37" class="node">
<title>spatialite&#45;tools</title>
<ellipse fill="none" stroke="#64748b" cx="956.97" cy="-234" rx="52.96" ry="18"/>
<text text-anchor="middle" x="956.97" y="-231.5" font-family="Times-Roman" font-size="10.00" fill="#64748b">spatialite&#45;tools</text>
</g>
<!-- spatialite&#45;tools&#45;&gt;libspatialite -->
<g id="edge33" class="edge">
<title>spatialite&#45;tools&#45;&gt;libspatialite</title>
<path fill="none" stroke="#64748b" stroke-dasharray="5,2" d="M956.72,-215.7C956.61,-207.98 956.48,-198.71 956.35,-190.11"/>
<polygon fill="#64748b" stroke="#64748b" points="959.85,-190.05 956.21,-180.1 952.85,-190.15 959.85,-190.05"/>
</g>
<!-- spdlog -->
<g id="node38" class="node">
<title>spdlog</title>
<ellipse fill="none" stroke="#64748b" cx="1660.97" cy="-234" rx="28.69" ry="18"/>
<text text-anchor="middle" x="1660.97" y="-231.5" font-family="Times-Roman" font-size="10.00" fill="#64748b">spdlog</text>
</g>
<!-- fmt -->
<g id="node39" class="node">
<title>fmt</title>
<ellipse fill="none" stroke="#64748b" cx="1608.97" cy="-162" rx="27" ry="18"/>
<text text-anchor="middle" x="1608.97" y="-159.5" font-family="Times-Roman" font-size="10.00" fill="#64748b">fmt</text>
</g>
<!-- spdlog&#45;&gt;fmt -->
<g id="edge34" class="edge">
<title>spdlog&#45;&gt;fmt</title>
<path fill="none" stroke="#64748b" d="M1649.42,-217.46C1642.69,-208.4 1634.06,-196.79 1626.51,-186.61"/>
<polygon fill="#64748b" stroke="#64748b" points="1629.25,-184.43 1620.47,-178.49 1623.63,-188.61 1629.25,-184.43"/>
</g>
<!-- Threads -->
<g id="node40" class="node">
<title>Threads</title>
<ellipse fill="none" stroke="#64748b" cx="1686.97" cy="-162" rx="32.93" ry="18"/>
<text text-anchor="middle" x="1686.97" y="-159.5" font-family="Times-Roman" font-size="10.00" fill="#64748b">Threads</text>
</g>
<!-- spdlog&#45;&gt;Threads -->
<g id="edge35" class="edge">
<title>spdlog&#45;&gt;Threads</title>
<path fill="none" stroke="#64748b" d="M1667.13,-216.41C1670.13,-208.34 1673.8,-198.43 1677.18,-189.35"/>
<polygon fill="#64748b" stroke="#64748b" points="1680.47,-190.55 1680.67,-179.96 1673.9,-188.11 1680.47,-190.55"/>
</g>
<!-- wxInclude -->
<g id="node41" class="node">
<title>wxInclude</title>
<ellipse fill="none" stroke="#64748b" cx="615.97" cy="-234" rx="38.7" ry="18"/>
<text text-anchor="middle" x="615.97" y="-231.5" font-family="Times-Roman" font-size="10.00" fill="#64748b">wxInclude</text>
</g>
<!-- wxInclude&#45;&gt;boost -->
<g id="edge36" class="edge">
<title>wxInclude&#45;&gt;boost</title>
<path fill="none" stroke="#64748b" stroke-dasharray="5,2" d="M625.21,-216.41C629.87,-208.04 635.63,-197.71 640.83,-188.37"/>
<polygon fill="#64748b" stroke="#64748b" points="643.98,-189.91 645.79,-179.47 637.86,-186.5 643.98,-189.91"/>
</g>
<!-- wxTetris -->
<g id="node42" class="node">
<title>wxTetris</title>
<ellipse fill="none" stroke="#64748b" cx="1353.97" cy="-234" rx="33.61" ry="18"/>
<text text-anchor="middle" x="1353.97" y="-231.5" font-family="Times-Roman" font-size="10.00" fill="#64748b">wxTetris</text>
</g>
<!-- wxTetris&#45;&gt;wxwidgets -->
<g id="edge37" class="edge">
<title>wxTetris&#45;&gt;wxwidgets</title>
<path fill="none" stroke="#64748b" stroke-dasharray="5,2" d="M1353.97,-215.7C1353.97,-207.98 1353.97,-198.71 1353.97,-190.11"/>
<polygon fill="#64748b" stroke="#64748b" points="1357.47,-190.1 1353.97,-180.1 1350.47,-190.1 1357.47,-190.1"/>
</g>
<!-- wxx -->
<g id="node43" class="node">
<title>wxx</title>
<ellipse fill="none" stroke="#64748b" cx="1432.97" cy="-234" rx="27" ry="18"/>
<text text-anchor="middle" x="1432.97" y="-231.5" font-family="Times-Roman" font-size="10.00" fill="#64748b">wxx</text>
</g>
<!-- wxx&#45;&gt;wxwidgets -->
<g id="edge38" class="edge">
<title>wxx&#45;&gt;wxwidgets</title>
<path fill="none" stroke="#64748b" d="M1417.36,-219.17C1406.41,-209.47 1391.54,-196.29 1378.95,-185.14"/>
<polygon fill="#64748b" stroke="#64748b" points="1381.27,-182.52 1371.47,-178.51 1376.63,-187.76 1381.27,-182.52"/>
</g>
<!-- zmqpp -->
<g id="node44" class="node">
<title>zmqpp</title>
<ellipse fill="none" stroke="#64748b" cx="856.97" cy="-234" rx="29.37" ry="18"/>
<text text-anchor="middle" x="856.97" y="-231.5" font-family="Times-Roman" font-size="10.00" fill="#64748b">zmqpp</text>
</g>
<!-- zmqpp&#45;&gt;libzmq -->
<g id="edge39" class="edge">
<title>zmqpp&#45;&gt;libzmq</title>
<path fill="none" stroke="#64748b" d="M840.78,-218.83C829.28,-208.78 813.66,-195.11 800.76,-183.82"/>
<polygon fill="#64748b" stroke="#64748b" points="802.96,-181.1 793.13,-177.14 798.35,-186.36 802.96,-181.1"/>
</g>
</g>
</svg>
