<?xml version="1.0" encoding="UTF-8" standalone="no"?>
<!DOCTYPE svg PUBLIC "-//W3C//DTD SVG 1.1//EN"
 "http://www.w3.org/Graphics/SVG/1.1/DTD/svg11.dtd">
<!-- Generated by graphviz version 14.1.2 (20260124.0452)
 -->
<!-- Title: GG Pages: 1 -->
<svg width="1720pt" height="260pt"
 viewBox="0.00 0.00 1720.00 260.00" xmlns="http://www.w3.org/2000/svg" xmlns:xlink="http://www.w3.org/1999/xlink">
<g id="graph0" class="graph" transform="scale(1 1) rotate(0) translate(4 256)">
<title>GG</title>
<polygon fill="white" stroke="none" points="-4,4 -4,-256 1715.93,-256 1715.93,4 -4,4"/>
<!-- activemq&#45;cpp -->
<g id="node1" class="node">
<title>activemq&#45;cpp</title>
<ellipse fill="none" stroke="black" cx="50.72" cy="-162" rx="50.72" ry="18"/>
<text xml:space="preserve" text-anchor="middle" x="50.72" y="-157.72" font-family="Times,serif" font-size="12.00">activemq&#45;cpp</text>
</g>
<!-- apr -->
<g id="node2" class="node">
<title>apr</title>
<ellipse fill="none" stroke="black" cx="43.72" cy="-90" rx="27" ry="18"/>
<text xml:space="preserve" text-anchor="middle" x="43.72" y="-85.72" font-family="Times,serif" font-size="12.00">apr</text>
</g>
<!-- activemq&#45;cpp&#45;&gt;apr -->
<g id="edge1" class="edge">
<title>activemq&#45;cpp&#45;&gt;apr</title>
<path fill="none" stroke="black" d="M48.99,-143.7C48.26,-136.41 47.4,-127.73 46.58,-119.54"/>
<polygon fill="black" stroke="black" points="50.06,-119.21 45.58,-109.61 43.1,-119.91 50.06,-119.21"/>
</g>
<!-- openssl -->
<g id="node3" class="node">
<title>openssl</title>
<ellipse fill="none" stroke="black" cx="207.72" cy="-90" rx="32.6" ry="18"/>
<text xml:space="preserve" text-anchor="middle" x="207.72" y="-85.72" font-family="Times,serif" font-size="12.00">openssl</text>
</g>
<!-- activemq&#45;cpp&#45;&gt;openssl -->
<g id="edge2" class="edge">
<title>activemq&#45;cpp&#45;&gt;openssl</title>
<path fill="none" stroke="black" d="M81.37,-147.34C107.52,-135.68 145.14,-118.9 172.52,-106.69"/>
<polygon fill="black" stroke="black" points="173.75,-109.98 181.46,-102.71 170.9,-103.59 173.75,-109.98"/>
</g>
<!-- yasm -->
<g id="node18" class="node">
<title>yasm</title>
<ellipse fill="none" stroke="black" cx="273.72" cy="-18" rx="27" ry="18"/>
<text xml:space="preserve" text-anchor="middle" x="273.72" y="-13.72" font-family="Times,serif" font-size="12.00">yasm</text>
</g>
<!-- openssl&#45;&gt;yasm -->
<g id="edge31" class="edge">
<title>openssl&#45;&gt;yasm</title>
<path fill="none" stroke="black" d="M222.37,-73.46C231.15,-64.15 242.48,-52.14 252.26,-41.77"/>
<polygon fill="black" stroke="black" points="254.67,-44.31 258.98,-34.64 249.57,-39.51 254.67,-44.31"/>
</g>
<!-- nasm -->
<g id="node35" class="node">
<title>nasm</title>
<ellipse fill="none" stroke="black" cx="201.72" cy="-18" rx="27" ry="18"/>
<text xml:space="preserve" text-anchor="middle" x="201.72" y="-13.72" font-family="Times,serif" font-size="12.00">nasm</text>
</g>
<!-- openssl&#45;&gt;nasm -->
<g id="edge30" class="edge">
<title>openssl&#45;&gt;nasm</title>
<path fill="none" stroke="black" d="M206.24,-71.7C205.61,-64.41 204.87,-55.73 204.17,-47.54"/>
<polygon fill="black" stroke="black" points="207.66,-47.28 203.32,-37.61 200.69,-47.87 207.66,-47.28"/>
</g>
<!-- azmq -->
<g id="node4" class="node">
<title>azmq</title>
<ellipse fill="none" stroke="black" cx="728.72" cy="-234" rx="27" ry="18"/>
<text xml:space="preserve" text-anchor="middle" x="728.72" y="-229.72" font-family="Times,serif" font-size="12.00">azmq</text>
</g>
<!-- boost -->
<g id="node5" class="node">
<title>boost</title>
<ellipse fill="none" stroke="black" cx="661.72" cy="-162" rx="27" ry="18"/>
<text xml:space="preserve" text-anchor="middle" x="661.72" y="-157.72" font-family="Times,serif" font-size="12.00">boost</text>
</g>
<!-- azmq&#45;&gt;boost -->
<g id="edge3" class="edge">
<title>azmq&#45;&gt;boost</title>
<path fill="none" stroke="black" d="M714.84,-218.5C705.77,-209.02 693.73,-196.44 683.41,-185.66"/>
<polygon fill="black" stroke="black" points="686.08,-183.38 676.63,-178.58 681.02,-188.22 686.08,-183.38"/>
</g>
<!-- libzmq -->
<g id="node6" class="node">
<title>libzmq</title>
<ellipse fill="none" stroke="black" cx="807.72" cy="-162" rx="30.69" ry="18"/>
<text xml:space="preserve" text-anchor="middle" x="807.72" y="-157.72" font-family="Times,serif" font-size="12.00">libzmq</text>
</g>
<!-- azmq&#45;&gt;libzmq -->
<g id="edge4" class="edge">
<title>azmq&#45;&gt;libzmq</title>
<path fill="none" stroke="black" d="M744.33,-219.17C755.36,-209.39 770.38,-196.09 783.03,-184.88"/>
<polygon fill="black" stroke="black" points="785.04,-187.78 790.2,-178.53 780.39,-182.54 785.04,-187.78"/>
</g>
<!-- bzip2 -->
<g id="node7" class="node">
<title>bzip2</title>
<ellipse fill="none" stroke="black" cx="661.72" cy="-90" rx="27" ry="18"/>
<text xml:space="preserve" text-anchor="middle" x="661.72" y="-85.72" font-family="Times,serif" font-size="12.00">bzip2</text>
</g>
<!-- boost&#45;&gt;bzip2 -->
<g id="edge5" class="edge">
<title>boost&#45;&gt;bzip2</title>
<path fill="none" stroke="black" d="M661.72,-143.7C661.72,-136.41 661.72,-127.73 661.72,-119.54"/>
<polygon fill="black" stroke="black" points="665.22,-119.62 661.72,-109.62 658.22,-119.62 665.22,-119.62"/>
</g>
<!-- zlib -->
<g id="node8" class="node">
<title>zlib</title>
<ellipse fill="none" stroke="black" cx="515.72" cy="-90" rx="27" ry="18"/>
<text xml:space="preserve" text-anchor="middle" x="515.72" y="-85.72" font-family="Times,serif" font-size="12.00">zlib</text>
</g>
<!-- boost&#45;&gt;zlib -->
<g id="edge6" class="edge">
<title>boost&#45;&gt;zlib</title>
<path fill="none" stroke="black" d="M640.18,-150.67C615.7,-138.94 575.52,-119.67 547.46,-106.22"/>
<polygon fill="black" stroke="black" points="549.25,-103.19 538.72,-102.03 546.22,-109.5 549.25,-103.19"/>
</g>
<!-- libsodium -->
<g id="node30" class="node">
<title>libsodium</title>
<ellipse fill="none" stroke="black" cx="807.72" cy="-90" rx="39.75" ry="18"/>
<text xml:space="preserve" text-anchor="middle" x="807.72" y="-85.72" font-family="Times,serif" font-size="12.00">libsodium</text>
</g>
<!-- libzmq&#45;&gt;libsodium -->
<g id="edge26" class="edge">
<title>libzmq&#45;&gt;libsodium</title>
<path fill="none" stroke="black" d="M807.72,-143.7C807.72,-136.41 807.72,-127.73 807.72,-119.54"/>
<polygon fill="black" stroke="black" points="811.22,-119.62 807.72,-109.62 804.22,-119.62 811.22,-119.62"/>
</g>
<!-- ceres&#45;solver -->
<g id="node9" class="node">
<title>ceres&#45;solver</title>
<ellipse fill="none" stroke="black" cx="1109.72" cy="-234" rx="45.95" ry="18"/>
<text xml:space="preserve" text-anchor="middle" x="1109.72" y="-229.72" font-family="Times,serif" font-size="12.00">ceres&#45;solver</text>
</g>
<!-- eigen -->
<g id="node10" class="node">
<title>eigen</title>
<ellipse fill="none" stroke="black" cx="1109.72" cy="-162" rx="27" ry="18"/>
<text xml:space="preserve" text-anchor="middle" x="1109.72" y="-157.72" font-family="Times,serif" font-size="12.00">eigen</text>
</g>
<!-- ceres&#45;solver&#45;&gt;eigen -->
<g id="edge7" class="edge">
<title>ceres&#45;solver&#45;&gt;eigen</title>
<path fill="none" stroke="black" d="M1109.72,-215.7C1109.72,-208.41 1109.72,-199.73 1109.72,-191.54"/>
<polygon fill="black" stroke="black" points="1113.22,-191.62 1109.72,-181.62 1106.22,-191.62 1113.22,-191.62"/>
</g>
<!-- cppzmq -->
<g id="node11" class="node">
<title>cppzmq</title>
<ellipse fill="none" stroke="black" cx="807.72" cy="-234" rx="34.03" ry="18"/>
<text xml:space="preserve" text-anchor="middle" x="807.72" y="-229.72" font-family="Times,serif" font-size="12.00">cppzmq</text>
</g>
<!-- cppzmq&#45;&gt;libzmq -->
<g id="edge8" class="edge">
<title>cppzmq&#45;&gt;libzmq</title>
<path fill="none" stroke="black" d="M807.72,-215.7C807.72,-208.41 807.72,-199.73 807.72,-191.54"/>
<polygon fill="black" stroke="black" points="811.22,-191.62 807.72,-181.62 804.22,-191.62 811.22,-191.62"/>
</g>
<!-- curl -->
<g id="node12" class="node">
<title>curl</title>
<ellipse fill="none" stroke="black" cx="462.72" cy="-234" rx="27" ry="18"/>
<text xml:space="preserve" text-anchor="middle" x="462.72" y="-229.72" font-family="Times,serif" font-size="12.00">curl</text>
</g>
<!-- c&#45;ares -->
<g id="node13" class="node">
<title>c&#45;ares</title>
<ellipse fill="none" stroke="black" cx="588.72" cy="-162" rx="27.83" ry="18"/>
<text xml:space="preserve" text-anchor="middle" x="588.72" y="-157.72" font-family="Times,serif" font-size="12.00">c&#45;ares</text>
</g>
<!-- curl&#45;&gt;c&#45;ares -->
<g id="edge9" class="edge">
<title>curl&#45;&gt;c&#45;ares</title>
<path fill="none" stroke="black" d="M482.97,-221.75C503.33,-210.44 534.97,-192.86 558.34,-179.88"/>
<polygon fill="black" stroke="black" points="559.75,-183.1 566.79,-175.19 556.35,-176.98 559.75,-183.1"/>
</g>
<!-- libssh2 -->
<g id="node14" class="node">
<title>libssh2</title>
<ellipse fill="none" stroke="black" cx="349.72" cy="-162" rx="31.17" ry="18"/>
<text xml:space="preserve" text-anchor="middle" x="349.72" y="-157.72" font-family="Times,serif" font-size="12.00">libssh2</text>
</g>
<!-- curl&#45;&gt;libssh2 -->
<g id="edge10" class="edge">
<title>curl&#45;&gt;libssh2</title>
<path fill="none" stroke="black" d="M443.3,-220.97C425.92,-210.2 400.15,-194.24 380.06,-181.79"/>
<polygon fill="black" stroke="black" points="382.05,-178.91 371.71,-176.62 378.37,-184.86 382.05,-178.91"/>
</g>
<!-- libssh2&#45;&gt;openssl -->
<g id="edge22" class="edge">
<title>libssh2&#45;&gt;openssl</title>
<path fill="none" stroke="black" d="M326.59,-149.6C303.52,-138.22 267.83,-120.63 241.57,-107.69"/>
<polygon fill="black" stroke="black" points="243.19,-104.58 232.67,-103.3 240.1,-110.86 243.19,-104.58"/>
</g>
<!-- libssh2&#45;&gt;zlib -->
<g id="edge23" class="edge">
<title>libssh2&#45;&gt;zlib</title>
<path fill="none" stroke="black" d="M374.26,-150.56C379.37,-148.39 384.72,-146.12 389.72,-144 421.33,-130.64 457.43,-115.46 482.87,-104.78"/>
<polygon fill="black" stroke="black" points="484.15,-108.04 492.01,-100.94 481.44,-101.59 484.15,-108.04"/>
</g>
<!-- fecpp -->
<g id="node15" class="node">
<title>fecpp</title>
<ellipse fill="none" stroke="black" cx="554.72" cy="-234" rx="27" ry="18"/>
<text xml:space="preserve" text-anchor="middle" x="554.72" y="-229.72" font-family="Times,serif" font-size="12.00">fecpp</text>
</g>
<!-- fecpp&#45;&gt;boost -->
<g id="edge11" class="edge">
<title>fecpp&#45;&gt;boost</title>
<path fill="none" stroke="black" d="M573.36,-220.81C589.91,-209.98 614.33,-194 633.31,-181.59"/>
<polygon fill="black" stroke="black" points="635.22,-184.52 641.67,-176.12 631.39,-178.66 635.22,-184.52"/>
</g>
<!-- ffmpeg -->
<g id="node16" class="node">
<title>ffmpeg</title>
<ellipse fill="none" stroke="black" cx="268.72" cy="-162" rx="31.64" ry="18"/>
<text xml:space="preserve" text-anchor="middle" x="268.72" y="-157.72" font-family="Times,serif" font-size="12.00">ffmpeg</text>
</g>
<!-- openh264 -->
<g id="node17" class="node">
<title>openh264</title>
<ellipse fill="none" stroke="black" cx="336.72" cy="-90" rx="40.23" ry="18"/>
<text xml:space="preserve" text-anchor="middle" x="336.72" y="-85.72" font-family="Times,serif" font-size="12.00">openh264</text>
</g>
<!-- ffmpeg&#45;&gt;openh264 -->
<g id="edge12" class="edge">
<title>ffmpeg&#45;&gt;openh264</title>
<path fill="none" stroke="black" d="M283.48,-145.81C292.27,-136.76 303.61,-125.08 313.57,-114.83"/>
<polygon fill="black" stroke="black" points="316.01,-117.34 320.47,-107.73 310.99,-112.46 316.01,-117.34"/>
</g>
<!-- ffmpeg&#45;&gt;yasm -->
<g id="edge13" class="edge">
<title>ffmpeg&#45;&gt;yasm</title>
<path fill="none" stroke="black" d="M269.34,-143.59C270.18,-119.61 271.71,-76.14 272.72,-47.42"/>
<polygon fill="black" stroke="black" points="276.21,-47.74 273.07,-37.62 269.22,-47.49 276.21,-47.74"/>
</g>
<!-- openh264&#45;&gt;yasm -->
<g id="edge29" class="edge">
<title>openh264&#45;&gt;yasm</title>
<path fill="none" stroke="black" d="M322.11,-72.76C313.9,-63.64 303.52,-52.11 294.48,-42.06"/>
<polygon fill="black" stroke="black" points="297.27,-39.93 287.98,-34.84 292.07,-44.62 297.27,-39.93"/>
</g>
<!-- hdf5 -->
<g id="node19" class="node">
<title>hdf5</title>
<ellipse fill="none" stroke="black" cx="515.72" cy="-162" rx="27" ry="18"/>
<text xml:space="preserve" text-anchor="middle" x="515.72" y="-157.72" font-family="Times,serif" font-size="12.00">hdf5</text>
</g>
<!-- hdf5&#45;&gt;zlib -->
<g id="edge14" class="edge">
<title>hdf5&#45;&gt;zlib</title>
<path fill="none" stroke="black" d="M515.72,-143.7C515.72,-136.41 515.72,-127.73 515.72,-119.54"/>
<polygon fill="black" stroke="black" points="519.22,-119.62 515.72,-109.62 512.22,-119.62 519.22,-119.62"/>
</g>
<!-- libgeotiff -->
<g id="node20" class="node">
<title>libgeotiff</title>
<ellipse fill="none" stroke="black" cx="1210.72" cy="-234" rx="37.37" ry="18"/>
<text xml:space="preserve" text-anchor="middle" x="1210.72" y="-229.72" font-family="Times,serif" font-size="12.00">libgeotiff</text>
</g>
<!-- wxwidgets -->
<g id="node21" class="node">
<title>wxwidgets</title>
<ellipse fill="none" stroke="black" cx="1299.72" cy="-162" rx="43.09" ry="18"/>
<text xml:space="preserve" text-anchor="middle" x="1299.72" y="-157.72" font-family="Times,serif" font-size="12.00">wxwidgets</text>
</g>
<!-- libgeotiff&#45;&gt;wxwidgets -->
<g id="edge15" class="edge">
<title>libgeotiff&#45;&gt;wxwidgets</title>
<path fill="none" stroke="black" d="M1229.6,-218.15C1241.7,-208.63 1257.65,-196.09 1271.27,-185.38"/>
<polygon fill="black" stroke="black" points="1273.37,-188.18 1279.07,-179.24 1269.05,-182.67 1273.37,-188.18"/>
</g>
<!-- libgit2 -->
<g id="node22" class="node">
<title>libgit2</title>
<ellipse fill="none" stroke="black" cx="349.72" cy="-234" rx="29.26" ry="18"/>
<text xml:space="preserve" text-anchor="middle" x="349.72" y="-229.72" font-family="Times,serif" font-size="12.00">libgit2</text>
</g>
<!-- libgit2&#45;&gt;libssh2 -->
<g id="edge16" class="edge">
<title>libgit2&#45;&gt;libssh2</title>
<path fill="none" stroke="black" d="M349.72,-215.7C349.72,-208.41 349.72,-199.73 349.72,-191.54"/>
<polygon fill="black" stroke="black" points="353.22,-191.62 349.72,-181.62 346.22,-191.62 353.22,-191.62"/>
</g>
<!-- librttopo -->
<g id="node23" class="node">
<title>librttopo</title>
<ellipse fill="none" stroke="black" cx="893.72" cy="-162" rx="35.46" ry="18"/>
<text xml:space="preserve" text-anchor="middle" x="893.72" y="-157.72" font-family="Times,serif" font-size="12.00">librttopo</text>
</g>
<!-- geos -->
<g id="node24" class="node">
<title>geos</title>
<ellipse fill="none" stroke="black" cx="899.72" cy="-90" rx="27" ry="18"/>
<text xml:space="preserve" text-anchor="middle" x="899.72" y="-85.72" font-family="Times,serif" font-size="12.00">geos</text>
</g>
<!-- librttopo&#45;&gt;geos -->
<g id="edge17" class="edge">
<title>librttopo&#45;&gt;geos</title>
<path fill="none" stroke="black" d="M895.21,-143.7C895.83,-136.41 896.57,-127.73 897.28,-119.54"/>
<polygon fill="black" stroke="black" points="900.76,-119.87 898.13,-109.61 893.79,-119.28 900.76,-119.87"/>
</g>
<!-- libspatialite -->
<g id="node25" class="node">
<title>libspatialite</title>
<ellipse fill="none" stroke="black" cx="991.72" cy="-162" rx="44.04" ry="18"/>
<text xml:space="preserve" text-anchor="middle" x="991.72" y="-157.72" font-family="Times,serif" font-size="12.00">libspatialite</text>
</g>
<!-- libspatialite&#45;&gt;zlib -->
<g id="edge21" class="edge">
<title>libspatialite&#45;&gt;zlib</title>
<path fill="none" stroke="black" d="M958.86,-149.56C951.94,-147.46 944.64,-145.47 937.72,-144 801.2,-114.91 764.06,-126.66 625.72,-108 601.49,-104.73 574.33,-100.54 553.06,-97.14"/>
<polygon fill="black" stroke="black" points="553.83,-93.71 543.4,-95.58 552.72,-100.63 553.83,-93.71"/>
</g>
<!-- libspatialite&#45;&gt;geos -->
<g id="edge18" class="edge">
<title>libspatialite&#45;&gt;geos</title>
<path fill="none" stroke="black" d="M971.76,-145.81C958.41,-135.65 940.69,-122.17 926.17,-111.12"/>
<polygon fill="black" stroke="black" points="928.45,-108.46 918.37,-105.19 924.21,-114.03 928.45,-108.46"/>
</g>
<!-- libiconv -->
<g id="node26" class="node">
<title>libiconv</title>
<ellipse fill="none" stroke="black" cx="1067.72" cy="-90" rx="34.5" ry="18"/>
<text xml:space="preserve" text-anchor="middle" x="1067.72" y="-85.72" font-family="Times,serif" font-size="12.00">libiconv</text>
</g>
<!-- libspatialite&#45;&gt;libiconv -->
<g id="edge19" class="edge">
<title>libspatialite&#45;&gt;libiconv</title>
<path fill="none" stroke="black" d="M1008.97,-145.12C1018.99,-135.89 1031.79,-124.1 1042.88,-113.88"/>
<polygon fill="black" stroke="black" points="1045.23,-116.48 1050.21,-107.13 1040.49,-111.33 1045.23,-116.48"/>
</g>
<!-- sqlite3 -->
<g id="node27" class="node">
<title>sqlite3</title>
<ellipse fill="none" stroke="black" cx="985.72" cy="-90" rx="29.73" ry="18"/>
<text xml:space="preserve" text-anchor="middle" x="985.72" y="-85.72" font-family="Times,serif" font-size="12.00">sqlite3</text>
</g>
<!-- libspatialite&#45;&gt;sqlite3 -->
<g id="edge20" class="edge">
<title>libspatialite&#45;&gt;sqlite3</title>
<path fill="none" stroke="black" d="M990.24,-143.7C989.61,-136.41 988.87,-127.73 988.17,-119.54"/>
<polygon fill="black" stroke="black" points="991.66,-119.28 987.32,-109.61 984.69,-119.87 991.66,-119.28"/>
</g>
<!-- libstrophe -->
<g id="node28" class="node">
<title>libstrophe</title>
<ellipse fill="none" stroke="black" cx="172.72" cy="-162" rx="39.75" ry="18"/>
<text xml:space="preserve" text-anchor="middle" x="172.72" y="-157.72" font-family="Times,serif" font-size="12.00">libstrophe</text>
</g>
<!-- libstrophe&#45;&gt;openssl -->
<g id="edge25" class="edge">
<title>libstrophe&#45;&gt;openssl</title>
<path fill="none" stroke="black" d="M181.2,-144.05C185.11,-136.23 189.85,-126.75 194.23,-117.98"/>
<polygon fill="black" stroke="black" points="197.31,-119.65 198.65,-109.14 191.05,-116.52 197.31,-119.65"/>
</g>
<!-- libexpat -->
<g id="node29" class="node">
<title>libexpat</title>
<ellipse fill="none" stroke="black" cx="122.72" cy="-90" rx="34.03" ry="18"/>
<text xml:space="preserve" text-anchor="middle" x="122.72" y="-85.72" font-family="Times,serif" font-size="12.00">libexpat</text>
</g>
<!-- libstrophe&#45;&gt;libexpat -->
<g id="edge24" class="edge">
<title>libstrophe&#45;&gt;libexpat</title>
<path fill="none" stroke="black" d="M160.87,-144.41C154.87,-136.01 147.46,-125.63 140.77,-116.26"/>
<polygon fill="black" stroke="black" points="143.68,-114.32 135.02,-108.22 137.99,-118.39 143.68,-114.32"/>
</g>
<!-- luabridge -->
<g id="node31" class="node">
<title>luabridge</title>
<ellipse fill="none" stroke="black" cx="1461.72" cy="-234" rx="38.32" ry="18"/>
<text xml:space="preserve" text-anchor="middle" x="1461.72" y="-229.72" font-family="Times,serif" font-size="12.00">luabridge</text>
</g>
<!-- lua -->
<g id="node32" class="node">
<title>lua</title>
<ellipse fill="none" stroke="black" cx="1461.72" cy="-162" rx="27" ry="18"/>
<text xml:space="preserve" text-anchor="middle" x="1461.72" y="-157.72" font-family="Times,serif" font-size="12.00">lua</text>
</g>
<!-- luabridge&#45;&gt;lua -->
<g id="edge27" class="edge">
<title>luabridge&#45;&gt;lua</title>
<path fill="none" stroke="black" d="M1461.72,-215.7C1461.72,-208.41 1461.72,-199.73 1461.72,-191.54"/>
<polygon fill="black" stroke="black" points="1465.22,-191.62 1461.72,-181.62 1458.22,-191.62 1465.22,-191.62"/>
</g>
<!-- node&#45;addon&#45;api -->
<g id="node33" class="node">
<title>node&#45;addon&#45;api</title>
<ellipse fill="none" stroke="black" cx="1575.72" cy="-234" rx="57.4" ry="18"/>
<text xml:space="preserve" text-anchor="middle" x="1575.72" y="-229.72" font-family="Times,serif" font-size="12.00">node&#45;addon&#45;api</text>
</g>
<!-- nodexp -->
<g id="node34" class="node">
<title>nodexp</title>
<ellipse fill="none" stroke="black" cx="1575.72" cy="-162" rx="32.6" ry="18"/>
<text xml:space="preserve" text-anchor="middle" x="1575.72" y="-157.72" font-family="Times,serif" font-size="12.00">nodexp</text>
</g>
<!-- node&#45;addon&#45;api&#45;&gt;nodexp -->
<g id="edge28" class="edge">
<title>node&#45;addon&#45;api&#45;&gt;nodexp</title>
<path fill="none" stroke="black" d="M1575.72,-215.7C1575.72,-208.41 1575.72,-199.73 1575.72,-191.54"/>
<polygon fill="black" stroke="black" points="1579.22,-191.62 1575.72,-181.62 1572.22,-191.62 1579.22,-191.62"/>
</g>
<!-- protobuf -->
<g id="node36" class="node">
<title>protobuf</title>
<ellipse fill="none" stroke="black" cx="434.72" cy="-162" rx="35.94" ry="18"/>
<text xml:space="preserve" text-anchor="middle" x="434.72" y="-157.72" font-family="Times,serif" font-size="12.00">protobuf</text>
</g>
<!-- protobuf&#45;&gt;zlib -->
<g id="edge32" class="edge">
<title>protobuf&#45;&gt;zlib</title>
<path fill="none" stroke="black" d="M452.3,-145.81C463.68,-135.97 478.66,-123.03 491.21,-112.18"/>
<polygon fill="black" stroke="black" points="493.41,-114.91 498.68,-105.73 488.83,-109.62 493.41,-114.91"/>
</g>
<!-- spatialite&#45;tools -->
<g id="node37" class="node">
<title>spatialite&#45;tools</title>
<ellipse fill="none" stroke="black" cx="992.72" cy="-234" rx="53.11" ry="18"/>
<text xml:space="preserve" text-anchor="middle" x="992.72" y="-229.72" font-family="Times,serif" font-size="12.00">spatialite&#45;tools</text>
</g>
<!-- spatialite&#45;tools&#45;&gt;libspatialite -->
<g id="edge33" class="edge">
<title>spatialite&#45;tools&#45;&gt;libspatialite</title>
<path fill="none" stroke="black" d="M992.48,-215.7C992.37,-208.41 992.25,-199.73 992.13,-191.54"/>
<polygon fill="black" stroke="black" points="995.63,-191.57 991.99,-181.62 988.63,-191.67 995.63,-191.57"/>
</g>
<!-- spdlog -->
<g id="node38" class="node">
<title>spdlog</title>
<ellipse fill="none" stroke="black" cx="1681.72" cy="-234" rx="30.21" ry="18"/>
<text xml:space="preserve" text-anchor="middle" x="1681.72" y="-229.72" font-family="Times,serif" font-size="12.00">spdlog</text>
</g>
<!-- fmt -->
<g id="node39" class="node">
<title>fmt</title>
<ellipse fill="none" stroke="black" cx="1681.72" cy="-162" rx="27" ry="18"/>
<text xml:space="preserve" text-anchor="middle" x="1681.72" y="-157.72" font-family="Times,serif" font-size="12.00">fmt</text>
</g>
<!-- spdlog&#45;&gt;fmt -->
<g id="edge34" class="edge">
<title>spdlog&#45;&gt;fmt</title>
<path fill="none" stroke="black" d="M1681.72,-215.7C1681.72,-208.41 1681.72,-199.73 1681.72,-191.54"/>
<polygon fill="black" stroke="black" points="1685.22,-191.62 1681.72,-181.62 1678.22,-191.62 1685.22,-191.62"/>
</g>
<!-- wxinclude -->
<g id="node40" class="node">
<title>wxinclude</title>
<ellipse fill="none" stroke="black" cx="641.72" cy="-234" rx="41.66" ry="18"/>
<text xml:space="preserve" text-anchor="middle" x="641.72" y="-229.72" font-family="Times,serif" font-size="12.00">wxinclude</text>
</g>
<!-- wxinclude&#45;&gt;boost -->
<g id="edge35" class="edge">
<title>wxinclude&#45;&gt;boost</title>
<path fill="none" stroke="black" d="M646.67,-215.7C648.8,-208.24 651.35,-199.32 653.73,-190.97"/>
<polygon fill="black" stroke="black" points="657.04,-192.14 656.42,-181.56 650.31,-190.21 657.04,-192.14"/>
</g>
<!-- wxtetris -->
<g id="node41" class="node">
<title>wxtetris</title>
<ellipse fill="none" stroke="black" cx="1299.72" cy="-234" rx="34.03" ry="18"/>
<text xml:space="preserve" text-anchor="middle" x="1299.72" y="-229.72" font-family="Times,serif" font-size="12.00">wxtetris</text>
</g>
<!-- wxtetris&#45;&gt;wxwidgets -->
<g id="edge36" class="edge">
<title>wxtetris&#45;&gt;wxwidgets</title>
<path fill="none" stroke="black" d="M1299.72,-215.7C1299.72,-208.41 1299.72,-199.73 1299.72,-191.54"/>
<polygon fill="black" stroke="black" points="1303.22,-191.62 1299.72,-181.62 1296.22,-191.62 1303.22,-191.62"/>
</g>
<!-- wxx -->
<g id="node42" class="node">
<title>wxx</title>
<ellipse fill="none" stroke="black" cx="1378.72" cy="-234" rx="27" ry="18"/>
<text xml:space="preserve" text-anchor="middle" x="1378.72" y="-229.72" font-family="Times,serif" font-size="12.00">wxx</text>
</g>
<!-- wxx&#45;&gt;wxwidgets -->
<g id="edge37" class="edge">
<title>wxx&#45;&gt;wxwidgets</title>
<path fill="none" stroke="black" d="M1363.12,-219.17C1352.55,-209.81 1338.33,-197.21 1326.04,-186.32"/>
<polygon fill="black" stroke="black" points="1328.44,-183.77 1318.64,-179.76 1323.8,-189.01 1328.44,-183.77"/>
</g>
<!-- zmqpp -->
<g id="node43" class="node">
<title>zmqpp</title>
<ellipse fill="none" stroke="black" cx="890.72" cy="-234" rx="30.69" ry="18"/>
<text xml:space="preserve" text-anchor="middle" x="890.72" y="-229.72" font-family="Times,serif" font-size="12.00">zmqpp</text>
</g>
<!-- zmqpp&#45;&gt;libzmq -->
<g id="edge38" class="edge">
<title>zmqpp&#45;&gt;libzmq</title>
<path fill="none" stroke="black" d="M873.93,-218.83C862.3,-209.03 846.62,-195.8 833.43,-184.68"/>
<polygon fill="black" stroke="black" points="835.84,-182.13 825.94,-178.36 831.32,-187.48 835.84,-182.13"/>
</g>
</g>
</svg>
